<?xml version="1.0" encoding="UTF-8" standalone="no"?>
<!-- Created with Inkscape (http://www.inkscape.org/) -->

<svg
   xmlns:dc="http://purl.org/dc/elements/1.1/"
   xmlns:cc="http://creativecommons.org/ns#"
   xmlns:rdf="http://www.w3.org/1999/02/22-rdf-syntax-ns#"
   xmlns:svg="http://www.w3.org/2000/svg"
   xmlns="http://www.w3.org/2000/svg"
   xmlns:xlink="http://www.w3.org/1999/xlink"
   xmlns:sodipodi="http://sodipodi.sourceforge.net/DTD/sodipodi-0.dtd"
   xmlns:inkscape="http://www.inkscape.org/namespaces/inkscape"
   width="210mm"
   height="297mm"
   viewBox="0 0 744.09448819 1052.3622047"
   id="svg2"
   version="1.1"
   inkscape:version="0.91 r13725"
   sodipodi:docname="vectors.svg">
  <defs
     id="defs4">
    <linearGradient
       id="linearGradient4220"
       inkscape:collect="always">
      <stop
         id="stop4222"
         offset="0"
         style="stop-color:#000000;stop-opacity:0.48898679" />
      <stop
         id="stop4224"
         offset="1"
         style="stop-color:#ffffff;stop-opacity:0" />
    </linearGradient>
    <linearGradient
       id="linearGradient4214"
       inkscape:collect="always">
      <stop
         id="stop4216"
         offset="0"
         style="stop-color:#000000;stop-opacity:0.48898679" />
      <stop
         id="stop4218"
         offset="1"
         style="stop-color:#ffffff;stop-opacity:0" />
    </linearGradient>
    <inkscape:path-effect
       effect="sketch"
       id="path-effect4366"
       is_visible="true"
       nbiter_approxstrokes="5"
       strokelength="100"
       strokelength_rdm="0.3;1"
       strokeoverlap="0.3"
       strokeoverlap_rdm="0.3;1"
       ends_tolerance="0.1;1"
       parallel_offset="5;1"
       tremble_size="5;1"
       tremble_frequency="1"
       nbtangents="5"
       tgt_places_rdmness="1;1"
       tgtscale="10"
       tgtlength="100"
       tgtlength_rdm="0.3;1" />
    <inkscape:path-effect
       effect="sketch"
       id="path-effect4229"
       is_visible="true"
       nbiter_approxstrokes="5"
       strokelength="100"
       strokelength_rdm="0.3;1"
       strokeoverlap="0.3"
       strokeoverlap_rdm="0.3;1"
       ends_tolerance="0.1;1"
       parallel_offset="5;1"
       tremble_size="5;1"
       tremble_frequency="1"
       nbtangents="5"
       tgt_places_rdmness="1;1"
       tgtscale="10"
       tgtlength="100"
       tgtlength_rdm="0.3;1" />
    <linearGradient
       inkscape:collect="always"
       id="linearGradient4217">
      <stop
         style="stop-color:#000000;stop-opacity:0.48898679"
         offset="0"
         id="stop4219" />
      <stop
         style="stop-color:#ffffff;stop-opacity:0.45882353"
         offset="1"
         id="stop4221" />
    </linearGradient>
    <inkscape:path-effect
       effect="rough_hatches"
       id="path-effect4201"
       is_visible="true"
       direction="471.64193,1473.1184 , 124.90751,0"
       dist_rdm="75;1"
       growth="0"
       do_bend="true"
       bender="471.64193,1478.0996 , 15.613439,0"
       bottom_edge_variation="78.857142;1"
       top_edge_variation="78.857142;662209711"
       bottom_tgt_variation="0;-103069093"
       top_tgt_variation="0;-1429425606"
       scale_bf="1"
       scale_bb="1"
       scale_tf="1"
       scale_tb="1"
       top_smth_variation="0;1310270744"
       bottom_smth_variation="0;1136435548"
       fat_output="true"
       stroke_width_top="1.8"
       stroke_width_bottom="2.4"
       front_thickness="1"
       back_thickness="0.25" />
    <inkscape:path-effect
       effect="sketch"
       id="path-effect4175"
       is_visible="true"
       nbiter_approxstrokes="5"
       strokelength="100"
       strokelength_rdm="0.3;1"
       strokeoverlap="0.3"
       strokeoverlap_rdm="0.3;1"
       ends_tolerance="0.1;1"
       parallel_offset="5;1"
       tremble_size="5;1"
       tremble_frequency="1"
       nbtangents="5"
       tgt_places_rdmness="0.7;1"
       tgtscale="10"
       tgtlength="100"
       tgtlength_rdm="0.3;1" />
    <inkscape:path-effect
       effect="sketch"
       id="path-effect4149"
       is_visible="true"
       nbiter_approxstrokes="5"
       strokelength="100"
       strokelength_rdm="0.3;1"
       strokeoverlap="0.3"
       strokeoverlap_rdm="0.3;1"
       ends_tolerance="0.1;1"
       parallel_offset="5;1"
       tremble_size="5;1"
       tremble_frequency="1"
       nbtangents="5"
       tgt_places_rdmness="1;1"
       tgtscale="10"
       tgtlength="100"
       tgtlength_rdm="0.3;1" />
    <inkscape:path-effect
       effect="sketch"
       id="path-effect4144"
       is_visible="true"
       nbiter_approxstrokes="5"
       strokelength="100"
       strokelength_rdm="0.3;1"
       strokeoverlap="0.3"
       strokeoverlap_rdm="0.3;1"
       ends_tolerance="1;1"
       parallel_offset="5;1"
       tremble_size="5;1"
       tremble_frequency="1.01"
       nbtangents="5"
       tgt_places_rdmness="0.9;1"
       tgtscale="9.5"
       tgtlength="100"
       tgtlength_rdm="0.3;1" />
    <inkscape:path-effect
       effect="powerstroke"
       id="path-effect4142"
       is_visible="true"
       offset_points="0,13 | 2,13"
       sort_points="true"
       interpolator_type="CubicBezierFit"
       interpolator_beta="0.2"
       start_linecap_type="round"
       linejoin_type="round"
       miter_limit="4"
       end_linecap_type="round" />
    <linearGradient
       inkscape:collect="always"
       xlink:href="#linearGradient4217"
       id="linearGradient4225"
       x1="494.28574"
       y1="283.5726"
       x2="660"
       y2="280.72659"
       gradientUnits="userSpaceOnUse"
       gradientTransform="matrix(1.068548,0,0,1.5018185,-4.7844102,-525.92284)" />
    <linearGradient
       inkscape:collect="always"
       xlink:href="#linearGradient4220"
       id="linearGradient4225-1"
       x1="480.81635"
       y1="277.26129"
       x2="660"
       y2="280.72659"
       gradientUnits="userSpaceOnUse"
       gradientTransform="matrix(0.42163017,0,0,0.45144522,-826.59844,465.31679)" />
    <linearGradient
       inkscape:collect="always"
       xlink:href="#linearGradient4214"
       id="linearGradient4225-1-1"
       x1="480.81635"
       y1="277.26129"
       x2="660"
       y2="280.72659"
       gradientUnits="userSpaceOnUse"
       gradientTransform="matrix(0.48006025,0,0,0.45130454,-1427.1374,465.83144)" />
    <inkscape:path-effect
       effect="sketch"
       id="path-effect4229-2"
       is_visible="true"
       nbiter_approxstrokes="5"
       strokelength="100"
       strokelength_rdm="0.3;1"
       strokeoverlap="0.3"
       strokeoverlap_rdm="0.3;1"
       ends_tolerance="0.1;1"
       parallel_offset="5;1"
       tremble_size="5;1"
       tremble_frequency="1"
       nbtangents="5"
       tgt_places_rdmness="1;1"
       tgtscale="10"
       tgtlength="100"
       tgtlength_rdm="0.3;1" />
    <linearGradient
       inkscape:collect="always"
       xlink:href="#linearGradient4217"
       id="linearGradient4225-2"
       x1="494.28574"
       y1="283.5726"
       x2="660"
       y2="280.72659"
       gradientUnits="userSpaceOnUse"
       gradientTransform="matrix(1.0313689,0,0,1.853014,14.126511,-2530.0014)" />
    <inkscape:path-effect
       effect="sketch"
       id="path-effect4175-8"
       is_visible="true"
       nbiter_approxstrokes="5"
       strokelength="100"
       strokelength_rdm="0.3;1"
       strokeoverlap="0.3"
       strokeoverlap_rdm="0.3;1"
       ends_tolerance="0.1;1"
       parallel_offset="5;1"
       tremble_size="5;1"
       tremble_frequency="1"
       nbtangents="5"
       tgt_places_rdmness="0.8;1"
       tgtscale="10"
       tgtlength="100"
       tgtlength_rdm="0.3;1" />
  </defs>
  <sodipodi:namedview
     id="base"
     pagecolor="#ffffff"
     bordercolor="#666666"
     borderopacity="1.0"
     inkscape:pageopacity="0.0"
     inkscape:pageshadow="2"
     inkscape:zoom="0.49497475"
     inkscape:cx="67.354316"
     inkscape:cy="-1394.3983"
     inkscape:document-units="px"
     inkscape:current-layer="layer1"
     showgrid="false"
     showborder="false"
     inkscape:window-width="1366"
     inkscape:window-height="705"
     inkscape:window-x="-8"
     inkscape:window-y="-8"
     inkscape:window-maximized="1" />
  <metadata
     id="metadata7">
    <rdf:RDF>
      <cc:Work
         rdf:about="">
        <dc:format>image/svg+xml</dc:format>
        <dc:type
           rdf:resource="http://purl.org/dc/dcmitype/StillImage" />
        <dc:title />
      </cc:Work>
    </rdf:RDF>
  </metadata>
  <g
     inkscape:label="Layer 1"
     inkscape:groupmode="layer"
     id="layer1">
    <path
       style="fill:#71df66;fill-opacity:1;fill-rule:evenodd;stroke:none;stroke-width:4.4000001;stroke-linecap:butt;stroke-linejoin:miter;stroke-miterlimit:4;stroke-dasharray:none;stroke-opacity:1"
       d="m 475.21547,543.04227 -74.07938,0 0,115.95191 384.6429,0 -2.84921,-120.58999 -71.23017,0 34.19048,0 0,-1275.47091 -299.1667,0 0,1280.10899 z"
       id="path4147-1"
       inkscape:connector-curvature="0"
       sodipodi:nodetypes="ccccccccccc"
       inkscape:export-xdpi="22.61661"
       inkscape:export-ydpi="22.61661" />
    <path
       style="fill:none;fill-opacity:1;fill-rule:evenodd;stroke:#000000;stroke-width:5.56480503;stroke-linecap:butt;stroke-linejoin:miter;stroke-miterlimit:4;stroke-dasharray:none;stroke-opacity:1"
       d="m 470.35764,547.14395 c -21.52509,-0.75618 -44.60752,-0.48706 -67.89717,-0.24722 -0.14694,4.33699 -0.3014,8.67292 -0.45404,13.00048 m 5.37456,-23.06559 c -2.22101,-0.0366 -4.43221,-0.0669 -6.63419,-0.0914 -0.24284,21.49652 0.43435,43.56871 1.46396,65.75908 m -6.48015,-9.71848 c -0.93606,21.22664 -0.53569,42.34033 0.0375,62.89107 3.34536,-0.15801 6.69467,-0.32883 10.0439,-0.51401 m -4.18204,-4.13687 c 0.10516,2.37915 0.19871,4.75049 0.28214,7.11513 30.45623,0.8017 59.2651,0.51005 89.59359,1.4228 m -35.26877,-8.8986 c 27.40606,-0.6952 57.83984,-0.79002 89.50166,-1.81167 m -22.07293,6.46064 c 24.72391,0.71709 51.74959,-1.17364 79.68164,-4.39783 m -24.80613,3.96786 c 24.16701,0.01 50.37303,-0.26066 77.38527,-0.80207 m -11.89288,-3.96366 c 23.88661,-0.22828 46.37986,0.75222 68.16925,2.61395 m -15.81935,1.1754 c 30.12842,0.54964 58.48019,-0.89676 86.9239,-3.09001 -0.0749,-1.4807 -0.1497,-2.96305 -0.22406,-4.44691 m -18.03368,2.96688 c 6.97166,0.32781 14.05902,0.57656 21.24228,0.79157 -0.32644,-22.504 0.36841,-45.36732 1.39673,-67.01561 m -4.28371,25.84402 c 0.62713,-24.42851 -0.53635,-49.52534 -1.4875,-74.71527 -2.63969,-0.0423 -5.27704,-0.0857 -7.90974,-0.12937 m 3.15131,7.4315 c 0.0986,-4.04291 0.146,-8.12815 0.15147,-12.2507 -23.1445,0.16567 -47.66106,-0.88834 -71.84273,-2.22338 2.07785,-0.11903 4.15836,-0.24029 6.24273,-0.36312 m 10.48454,7.77308 c -5.76319,0.0563 -11.56731,0.19664 -17.39029,0.42682 11.71482,0.43793 23.36138,1.20087 35.0917,2.32772 0.30658,-9.44167 0.68396,-18.57577 1.25026,-27.37209 m 3.83022,13.68002 c -0.93792,-23.30875 -1.25434,-46.90753 -2.46009,-68.86792 m 2.34334,10.11986 c 0.15408,-27.06113 -0.75235,-53.01711 -2.40257,-79.1968 m 0.68359,21.48615 c -0.51286,-29.70055 1.03687,-60.10627 3.37061,-89.06632 m -0.51868,23.73487 c 0.63325,-31.76408 0.0766,-66.88184 0.14862,-103.48029 m -1.5941,29.54118 c 0.10217,-31.89078 0.57972,-63.57267 1.76323,-92.7908 m -2.31008,22.23224 c 0.15008,-27.14994 1.36983,-55.3057 3.99292,-83.96057 m -11.8442,29.45899 c 1.02126,-30.72107 1.82642,-60.795079 4.91859,-91.85811 m 0.70621,24.914539 c 0.4181,-31.866575 -0.19765,-64.062047 -0.72881,-97.598838 m 3.4237,27.900409 c -0.9438,-34.276418 0.81216,-64.663065 2.58786,-95.831745 m -3.0563,30.312718 c 0.0863,-32.130909 0.0541,-65.914933 0.10745,-102.830423 m -6.04516,34.51548 c -0.60798,-33.4874 0.82384,-66.38295 2.47153,-99.7229 m 1.20083,20.38853 c 0.87543,-28.61132 -0.1112,-57.54864 -0.87996,-83.6794 m 3.84822,26.44331 c -0.45478,-23.80002 -0.69143,-47.13742 -1.38895,-70.08171 m 3.10804,18.02313 c 0.42127,-30.03023 0.4562,-58.73029 1.09265,-88.07515 m -2.85098,23.64108 c -0.92651,-24.49619 -0.87996,-49.91924 -1.42366,-75.48347 m -0.80254,18.45615 c -0.0107,-27.4632 0.85056,-57.42023 2.56592,-88.70974 m -5.80832,14.43998 c -0.72277,-34.13111 0.62242,-65.03684 1.88339,-95.87447 m 0.0698,37.41632 c -0.35233,-26.13897 0.60522,-54.01564 2.15219,-81.18629 m 9.56679,11.62691 c 0.29127,-27.39281 0.008,-54.97332 -0.22163,-82.25237 m -3.2939,23.56797 c 0.16343,-8.21725 0.15072,-16.35016 -0.008,-24.40034 -22.74066,0.43669 -46.55776,1.48416 -70.84263,3.1103 m 25.86823,-7.79588 c -31.84288,-0.34259 -62.64293,0.30309 -93.75107,1.06484 m 31.32757,-5.63497 c -28.2149,0.24228 -58.86593,1.53432 -88.95074,4.47501 m 13.54899,11.07196 c -31.13075,0.5411 -60.73908,0.0997 -89.71836,0.0748 m 24.61867,-15.73955 c -20.18957,-0.89981 -39.39765,-0.69826 -58.44661,-0.29644 0.0731,4.56865 0.15476,9.14799 0.23473,13.7269 m 5.20003,-2.45353 c -0.62135,-0.006 -1.24448,-0.012 -1.86936,-0.0182 0.7515,31.87789 -2.94703,63.59585 -8.53621,94.33921 m 12.90023,-23.92689 c 1.14844,32.52787 0.66592,64.19536 1.72978,96.51359 m -9.5817,-43.94695 c 2.3e-4,24.63588 0.84438,49.8766 2.51595,76.13876 m 0.60864,-1.6898 c -1.19098,30.16583 1.42463,58.50941 5.04471,86.29794 m -5.4352,-28.97504 c -0.83497,30.19341 1.35945,64.07221 4.37554,98.2934 m 2.46054,-24.23168 c -0.31448,25.12013 -0.14045,50.32569 -0.0129,75.50722 m -1.82331,-21.55644 c -1.05638,26.45753 -0.79293,51.41438 -1.08464,76.5473 m -3.60289,-18.50823 c -1.05284,23.79353 -0.44317,48.10762 0.16897,72.4765 m -2.23888,-10.43078 c -0.11512,30.50158 1.04445,58.47646 3.18986,86.15603 m -2.36948,-24.72368 c 0.0899,32.85183 0.42046,66.130621 1.25334,99.846388 m -5.86246,-32.797835 c 0.87885,29.786318 1.70983,60.696596 4.66984,91.22586146 m 0.17362,-26.10592046 c -0.0136,32.9824515 -2.92912,66.164673 -8.78854,98.71578 m 8.43744,-27.052058 c 1.41576,30.456998 -1.10363,60.808754 -3.80028,88.901504 m 4.15119,-29.15796 c -0.6074,29.9772 -0.51076,62.22417 -1.33241,93.78239 m 8.09055,-21.74378 c 0.38677,28.94582 0.47619,55.57277 1.07347,81.31878 m -8.88652,-23.67692 c -1.1772,26.90122 -0.16971,57.67471 0.52519,89.57819 m -7.94662,-14.10015 c 0.0819,26.46237 0.89663,52.6383 2.60488,79.08888 m 3.41075,-26.64798 c 0.10151,32.27234 -0.83634,64.5594 -2.53332,96.09023 m 5.4235,-22.94235 c -1.1071,27.5643 -0.049,55.12123 1.00615,83.74837 m -3.93568,-25.00213 c -0.36561,13.74755 -0.0652,28.25875 0.70016,43.16491 10.00177,0.32599 20.20552,0.82351 30.55374,1.38704 -3.03235,0.19764 -6.04692,0.40339 -9.04621,0.6127 m 6.59705,-5.21117 c -21.50496,-0.40378 -44.3212,0.42502 -68.3871,1.98581 -0.55295,5.09074 -1.16651,10.21698 -1.84001,15.37338 m -4.60961,-14.03859 c -1.42892,0.0156 -2.85784,0.0279 -4.28647,0.037 0.96854,28.51311 2.0449,55.85525 5.34919,82.67527 m 4.14739,-26.81981 c -0.767,17.44957 -1.12505,35.98841 -1.73746,55.27664 11.06327,0.92053 22.0218,2.14963 32.70036,3.59749 m -24.51497,1.83552 c 32.45994,0.0122 63.34443,-1.06987 94.73048,-3.2139 m -23.99888,2.11974 c 25.00574,-1.03316 51.2735,-0.34707 78.06719,0.24012 m -21.05305,-7.42726 c 23.73096,-0.10472 48.44531,0.0592 73.08576,0.33046 m -13.24643,9.8651 c 29.17431,0.63176 61.50062,0.72081 93.62724,1.87833 m -28.46548,-5.55036 c 23.98613,0.10428 49.63643,0.8206 76.57787,2.32991 m -11.92386,3.52903 c 21.91944,-0.86295 43.73388,-0.52099 65.19668,-0.11872 -0.18667,-3.47187 -0.38234,-6.94219 -0.58803,-10.41565 m -5.67587,5.06559 c 2.45743,-0.1003 4.89414,-0.18353 7.31135,-0.25122 -0.16454,-22.14764 -1.92821,-43.02072 -4.37737,-63.75171 m -6.27086,21.21027 c 0.17131,-22.4108 -0.0236,-46.58679 0.49312,-71.16601 -2.97692,-0.1669 -5.94113,-0.34102 -8.89003,-0.51908 m 5.50585,2.24387 c -0.0127,-3.14907 -0.0379,-6.30309 -0.074,-9.46122 -22.21478,0.14661 -44.9716,0.0871 -67.658,0.12028 m 22.61765,3.43717 c -7.40985,0.0729 -14.79793,0.086 -22.19666,0.049 11.04945,-0.0586 22.07207,-0.24331 32.93815,-0.51511 -0.64901,-14.26867 -1.53208,-28.6676 -2.88634,-43.12558 m 6.24084,22.08186 c -1.28718,-28.55379 0.79489,-56.41353 3.52492,-84.88783 m 0.57711,31.24266 c 0.01,-25.09285 0.35437,-49.69444 1.0483,-74.94459 m -9.75947,16.39492 c -0.60742,-25.9792 -1.40175,-54.23289 -3.57295,-82.15207 m 9.43287,16.81285 c 0.95866,-31.6041 -1.98891,-59.65557 -6.44596,-87.32171 m 2.22648,22.54271 c -1.28743,-31.88449 0.19069,-63.97488 1.10361,-98.29849 m -3.95444,29.93282 c 0.7688,-23.17742 0.18299,-47.14943 -0.56878,-71.07825 m -4.70491,20.33702 c 0.15755,-23.23172 1.26548,-47.05046 3.56814,-70.779239 m 1.43134,8.97255 c -1.08013,-23.493747 0.30412,-48.219288 2.44843,-72.963318 m 5.20819,17.969552 c -0.21147,-27.0127928 -1.19939,-54.895895 -3.41054,-83.575412 m -9.16747,21.135043 c 0.10393,-34.651553 2.09591,-64.436534 6.25558,-93.891706 m 0.69726,26.666439 c -0.61713,-25.570969 0.0698,-49.514809 0.99824,-72.640569 m 5.60407,12.02146 c 1.16075,-24.31625 -0.0514,-46.60386 -1.93834,-68.21441 m -4.3907,18.36531 c -0.99655,-23.22974 -0.83709,-48.71776 -1.08498,-75.16165 m 2.76506,18.155 c -0.0737,-27.098 -0.6919,-53.84966 -1.97206,-80.64216 m -3.53552,14.06837 c 0.51792,-25.48194 1.32456,-50.71012 3.32173,-76.47061 m -3.79093,12.42616 c -0.58628,-23.17069 0.38052,-46.63842 1.99738,-69.36534 m 0.69812,16.82094 c -0.1356,-25.60412 0.98241,-50.10652 3.14117,-74.7412 m -0.71972,24.54879 c -1.18258,-24.21726 -0.13473,-48.77872 1.25249,-73.34262 m -1.52538,10.58607 c 0.20895,-28.8716 -1.49773,-58.98254 -4.60909,-88.18039 m 9.60899,27.90392 c -0.0827,-23.91759 0.32834,-48.01307 1.097,-72.83431 m -12.85478,18.06553 c -0.006,-16.89754 0.44984,-33.76993 1.36936,-50.73922 -11.6943,-0.16904 -23.13546,-0.39101 -34.32316,-0.7152 m 19.18699,-8.64968 c -26.81061,1.13499 -51.78013,1.75557 -76.85644,3.9139 m 19.55589,5.46104 c -31.28813,1.15436 -59.37073,-0.21191 -86.98635,-1.27948 m 34.4525,-7.58855 c -24.10349,-1.12897 -49.38606,-0.16288 -75.1716,1.05526 m 13.02592,5.97676 c -31.38173,0.97693 -63.85629,-0.95565 -95.4518,-3.03827 m 28.94704,-2.54804 c -11.15625,-0.0749 -22.29792,0.23852 -33.36803,0.91307 0.32994,16.12845 0.78938,32.91032 1.51702,50.27928 m -7.79876,-17.11984 c -1.15488,33.85264 0.19567,65.47174 0.64584,97.75823 m -8.22391,-29.88962 c -0.72832,24.16083 -0.20973,48.53086 0.37606,72.49183 m 6.49957,-8.01443 c 1.09862,34.50737 0.37353,64.65231 1.1167,94.59691 m 3.25831,-37.14611 c 0.92014,26.25143 1.07262,55.21557 2.30739,84.54037 m 0.30995,-22.53848 c 1.41918,29.68863 0.55655,58.48368 0.688,87.81654 m -4.20417,-17.67366 c -0.15028,28.82862 -1.42867,57.08299 -4.18106,83.0529 m 5.04042,-18.3774 c -0.16442,24.28459 -0.59884,45.80206 -1.5568,65.90283 m 0.0723,-11.35533 c -0.68461,32.17007 -0.80471,63.62189 -2.14526,96.67074 m 4.4889,-24.57197 c -0.89753,25.72423 -0.0813,53.39259 0.65511,80.40021 m -2.41247,-24.87412 c 0.38946,31.40791 0.81609,63.957024 2.33045,95.536376 m -6.93952,-24.596416 c 1.39025,33.140096 2.36136,64.7496919 6.88621,97.035514 m -4.3866,-35.3037126 c 0.0731,23.4048336 -0.44191,47.2112826 -1.41904,71.3333666 m 7.74671,-9.814062 c -1.30491,31.614088 -1.90647,62.430644 -5.22701,93.439014 m 6.43802,-23.39559 c -1.06192,29.05239 -1.70495,60.2548 -4.55151,90.72655 m -0.52621,-26.10718 c 0.1417,23.88173 -0.75504,48.39893 -2.46635,73.02093 m 0.31764,-19.30431 c -0.55185,26.13394 0.79671,53.01598 3.01304,80.53048 m -5.23943,-23.41818 c -0.13257,27.73105 -0.008,57.37913 0.10096,87.69348 m 0.8755,-22.27723 c -0.40059,27.95328 1.06413,55.7034 3.58864,83.64518 m -5.97177,-20.99602 c -1.18485,24.49133 -0.41691,51.76699 0.18706,79.63311 m 3.4459,-16.9803 c -0.39575,12.88174 -0.51154,25.76514 -0.51651,38.74484 9.49363,0.23297 19.04953,0.52006 28.59645,0.90114 -8.85496,0.35716 -17.71782,0.79689 -26.64725,1.35201 m 10.61391,-4.31923 c -22.66162,0.54623 -44.12627,-0.42615 -65.41551,-2.2001 0.27225,9.45882 0.58336,18.74002 0.82678,27.91839 m 4.92433,-24.79589 c 1.48289,32.56807 -1.82014,63.98009 -5.58059,93.75406 m 9.29117,-22.27862 c 0.13222,14.50659 0.14145,28.90238 0.095,43.40517 11.68495,0.32653 23.33147,0.72693 34.97818,1.32611 m -20.46089,-6.07388 c 30.37993,0.48141 62.14494,-0.0634 91.95291,-0.31378 m -28.31377,6.09535 c 29.93485,1.46082 63.21408,-2.29745 97.97204,-7.52108 m -21.27148,6.07559 c 30.622,0.90252 58.26421,0.80304 84.44638,1.89553 m -19.35394,-0.41114 c 27.6416,0.88097 55.73803,-0.85091 82.23403,-3.22294 m -22.08158,7.55881 c 24.76342,0.61735 50.42468,-1.56982 75.67499,-5.5016 m -15.33083,-4.92824 c 14.31915,0.13387 29.3444,0.63421 44.7383,1.58036 0.12289,-11.01921 0.47638,-21.75954 0.89351,-32.18174 m -2.85307,19.43533 c -0.37984,-30.41224 -0.34894,-61.44383 0.89512,-93.62069 m 0.84717,19.17682 c -0.90333,-12.24209 -1.35754,-24.36663 -1.61343,-36.32723 -13.08312,0.41698 -25.9425,1.01891 -38.87869,1.8614 m 13.70029,7.91361 c -16.60987,-0.73288 -32.6391,-0.96698 -48.19044,-1.23913 10.46678,-0.16396 21.10701,-0.34173 31.89823,-0.6507 m -25.37242,2.86665 c 7.56066,-0.14512 15.18988,-0.24493 22.85896,-0.32318 -0.15949,-17.0904 -0.1286,-34.0778 -0.2067,-51.21011 m 2.52722,16.96176 c -0.16457,-26.9575 0.8712,-54.79434 2.81318,-84.57916 m -10.23481,11.49402 c 0.42627,-23.89968 0.77628,-46.52616 1.70594,-68.14761 m 9.3879,19.28186 c 0.72834,-25.29867 1.23934,-50.57071 2.86865,-74.0253 m -8.33763,11.8668 c 0.115,-24.58165 0.7041,-48.64658 1.94784,-72.31009 m -8.54906,14.34393 c 1.17384,-30.80308 0.44529,-59.95187 0.74049,-88.57193 m 4.72818,32.76348 c 0.92103,-29.27899 -0.74252,-60.63758 -2.71152,-91.68276 m 6.69604,10.79874 c 1.11883,-25.19197 0.68638,-48.024622 0.53054,-69.324448 m 6.89109,26.618052 c 0.55041,-27.207251 -0.96491,-54.81249 -3.45923,-83.00164406 M 737.4385,15.322136 c 0.89762,-29.103818 2.1403,-55.548333 5.64293,-81.631864 m 6.23195,19.980216 c 0.60673,-29.264144 0.85302,-58.724358 2.14154,-88.261738 m 0.16269,18.44878 c -0.64893,-26.01109 -1.96719,-51.04413 -5.1382,-75.20851 m -3.84574,22.18029 c 0.44438,-25.03963 0.47566,-50.47899 0.84661,-75.88572 m 9.2309,16.78226 c -1.39261,-32.46123 -1.84112,-65.11878 -5.26469,-98.90856 m -8.01644,31.69086 c -0.74575,-22.90129 0.2991,-47.72393 2.00037,-72.96644 m 4.24974,9.76987 c -0.59966,-28.18269 0.84253,-57.38976 2.89507,-84.40687 m -5.59011,20.82559 c 0.23401,-32.35387 -1.26529,-66.39683 -3.78913,-99.20904 0,0 -7.6e-4,-0.01 -7.6e-4,-0.01 m -3.78826,30.42915 c 0.1306,-28.82819 1.69242,-56.58048 4.95292,-85.4277 m -2.41384,22.99322 c 0.17921,-28.54568 1.09668,-59.4926 3.17964,-92.62483 m -5.28865,24.07749 c 1.16812,-27.28464 2.29671,-53.66139 5.74907,-78.82375 m 8.97753,25.31759 c 0.72496,-15.8628 0.25839,-31.78211 -0.9287,-47.93118 -12.72786,-0.41104 -25.86958,-0.95406 -39.22013,-1.70448 m 19.55669,-3.94223 c -31.67285,-0.2173 -66.38044,1.64265 -100.85413,4.91431 m 26.01021,3.5619 c -31.60781,-1.30758 -63.42019,0.92164 -96.28439,3.19233 m 27.54462,-12.37164 c -28.64084,-0.1038 -57.46239,-0.54913 -84.4671,-1.56696 m 29.73011,9.1056 c -26.17216,-1.2734 -55.59051,-0.9607 -85.78237,-1.62883 -0.57593,5.51961 -1.18483,10.99742 -1.80495,16.41082 m 20.65099,-17.47664 c -4.3455,0.0833 -8.65537,0.16268 -12.93739,0.24227 -0.51141,21.15114 -0.33586,42.30622 -0.42721,63.95252 m -6.32077,-16.72263 c -0.52091,29.24403 1.10129,57.11891 3.65897,82.65543 m 2.78606,-15.16006 c -1.40821,30.23749 -0.93285,60.02036 -2.13009,88.52177 m -9.00178,-28.15119 c 1.29904,27.12886 1.16193,54.54499 2.12536,82.38368 m -4.93814,-14.98244 c 0.60743,31.17949 1.98238,58.18692 5.61099,84.13255 m 1.65448,-25.29543 c 0.14903,32.82227 1.6756,64.3232 5.02656,97.5022 m 0.67694,-30.66506 c 1.16075,29.15332 -0.31976,55.14574 -2.02154,80.81442 m -6.37728,-20.099 c 0.1049,29.09291 1.13439,60.71305 3.36781,93.21131 m 2.96057,-25.16125 c 0.80128,28.007 -0.19092,54.5598 -1.42129,81.65629 m 5.24907,-21.58182 c -0.12983,23.30861 0.17659,48.11659 0.72212,73.707871 M 441.94294,-105.0866 c -1.25542,28.986901 1.29925,59.463296 4.72459,90.18257 m -7.38082,-29.97667 c -1.21843,30.084979 0.96695,60.116252 3.43623,88.821166 m 2.61922,-23.788724 c 1.02022,27.462776 -0.33384,56.757727 -1.91802,86.526888 m 7.89406,-25.070875 c -0.43621,27.888615 -0.69938,55.647055 -1.66166,84.596755 m -0.56498,-22.63891 c -0.62144,25.04538 0.41965,50.86586 2.03063,76.33054 m 0.86043,-18.27202 c 0.60341,32.60775 0.19614,63.07706 0.35715,94.30264 m -9.26382,-20.0225 c -0.70665,32.68681 2.18408,61.78484 6.78159,91.18382 m -0.45297,-25.16421 c 0.86596,30.39319 -1.33033,62.60055 -4.26621,93.09151 m 0.20294,-23.02268 c -1.66191,34.8264 0.89347,66.46075 2.68375,99.5708 m -1.19914,-39.93849 c -0.51505,19.96058 -0.13381,39.90957 0.59394,60.12529 9.48794,0.24364 19.0507,0.54487 28.63311,0.93162 m -23.45491,9.07125 c 7.98988,-0.38227 15.90589,-0.48631 23.77375,-0.37494 -24.58602,0.35105 -49.65041,2.84229 -74.38753,5.50574 -1.9e-4,0.11433 -3.6e-4,0.22867 -5.4e-4,0.34301 m 71.65455,-6.56726 c -24.54234,-0.45249 -49.00748,-0.004 -74.03852,0.64974 -0.19352,5.42375 -0.4141,10.85726 -0.66848,16.29327 m 5.43139,-20.57576 c -2.5804,-0.0314 -5.14491,-0.055 -7.69466,-0.0713 -0.32185,21.69457 0.47074,43.93889 1.63328,66.3868 m 6.99989,-20.40748 c -0.38989,22.72316 -1.24573,44.08179 -3.05715,65.39471 10.45621,-0.1983 20.64803,-0.40925 30.50419,-0.44091 m -31.15825,7.14653 c 29.42961,-0.58092 57.19468,-1.13902 86.21813,-2.89737 m -21.42241,-1.08715 c 24.41918,-0.85261 48.67489,-0.15998 73.41188,0.75153 m -19.23413,4.01427 c 30.07926,-0.52846 59.55313,1.12952 88.42312,3.67887 m -22.40272,-4.22534 c 31.42353,0.74713 66.09543,0.95535 99.48033,2.83044 m -22.13204,3.73188 c 24.13733,0.12743 49.73837,-1.18629 75.03405,-3.72034 m -18.50539,-5.57631 c 21.66681,0.60033 44.21955,0.98134 66.84945,1.93269 -0.086,-10.2832 -0.15401,-20.4337 -0.29485,-30.36285 m 1.96324,28.13542 c -1.81232,-29.62419 -2.87301,-59.50996 -5.8794,-88.5175 m 4.73549,17.98426 c -1.04811,-16.46888 -1.8894,-32.83456 -3.02465,-48.80903 -13.9736,0.69624 -28.13274,1.63941 -42.72858,2.97396 m 26.41582,-0.10854 c -18.30273,-0.62427 -36.92696,-0.99468 -55.60568,-1.69855 11.33983,-0.43162 22.65917,-0.98862 34.01958,-1.80644 -6e-4,-0.20007 -10e-4,-0.40022 -0.002,-0.60043 m -27.86172,7.69992 c 7.61116,0.32504 15.43206,0.46502 23.39489,0.47698 -0.0824,-15.61746 0.37709,-31.7236 0.87258,-47.8927 m -2.3228,8.71446 c -1.36519,-28.49286 1.22151,-58.10053 4.58793,-86.75718 m -5.13446,29.48939 c -0.33551,-28.44101 1.39421,-56.59344 4.51531,-85.87686 m 3.37564,14.1259 c 0.54384,-26.13767 -1.65648,-52.17248 -5.5549,-77.7721 m 4.85158,21.5682 c 0.0282,-23.03197 0.5913,-46.57747 1.75433,-69.20967 m -7.22279,4.27752 c 0.86288,-28.67602 0.0196,-55.60321 -0.62548,-81.52298 m 4.18035,25.03369 c 1.25766,-27.08474 0.7816,-53.14361 0.89727,-79.81835 m -5.85854,21.18287 c 0.38698,-25.15545 0.6647,-49.894381 1.51544,-73.768418 m -4.21042,11.661403 c 1.56677,-32.33156 0.6574,-64.9936198 1.66142,-97.916929 m 0.25203,32.8250613 c -0.31908,-25.0500103 -0.0759,-48.3480823 0.21608,-71.4729963 m 12.9873,15.783966 c 0.35165,-26.43213 -1.33991,-53.327327 -4.39424,-78.901537 m 1.50354,9.05035 c 0.12219,-23.68193 -1.45119,-47.51451 -4.52674,-70.76877 m -1.21554,16.63706 c -0.0973,-26.09357 0.25308,-50.66537 0.88037,-75.67581 m -5.76289,25.0412 c 0.80946,-33.78706 -0.51928,-63.7301 -1.65991,-93.79461 m 10.99519,24.12309 c -1.03039,-26.29577 -1.88056,-51.9379 -4.33934,-78.53949 m -6.98865,17.74616 c -0.82689,-31.46414 -0.82187,-61.83775 -2.01674,-94.09043 m 11.97787,30.70781 c -0.22154,-25.70792 -0.49757,-52.34771 -1.23584,-77.3837 m -9.70152,12.97202 c 0.16703,-29.14581 0.75328,-56.75154 2.12286,-84.27889 m 7.01798,22.13156 c 0.77258,-27.26614 0.58054,-55.43702 1.04481,-83.27018 m -1.20165,22.67136 c -0.97411,-30.71026 -0.012,-63.54935 0.33001,-97.27595 m -3.14229,26.3458 c -0.16265,-17.2686 0.35507,-33.77185 1.42439,-49.42822 -6.79908,0.71756 -13.50228,1.58232 -20.11893,2.60019 m 14.03212,-5.73376 c -25.95554,1.25885 -52.12706,0.0386 -78.82779,-1.41642 m 12.92477,1.65032 c -27.10447,0.0307 -52.27939,-1.56029 -76.55715,-4.71469 m 22.11022,-3.60611 c -28.17951,-1.27025 -54.73157,-0.0415 -82.20108,1.18499 m 20.90096,2.25257 c -26.06373,-1.05163 -51.26918,-0.70905 -77.17424,-0.75205 m 25.25562,6.2208 c -17.756,-0.76155 -35.96529,-0.62901 -54.35692,-0.27308 -0.24452,13.54375 -0.58768,27.20835 -0.92169,40.72697 m -4.05543,-25.33206 c -0.30493,24.70738 -1.1526,50.1938 -3.07947,75.65286 m 4.75897,-17.09247 c -0.94634,32.4144 -0.72416,63.07708 -1.81084,95.49552 m -3.30634,-29.99386 c -0.75892,26.0731 -0.74334,50.98352 -1.31947,75.00241 m 9.63982,-9.34094 c -0.85627,34.44808 -1.3058,65.41932 -3.87945,96.54456 m -3.89419,-36.02219 c -1.10383,23.17271 -0.40908,48.19272 0.35216,73.86124 m 0.78101,-11.23375 c -0.34995,32.70746 1.87421,64.34518 5.66866,96.78422 m -2.89466,-29.58756 c 1.09727,23.14375 -0.45211,48.15539 -2.9274,73.31682 m 1.36456,-19.63943 c 0.31957,25.12964 -0.75441,51.73191 -2.63106,77.39368 m 2.94295,-20.02736 c -1.28864,26.98244 -2.00173,52.8761 -4.51886,79.14903 m 6.94077,-13.67734 c -1.27317,28.24543 -1.18477,55.993343 -2.39717,84.035285 m 1.30437,-28.358604 c 1.24981,25.235005 0.47926,50.679121 -0.14708,76.027067 m 1.27954,-8.334614 c 0.35004,23.7001732 0.49342,49.292887 1.00728,74.78293 m -3.39025,-26.712719 c -0.0616,30.587741 -0.52663,65.033516 -1.53684,100.869915 m 4.62326,-27.22599 c 1.32902,29.13671 -1.33076,56.52088 -5.06776,83.83387 m 2.09871,-20.45181 c 0.38226,23.76835 0.0775,47.81608 -0.3137,71.9592 m 2.11063,-14.42656 c 0.5863,26.45381 0.35086,50.82163 0.37466,73.28748 m 0.0936,-9.52132 c -0.76162,28.73468 -0.26588,54.65673 -0.092,79.59488 m -3.46205,-25.01209 c 1.01025,28.98504 -0.50958,59.62132 -2.24152,91.70977 m 3.49166,-23.01135 c 1.4776,31.65281 -0.47477,60.40642 -2.10156,89.06788 m 6.00727,-28.35972 c -0.13472,25.22992 0.46943,50.96956 1.58132,78.14627 0.56171,0.0546 1.12367,0.10987 1.68587,0.16583 m -9.28282,-15.46962 c -0.0283,5.25044 -0.0418,10.48003 -0.0424,15.69395 9.49612,0.0591 19.03516,0.0656 28.60424,0.0513 -17.35043,-0.0263 -34.59908,-0.12304 -51.82631,-0.0914 m 54.76428,-0.65576 c -23.13528,0.41313 -46.7015,0.29936 -70.89746,0.23625 -0.39092,7.49981 -0.84916,15.00504 -1.38168,22.53588 m 7.35194,-23.86641 c -0.88146,-0.0303 -1.76372,-0.0602 -2.64682,-0.0895 -0.72272,30.34664 -2.55773,61.29943 -7.23675,89.90014 m -2.70593,-25.72666 c 0.038,16.53076 0.31764,33.23535 0.86987,50.38114 15.95073,0.94885 32.14998,2.3 48.6246,4.28622 m -30.37763,-1.32812 c 31.40483,0.9446 60.6526,-0.97494 90.58081,-3.44811 m -22.11961,5.98646 c 26.37331,-1.05552 53.24073,-1.17787 80.34606,-2.39684 m -23.01349,2.63155 c 30.34194,-0.20308 57.61519,0.74454 85.01207,2.37311 m -16.57784,-7.29528 c 28.46769,-1.03903 58.17986,-0.96914 88.09089,-2.16709 m -20.59366,7.98783 c 27.50337,0.17701 55.50403,0.0584 82.22959,0.0383 m -17.06848,-6.32697 c 15.48321,0.72859 30.64936,0.87362 45.36853,0.91723 -1.18714,-13.90029 -2.72775,-27.88079 -4.71318,-41.60245 m 1.84792,27.592 c 0.0755,-24.83047 -1.88489,-50.01421 -4.72944,-75.41243 m 0.95953,15.69253 c -0.21413,-14.65394 -0.64642,-28.89816 -1.23,-42.9099 -9.69575,0.21845 -19.45836,0.53964 -29.26818,0.9115 m 15.79014,-1.52987 c -19.99713,0.70234 -39.58874,0.70118 -59.45037,0.69481 5.59603,-0.002 11.16817,-0.004 16.69868,0.0113 m -17.31779,-6.83898 c 11.04228,0.34905 22.13742,0.66077 33.19188,1.05411 -0.36055,-15.29854 -0.80095,-30.43685 -1.57851,-45.0877 m 8.6892,15.38776 c -0.50204,-23.75532 -0.89518,-46.53728 -1.95339,-68.2692 m -1.24942,22.90158 c 0.25071,-25.92771 0.33882,-51.35708 0.71164,-76.74353 m -4.93011,12.55331 c 0.90582,-22.88278 0.05,-48.06533 -1.14178,-73.94492 m 3.40721,20.01723 c 0.52158,-26.76729 -1.21174,-54.03386 -4.13812,-80.76631 m 5.50548,17.10779 c 0.98983,-26.71273 0.66619,-53.94886 1.07345,-79.96882 m -5.87863,16.63649 c -0.36457,-27.65634 0.58408,-55.04918 2.13574,-82.54584 m -2.95568,20.58188 c 0.58759,-25.16196 0.35654,-50.080998 0.26599,-76.162762 m 4.10873,26.130142 c -0.12574,-33.721984 -0.0322,-64.958593 -0.038,-97.991102 m 2.34302,19.893254 c 0.7075,-27.0698528 -0.52813,-53.114869 -2.36039,-78.916149 m 10.40715,16.417571 c 0.41983,-29.144868 0.16175,-56.419025 0.16396,-83.696064 m -10.20314,29.452305 c 0.0863,-27.483865 0.37622,-57.037505 1.07303,-88.461315 m 2.01292,25.30443 c 0.11283,-26.9585 -1.16205,-53.84396 -3.59968,-81.7937 m 7.66193,12.79366 c -0.59689,-28.87464 -0.26366,-56.41277 -0.32701,-82.71838 m -2.32951,24.90423 c -1.36447,-27.39078 -0.12738,-56.297 0.73472,-84.46357 m -1.35928,18.75834 c -0.12617,-30.87933 -0.62308,-63.03876 -1.83262,-92.58097 m 5.73857,24.85307 c -1.08086,-30.804 -1.3146,-64.42342 -3.63654,-98.12699 m -4.83934,31.50189 c 0.85433,-24.73069 1.24957,-50.01144 2.58572,-75.63212 m 0.14878,20.75147 c 1.21317,-26.41912 0.5981,-52.1001 0.34492,-78.37417 m 4.49846,21.37081 c 0.31569,-32.38202 -0.49888,-61.892 -1.66015,-91.87313 m 3.37833,16.24132 c -0.849,-18.93197 -0.87608,-36.89449 -0.82579,-54.61546 -11.78369,0.25919 -23.53446,0.62112 -35.45886,0.88387 m 14.48332,-6.6001 c -32.80373,-1.15357 -65.39949,1.50909 -98.72045,4.74344 m 37.89708,-0.681 c -28.43915,-1.2178 -59.6897,0.48739 -91.43847,2.29168 m 17.47474,7.98169 c -31.96007,-1.47879 -59.25367,0.62812 -84.83594,2.51083 m 27.70599,-5.36215 c -25.35234,-0.6216 -51.54025,0.6156 -77.16303,2.57164 m 13.2998,-5.38369 c -8.68726,0.19224 -17.62384,0.15243 -26.71228,-0.0754 0.0809,21.58819 -0.73291,42.06859 -1.0482,62.07084 m 3.75406,-20.04743 c 0.21552,31.33204 -1.44974,63.4589 -4.34946,92.96632 m -1.7835,-21.93685 c -0.19906,25.25622 -0.26814,48.25219 -0.52142,70.54787 m 0.63879,-16.5709 c 0.23404,22.86393 0.73738,47.77158 1.87223,73.01345 m -1.67719,-14.44822 c -0.54498,31.96932 -2.20766,60.24937 -6.35968,87.40894 m 8.15717,-27.51896 c 1.21359,26.27794 -1.10162,56.0909 -4.48908,86.92298 m 5.66098,-20.01713 c 1.15683,24.25396 0.67461,48.39379 0.50134,71.34039 m 0.63084,-8.93405 c -0.38885,24.56428 -1.3013,47.48359 -3.35807,69.22992 m -5.23548,-9.39252 c 0.0888,26.09589 -0.20651,50.19447 -0.72794,73.721 m 1.66562,-21.37539 c 0.67796,33.74419 -0.78742,66.40449 -2.47206,102.417736 m 12.15918,-41.634686 c -0.53175,33.38251 -2.2877,64.886986 -6.79088,97.264649 m -3.24827,-21.421847 c -0.74644,28.392631 1.7236,57.2004401 5.69059,83.979319 m 8.37232,-15.5632246 c 0.37731,22.6380236 0.24159,45.7538376 0.15655,67.9608196 m -13.3208,-10.379533 c -0.0729,25.413064 -0.98937,51.714317 -2.86969,76.699547 m 5.44773,-22.21367 c -0.34271,28.45959 0.65841,59.41528 2.21379,90.97253 m 5.13046,-30.27704 c 0.95465,25.19269 -0.20518,50.68701 -1.89372,77.27493 m -3.1062,-15.74052 c 1.08235,23.29713 0.85619,47.43732 0.95373,72.14185 m 0.29566,-18.17246 c -0.43124,28.83097 0.40725,60.00251 1.46118,91.01403 m -1.77313,-25.23872 c 1.26222,30.5712 0.94181,61.17963 2.43401,89.69888 m -4.81708,-10.62148 c 0.47114,34.04142 1.43192,62.94221 4.25789,90.86536 m -7.81265,-32.82579 c 0.0966,14.02368 0.0418,27.61327 -0.1168,40.90569 9.38778,-0.31603 18.72601,-0.77384 28.03034,-1.32829 -10.25113,-0.58653 -20.5402,-1.28122 -30.84866,-2.03063 m 306.71111,-897.8013 0,-160.85938 m -299.16669,104.0422 0,143.51562 m 0,-166.86333 0,149.14062 m 299.16669,536.34524 0,-190.15625 m -140.45358,-777.19562 -169.53125,0"
       id="path4147"
       inkscape:connector-curvature="0"
       sodipodi:nodetypes="ccccccccccc"
       inkscape:path-effect="#path-effect4175"
       inkscape:original-d="m 473.83386,539.25366 -74.07938,0 0,114.57096 384.6429,0 -2.84921,-119.15379 -71.23017,0 34.19049,0 0,-1260.28044 -299.16669,0 0,1264.86327 z"
       inkscape:export-xdpi="22.61661"
       inkscape:export-ydpi="22.61661" />
    <rect
       style="opacity:0.54799996;fill:url(#linearGradient4225);fill-opacity:1;stroke:none;stroke-width:4.19999981;stroke-linecap:round;stroke-linejoin:round;stroke-miterlimit:4;stroke-dasharray:none;stroke-opacity:1"
       id="rect4215"
       width="302.24643"
       height="1270.1094"
       x="440.95273"
       y="-734.77533"
       ry="0"
       inkscape:export-xdpi="22.61661"
       inkscape:export-ydpi="22.61661" />
    <path
       style="fill:none;fill-opacity:0.4889868;fill-rule:evenodd;stroke:#000000;stroke-width:7.96778917;stroke-linecap:butt;stroke-linejoin:miter;stroke-miterlimit:4;stroke-dasharray:none;stroke-opacity:1"
       d="m 486.25283,551.60758 c 27.98828,-1.39023 53.7691,-1.32714 79.6209,-1.59043 m -20.56197,-9.83709 c 23.43909,-0.83868 48.06055,-0.92514 73.10856,-0.86856 m -21.92512,6.01137 c 23.77532,-0.88152 49.3208,-1.91264 74.86258,-3.77936 m -11.0848,3.07353 c 20.77559,0.30421 40.68129,0.0269 60.7021,-0.12275 m -240.38738,-3.977 c 27.40134,-1.21156 57.8304,-1.82275 89.4875,-3.36075 m -22.06932,6.85456 c 24.71964,0.2507 51.74106,-2.10642 79.66884,-5.79699 m -24.80318,4.28923 c 24.16285,-0.44532 50.36471,-1.1706 77.37279,-2.16698 m -11.89008,-3.65783 c 20.57762,-0.56533 40.12166,-0.23389 59.07168,0.7859 m -245.66521,6.35759 c 31.53849,0.0141 61.1295,-2.15972 90.9175,-5.08789 m -22.26249,-0.70062 c 29.71678,0.84331 61.53645,0.24987 93.92528,1.73025 m -29.70334,1.47468 c 28.73912,-0.1049 55.29204,-1.02576 82.36086,-1.98659 m -25.21369,-4.65274 c 15.06167,0.11331 29.5135,-0.27956 43.7309,-0.97188 m -236.48985,9.85987 c 28.91552,-0.24756 56.94535,1.32555 86.31131,5.2877 m -17.13003,-6.90062 c 23.5632,0.74864 47.7479,1.20724 71.04326,3.30423 m -13.86759,-5.79749 c 26.49082,-1.20136 51.92114,-1.29758 76.60767,-1.6175 m -18.04739,3.0944 c 17.10219,0.17128 34.87142,0.11549 53.07399,0.22715 m -236.23262,4.30548 c 33.06273,0.0781 64.93553,-3.19754 97.43705,-7.95383 m -29.99395,1.65566 c 32.76598,0.18146 65.90735,0.57182 99.75467,3.42593 m -31.12186,-6.05773 c 27.54134,-0.25477 56.15234,-1.51534 86.16669,-3.27504 m -32.10516,9.56496 c 15.55286,-0.60982 31.05041,-1.05708 46.80823,-1.54758 m -157.90108,1.11395 160.83251,-2.93968 m -79.68539,1.45648 143.49166,-2.62273 m -169.80965,3.10377 149.11572,-2.72553 m -341.01769,6.2331 190.1245,-3.47508 m -93.62522,1.71127 169.50294,-3.09816"
       id="path4227"
       inkscape:connector-curvature="0"
       inkscape:path-effect="#path-effect4229"
       inkscape:original-d="m 476.68307,543.83651 250.73018,-4.58283"
       inkscape:export-xdpi="22.61661"
       inkscape:export-ydpi="22.61661" />
    <rect
       style="opacity:0.54799996;fill:url(#linearGradient4225-1);fill-opacity:1;stroke:none;stroke-width:4.19999981;stroke-linecap:round;stroke-linejoin:round;stroke-miterlimit:4;stroke-dasharray:none;stroke-opacity:1"
       id="rect4215-0"
       width="119.26111"
       height="381.79364"
       x="-650.71832"
       y="402.53598"
       ry="0"
       transform="matrix(0,-1,1,0,0,0)"
       inkscape:export-xdpi="22.61661"
       inkscape:export-ydpi="22.61661" />
    <path
       style="fill:#ffffff;fill-opacity:0.33480177;fill-rule:evenodd;stroke:none;stroke-width:1px;stroke-linecap:butt;stroke-linejoin:miter;stroke-opacity:1"
       d="m 674.74487,-510.21623 c 3.55737,8.44015 0.88209,21.97713 1.57769,32.07986 0.32615,4.73693 1.30428,8.9835 1.57768,13.74852 0.25937,4.52048 0,9.16567 0,13.74851 0,13.74851 0,27.49703 0,41.24555 0,42.77315 0,85.5463 0,128.31945 0,21.38659 0,42.77316 0,64.15974 0,6.11046 0.23231,12.25827 0,18.33135 -0.29613,7.74169 -1.31086,15.16352 -1.57768,22.91419 -0.26165,7.60016 0.29037,15.32284 0,22.91419 -0.23946,6.25998 -1.30874,12.08148 -1.57769,18.33135 -0.26091,6.06327 0,12.2209 0,18.33136 0,7.63806 0,15.27613 0,22.914186 0,33.607477 0,67.214951 0,100.8224293 0,35.1351017 0,70.2701907 0,105.4052747 0,12.22091 0,24.44181 0,36.6627 0,3.05522 0,6.11047 0,9.16569 0,1.52761 0.16631,3.13361 0,4.58283 -0.37186,3.24057 -1.29248,5.85183 -1.57768,9.16569 -0.31026,3.60492 0,22.73121 0,27.49701 0,21.38658 0,42.77317 0,64.15974 0,1.11146 -0.0507,13.60114 0,13.74852 0.0715,0.20769 7.14454,0 7.88842,0 0.38262,0 4.68231,0.1474 4.73305,0 0.37186,-1.08018 -0.37186,-3.50267 0,-4.58285 0.37186,-1.08019 1.20582,1.08018 1.57767,0 0.37187,-1.08019 -0.37185,-3.50265 0,-4.58283 0.83152,-2.41537 2.32387,-2.16747 3.15538,-4.58284 0.37187,-1.08018 -0.37187,-3.50264 0,-4.58283 0.37187,-1.08018 1.05178,0 1.57768,0 0,-1.52761 -0.23518,-3.21651 0,-4.58285 0.20945,-1.21677 4.31417,-13.14011 4.73305,-13.7485 0.47038,-0.68318 1.10731,0.68317 1.57769,0 3.48835,-5.06647 0.48958,-2.84433 1.57769,-9.16569 3.28296,-19.07266 -0.10893,4.89922 3.15536,-4.58283 0.52007,-1.51068 -0.38056,-15.01498 0,-18.33135 0.23518,-2.04951 1.24508,-2.65056 1.57768,-4.58283 0.23466,-1.3633 0,-25.56922 0,-27.49704 0,-18.33135 0,-36.6627 0,-54.99406 0,-15.27612 0,-30.552246 0,-45.828375 0,-3.880071 0.28273,-15.867596 0,-18.331362 -0.23518,-2.049504 -1.24508,-2.650531 -1.57768,-4.582831 -0.24007,-1.394706 0,-11.684593 0,-13.748519 0,-10.693272 0,-21.38657 0,-32.0798677 0,-25.9694013 0,-51.9388283 0,-77.9082463 0,-10.693279 0,-21.386571 0,-32.079869 0,-10.69328 0.26228,-21.41374 0,-32.07986 -0.26494,-10.77439 -1.24102,-21.32237 -1.57769,-32.07987 -0.3809,-12.1707 0.59499,-24.56463 0,-36.6627 -0.23518,-4.78218 -1.25153,-9.01159 -1.57767,-13.74851 -0.41256,-5.99179 0,-12.22089 0,-18.33135 0,-10.69329 0,-21.38658 0,-32.07987 0,-13.74852 0,-27.49704 0,-41.24554 0,-3.97142 0.30463,-15.67663 0,-18.33136 -0.37187,-3.24055 -1.20582,-5.92512 -1.57769,-9.16566 -0.1663,-1.44923 0,-3.05524 0,-4.58285 0,-3.05523 0,-6.11045 0,-9.16567 0,-15.27613 0,-30.55226 0,-45.82839 0,-3.83762 0.29994,-19.42908 0,-22.91418 -0.28522,-3.31386 -1.29247,-5.85182 -1.57769,-9.16567 -0.25509,-2.96401 0,-6.11046 0,-9.16569 0,-1.52761 0.2352,-3.2165 0,-4.58283 -0.3326,-1.9323 -1.3425,-2.53333 -1.57768,-4.58284 -0.3326,-2.89844 0.2551,-6.20167 0,-9.16568 -0.2852,-3.31385 -1.05179,-6.11044 -1.57768,-9.16567 -0.5259,-4.58284 -1.25155,-9.01159 -1.57769,-13.74852 -0.20626,-2.99589 0.2551,-6.20167 0,-9.16568 -0.2852,-3.31385 -1.14095,-5.99413 -1.57768,-9.16567 -0.61763,-4.48523 -0.83395,-9.42778 -1.57769,-13.74851 -0.3326,-1.9323 -1.24507,-2.65054 -1.57769,-4.58284 -0.23517,-1.36633 0.16631,-3.13362 0,-4.58283 -0.37185,-3.24056 -1.20581,-5.92512 -1.57767,-9.16568 -0.97145,-8.46548 2.40739,-2.17271 -1.57769,-13.74852 -0.0507,-0.14737 -4.35042,0 -4.73305,0 -0.52588,0 -1.20582,-1.08019 -1.57768,0 -0.37186,1.08019 0,3.05522 0,4.58283 0,1.52763 0,3.05524 0,4.58285 0,1.52761 0.5259,4.58284 0,4.58284 -0.5259,0 0.23518,-5.94917 0,-4.58284 -1.26652,7.35796 -2.10358,15.27613 -3.15537,22.91419 z"
       id="path4255"
       inkscape:connector-curvature="0"
       inkscape:export-xdpi="22.61661"
       inkscape:export-ydpi="22.61661" />
    <path
       style="fill:#ffffff;fill-opacity:0.4642857;fill-rule:evenodd;stroke:none;stroke-width:1px;stroke-linecap:butt;stroke-linejoin:miter;stroke-opacity:1"
       d="m 573.5561,570.05661 c 31.34127,0 62.68255,0 94.02382,0 9.49736,0 18.99471,0 28.49206,0 2.41228,0 9.86509,-0.43509 11.39683,0 1.27421,0.36196 1.575,2.0661 2.84921,2.42802 12.97039,0 0.16295,-1.14457 8.54762,2.42804 1.03036,0.43904 12.2643,0 14.24604,0 2.8085,0 8.5069,0 5.6984,0 -1.89947,0 -7.59788,0 -5.6984,0 2.8492,0 5.6984,0 8.54762,0 0.94972,0 1.89946,0 2.8492,0 0.94974,0 1.99974,-0.36196 2.8492,0 11.85773,5.05243 -3.0459,-0.16751 2.84922,4.85606 0.67155,0.57228 2.17763,-0.57231 2.8492,0 0.67156,0.57228 -0.67157,1.85573 0,2.42798 0.67156,0.57233 1.99974,-0.36192 2.8492,0 4.34499,1.85137 2.84921,6.38058 2.84921,9.71212 0,0.80934 0,1.61867 0,2.42801 0,0.80937 0.67156,1.85574 0,2.42805 -0.67156,0.57226 -1.89947,0 -2.84921,0 -0.94973,0 -1.89946,0 -2.8492,0 -4.74868,0 -9.49736,0 -14.24604,0 -0.94973,0 -1.89947,0 -2.8492,0 -0.94974,0 -1.99975,0.36195 -2.8492,0 -5.89232,-5.02129 0.17085,-0.99902 -5.69842,-2.42805 -5.77555,-1.4062 -11.31969,-3.44982 -17.09524,-4.85603 -1.7691,-0.43072 -15.03392,0 -17.09524,0 -10.44709,0 -20.89418,0 -31.34127,0 -29.08152,0 -42.46969,0 -68.38096,0 -11.39683,0 -22.79365,0 -34.19048,0 -0.94974,0 -1.89947,0 -2.84921,0 -0.94974,0 -2.17765,0.57228 -2.8492,0 -0.67157,-0.57231 0.42474,-1.70414 0,-2.42804 -5.92886,-10.10484 0.1967,2.59567 -5.69842,-2.42802 -0.67156,-0.57228 0.67157,-1.85571 0,-2.42804 -0.67156,-0.57225 -2.17764,0.57233 -2.8492,0 -0.67158,-0.57225 0,-1.61867 0,-2.42798 0,-0.80933 0,-1.61871 0,-2.42804 0,-0.80935 0,-1.61869 0,-2.42802 0,-0.80937 -0.94974,-2.42804 0,-2.42804 0.94974,0 -0.94974,2.42804 0,2.42804 1.34313,0 1.64787,-1.91617 2.8492,-2.42804 0.84948,-0.36192 2.17765,0.5723 2.84922,0 0.67155,-0.57229 -0.67157,-1.85572 0,-2.42802 0.0917,-0.0783 7.8566,0 8.54761,0 0.94974,0 1.89947,0 2.84921,0 3.79894,0 11.39682,-3.23735 11.39682,0 0,3.23739 -11.39682,3.23739 -11.39682,0 0,-3.23735 7.59787,0 11.39682,0 z"
       id="path4285"
       inkscape:connector-curvature="0"
       inkscape:export-xdpi="22.61661"
       inkscape:export-ydpi="22.61661" />
    <path
       style="opacity:1;fill:#f4f4f4;fill-opacity:1;stroke:#000000;stroke-width:0;stroke-linecap:round;stroke-linejoin:round;stroke-miterlimit:4;stroke-dasharray:none;stroke-opacity:1"
       d="m -189.90042,1212.8519 a 101.42857,90 0 0 0 -83.88281,39.4278 110,98.571426 0 0 0 -63.25977,-18 110,98.571426 0 0 0 -109.85742,96.0313 101.42857,101.42858 0 0 0 -71.57226,96.8262 101.42857,101.42858 0 0 0 101.42968,101.4296 101.42857,101.42858 0 0 0 42.53711,-9.4824 185.71428,94.285713 0 0 0 126.03321,25.1973 185.71428,94.285713 0 0 0 183.654287,-81.0664 101.42857,90 0 0 0 44.91797,-74.6485 101.42857,90 0 0 0 -68.60937,-85.0586 101.42857,90 0 0 0 0.0371,-0.6562 101.42857,90 0 0 0 -101.427737,-90.0001 z"
       id="path4293-2"
       inkscape:connector-curvature="0" />
    <path
       style="opacity:1;fill:none;fill-opacity:1;stroke:#000000;stroke-width:5.4000001;stroke-linecap:round;stroke-linejoin:round;stroke-miterlimit:4;stroke-dasharray:none;stroke-opacity:1"
       d="m -155.51606,1190.9299 c -26.63539,0.66 -53.62894,12.9994 -72.33338,32.2431 m 13.43533,-22.9349 c -8.05705,5.4383 -14.94159,12.0188 -20.47487,19.4591 -11.84896,-7.5532 -24.9629,-12.6728 -38.67846,-15.1651 m 8.45448,9.6347 c -12.75247,-4.2687 -25.73459,-6.607 -38.59123,-7.0204 -11.87019,-0.3606 -23.46275,0.9248 -34.50196,3.713 m 21.83878,-0.9701 c -20.78363,4.1957 -40.86049,13.4309 -56.50619,27.5234 -7.77693,7.0049 -14.30371,15.0729 -19.2379,24.0405 m 8.92675,-29.8599 c -19.57831,17.0018 -28.85931,40.3888 -26.9071,64.0842 -2.98535,0.936 -5.89197,2.0354 -8.7094,3.2904 m 10.40153,-8.1032 c -0.67246,3.7272 -1.0717,7.4263 -1.20059,11.0828 -21.21516,6.4862 -38.20286,17.8872 -49.04704,33.0021 m 4.25638,-9.3269 c -18.74845,17.5444 -28.35023,40.9822 -27.78251,65.5427 m 7.25673,-20.504 c -1.57287,7.3921 -2.44271,15.0811 -2.56951,22.9176 -0.24531,16.1984 2.68884,32.631 8.70839,48.0397 m -6.68422,-12.4824 c 10.66115,30.2052 32.51033,52.1438 61.02871,60.226 m -19.47097,-12.6212 c 16.34929,12.2276 36.62954,18.5503 57.82883,19.2378 10.79955,0.3215 21.64813,-0.8221 32.15849,-3.2354 m -29.22724,5.5536 c 13.28541,-0.5982 25.85195,-3.7421 37.30871,-9.1875 12.42488,5.7838 26.11855,10.5385 41.0656,14.2164 m -24.35405,-10.8568 c 27.83654,9.8484 56.80126,13.9644 88.04777,13.501 m -25.3787,5.8939 c 13.5142,1.5842 27.2179,2.8688 40.89181,3.8983 15.00522,1.1069 30.25066,1.9266 45.24237,2.4701 m -17.04016,-5.3404 c 24.31667,-0.366 49.12739,-3.7305 69.7997,-7.9777 m -13.30212,-1.8479 c 15.39065,-4.1163 29.2435,-8.8394 41.531394,-14.4287 10.867576,-4.9433 20.316027,-10.479 28.282195,-16.6376 m -15.185472,12.686 c 10.409127,-5.4514 19.682448,-11.6949 27.391243,-18.43 11.001286,-9.6117 18.644845,-20.0607 22.491772,-30.8165 6.186851,-3.1948 12.005821,-6.8606 17.3605641,-10.9174 m -18.1767601,15.3614 c 0.689574,-1.6432 1.284763,-3.3063 1.785408,-4.9856 28.508855,-16.3588 44.881265,-47.214 44.971062,-80.8011 1.76e-4,-0.304 -9.7e-4,-0.608 -0.0034,-0.9121 m -6.311205,28.9981 c 3.148831,-8.5305 4.799506,-17.4179 4.905181,-26.2953 0.171493,-18.1249 -6.11364,-35.5586 -17.82501858,-49.1325 -2.70930322,-3.1402 -5.68943882,-6.0494 -8.91298572,-8.6907 m 15.5039815,15.9126 c -2.4025817,-4.3166 -5.1632811,-8.4829 -8.2516297,-12.459 -11.9085515,-15.3317 -28.2914145,-27.3208 -46.4739085,-34.2896 0.03243,-0.2281 0.06405,-0.4562 0.09486,-0.6845 0.177677,-2.0993 0.286661,-4.2009 0.327457,-6.3013 m 1.054063,20.6168 c -3.957108,-1.932 -8.053647,-3.5996 -12.252316,-4.9975 0.02065,-0.2224 0.04041,-0.4449 0.05928,-0.6673 0.808891,-24.3424 -9.018459,-47.2303 -25.620253,-64.9518 -0.767509,-0.8192 -1.547578,-1.6255 -2.339577,-2.4185 m 17.334021,18.2714 c -3.900429,-5.6651 -8.530043,-10.9385 -13.796181,-15.7406 -17.936549,-16.3562 -42.357399,-26.448 -68.144679,-29.0779 m 29.81938,5.2885 c -10.26975,-3.3333 -20.70031,-4.8906 -31.00447,-4.7634 0,0 0.002,0 0.002,0 -22.37625,0.2836 -43.32883,8.499 -60.00193,21.9846 m 50.29506,-17.4218 c -30.09402,1.9655 -57.38048,14.2613 -74.38394,32.2478 -2.2914,-1.8629 -4.6432,-3.67 -7.0504,-5.4201 m 13.84084,-1.9298 c -4.88596,4.0908 -9.22305,8.6143 -12.96215,13.4915 -18.45557,-11.8038 -39.7355,-18.0189 -61.32908,-18.1055 -4.46066,-0.01 -8.90707,0.2423 -13.31577,0.7514 m 30.77589,-9.0665 c -5.00767,-0.4427 -10.11813,-0.5657 -15.28091,-0.3496 -25.07135,1.094 -50.34194,10.1351 -70.57847,27.5211 m 24.72255,-9.703 c -10.59851,4.5675 -20.27655,10.683 -28.74661,18.1023 -9.91875,8.6882 -18.03319,19.0344 -24.03645,30.5051 m 11.09565,-10.191 c -10.92029,14.7555 -17.01951,32.5664 -17.34013,50.876 -10.14212,3.1669 -19.68578,7.9545 -28.218,14.0864 m 17.2163,-10.3382 c -24.30932,10.0766 -43.18581,27.5823 -54.56287,49.8257 m 7.63764,-12.9334 c -11.8373,17.3851 -17.74779,36.6688 -16.84008,55.5487 0.33602,6.8241 1.56104,13.5123 3.6614,19.9421 m -8.27165,-27.7766 c -0.32739,32.6774 18.20261,66.119 47.65138,86.8677 m -21.91566,-11.6215 c 17.47767,22.4484 44.23502,34.924 73.44574,36.8452 m -10.34161,-11.8376 c 8.65618,2.3707 17.51724,3.5894 26.37828,3.643 14.69209,0.048 29.09482,-3.1085 42.29646,-9.1697 3.62678,1.7658 7.38725,3.4615 11.27489,5.0857 m -22.24095,1.1675 c 2.61845,-0.9526 5.17786,-1.9991 7.67321,-3.1371 22.65074,10.7592 48.94946,19.4648 75.98268,25.5324 m -24.07278,-12.0054 c 22.02921,4.4663 46.38424,7.211 70.88259,7.7407 7.6635,0.1539 15.32011,0.091 22.90823,-0.2018 m -21.69963,-4.9369 c 1.3224,0.025 2.6406,0.045 3.95458,0.06 30.0039,0.3093 58.002,-1.7851 83.28585,-5.7835 m -32.92433,16.039 c 22.00101,-3.5404 43.28504,-9.7647 61.891998,-17.7005 9.799418,-4.1794 18.844139,-8.8268 26.92818,-13.8253 m -23.38419,-3.3873 c 14.820174,-7.9682 27.554068,-16.0787 37.756139,-25.2705 6.925621,-6.2398 12.413788,-12.7503 16.337424,-19.5652 m -5.449593,23.5607 c 6.910754,-7.8372 11.31157,-16.1512 13.24666,-24.6308 20.0751014,-12.9695 32.1378088,-32.9754 34.0136946,-56.0856 m 0.7588146,31.447 c 10.2836458,-13.7741 15.5615338,-29.9279 15.7403948,-46.3701 0.129804,-15.2517 -4.125385,-30.2427 -11.979295,-43.4321 m 1.061684,8.962 c -2.883936,-12.0996 -8.3830478,-23.3725 -16.1100769,-33.0025 -6.7700648,-8.4374 -15.1269811,-15.4561 -24.5934581,-20.591 m 13.748304,23.572 c -10.998927,-8.4061 -23.151342,-15.1317 -35.843292,-19.6573 0.02622,-0.2252 0.05169,-0.4505 0.07638,-0.6759 0.936274,-15.9752 -1.984485,-31.9666 -8.611534,-46.4599 m 4.360162,16.2044 c -4.980356,-16.1279 -13.743159,-29.9437 -25.561751,-40.3546 -10.197432,-8.9828 -22.342477,-15.1402 -35.602937,-18.2269 m 26.838878,13.2563 c -17.055548,-10.1673 -36.854998,-15.5684 -57.073288,-15.5544 0,0 5e-4,0 5e-4,0 -5.18837,0 -10.36622,0.3657 -15.49194,1.0794 m 5.28018,-5.2061 c -27.52472,2.9418 -51.69637,13.3698 -69.35268,30.835 m 9.74528,-12.3347 c -8.31889,5.4977 -15.38186,12.1075 -21.06585,19.5546 -12.1551,-7.6434 -25.55929,-12.877 -39.72605,-15.4707 m 12.90025,9.1413 c -12.19596,-3.5972 -24.84848,-5.7136 -37.38178,-6.0842 -16.33969,-0.4536 -32.06665,2.0728 -45.9965,7.7305 m 19.98872,-8.4843 c -18.95039,4.1998 -36.22595,13.0189 -49.98025,25.5413 -10.52224,9.5799 -18.73409,21.101 -24.09145,33.862 m 10.14168,-27.8825 c -14.45756,16.3716 -22.39007,37.3637 -21.64153,59.1008 -7.69551,2.6013 -14.91631,6.2478 -21.41358,10.8178 m 22.79727,-11.5376 c -32.51084,10.0401 -60.19945,35.6613 -75.57646,67.6199 m 20.75619,-24.2742 c -9.72738,15.9046 -15.98529,34.4038 -17.26776,52.8423 -0.76972,11.2484 0.3355,22.1984 3.41375,32.1823 m -1.63154,-28.4403 c 2.27675,30.4176 19.84547,59.9073 45.85791,77.1726 m -12.03562,-12.1629 c 19.51773,21.0223 46.43719,31.0923 74.97296,28.6155 0.69049,-0.062 1.38121,-0.131 2.07209,-0.2073 m -30.38015,-3.9204 c 6.14111,0.9581 12.50007,1.5014 18.96607,1.5874 14.55996,0.1526 29.31899,-2.0179 43.02172,-6.6665 6.27859,3.5997 12.97306,7.1271 19.97193,10.5239 m -27.7561,-0.4851 c 0.12575,-0.056 0.2514,-0.1124 0.37696,-0.169 21.41588,10.3419 47.5408,17.6868 77.32692,22.1235 m -14.76477,-11.3892 c 22.13348,4.3517 45.31256,6.513 68.20678,6.057 8.91458,-0.192 17.74316,-0.7794 26.42741,-1.7749 m -23.1593,6.7365 c 0.2879,0.01 0.57607,0.014 0.8645,0.021 26.27768,0.5494 54.77826,-1.971 80.45398,-6.3946 m -23.21435,-1.3214 c 22.37861,-5.0819 43.63688,-10.1274 63.614518,-17.1256 6.010466,-2.1055 11.761971,-4.341 17.240035,-6.7369 m -11.971572,3.5818 c 0.786455,-0.3508 1.565358,-0.7029 2.33672,-1.0564 16.705772,-7.6551 29.687498,-15.8655 38.956468,-24.9454 6.317532,-6.1887 10.814795,-12.7009 13.426443,-19.4352 m -19.678628,15.4977 c 7.651593,-8.0433 12.951514,-16.7757 15.820775,-25.7914 18.729398,-10.9596 33.55816582,-27.1644 43.1695391,-46.0919 m -7.9501681,17.832 c 11.038097,-15.5238 17.065526,-32.6287 16.433094,-49.5227 -0.394153,-9.8509 -3.058209,-19.3744 -8.052395,-28.059 m 4.597462,24.1823 c -1.431315,-15.55 -7.7805183,-30.6684 -18.1834886,-43.9343 -9.8645684,-12.5794 -23.0506344,-23.0885 -38.1936314,-30.7524 m 26.281003,16.0777 c -10.433638,-8.7214 -22.301129,-15.0609 -34.957888,-18.8685 0.01915,-0.2163 0.03746,-0.4327 0.05493,-0.649 0.325421,-11.7334 -1.807857,-23.1788 -6.29981,-33.8551 m 2.133996,9.0576 c -4.46499,-17.3375 -14.038741,-33.1194 -27.912796,-45.4227 -4.633112,-4.1086 -9.701534,-7.7891 -15.148167,-10.9889 m 15.917809,19.1167 c -19.87777,-15.1787 -43.81723,-23.7851 -68.28321,-23.0871 -1e-5,0 0.005,0 0.005,0 -5.16653,0.1487 -10.31198,0.7112 -15.4024,1.693 m 11.30585,-6.7052 c -25.18696,0.4693 -47.66461,9.7376 -63.33314,26.2495 m 16.93071,-5.5156 c -11.15892,5.9738 -20.82946,14.2324 -28.48002,24.0258 -11.19713,-6.8526 -23.79245,-11.647 -37.26087,-14.3734 m 18.15438,-0.334 c -13.36405,-6.0537 -28.63248,-8.8224 -44.60369,-8.4911 -9.46352,0.212 -19.07609,1.5102 -28.56888,3.7906 m 8.60767,3.3566 c -23.90267,3.2896 -46.4717,11.9481 -63.10795,26.1933 -1.72343,1.4758 -3.37559,3.0053 -4.95228,4.5873 m 10.37143,-19.4315 c -3.10952,2.2656 -6.09836,4.679 -8.94961,7.2317 -16.87058,15.1041 -28.3183,34.5453 -32.11512,55.7653 m 9.52478,-13.7004 c -3.97122,9.6072 -6.25086,19.5387 -6.86567,29.4798 -22.39798,6.4332 -42.08246,19.4514 -57.23609,37.1958 m 25.61393,-27.2911 c -23.27417,17.1839 -34.82015,43.6165 -33.84716,71.3246 m 4.08105,-10.5886 c -2.44678,8.5481 -3.64359,17.4586 -3.5549,26.419 0.16477,15.0045 3.93099,29.8487 11.04561,43.0916 m -15.59079,-14.6088 c 7.36311,27.7768 25.04361,48.8709 47.50152,60.7822 m -7.45284,-14.1052 c 18.67922,13.2364 39.28875,21.9232 59.54038,23.6311 6.80993,0.5527 13.45782,0.3015 19.82992,-0.7842 m -22.39701,0.3813 c 0.55262,-0 1.10627,-0.014 1.66085,-0.029 14.1391,-0.4128 28.69642,-4.0692 42.31204,-10.9655 13.65892,5.6053 29.43446,9.8816 46.34092,12.1981 m -28.97579,-3.6734 c 21.65133,7.9458 44.62959,12.8566 68.80723,15.2232 m -19.78121,3.2446 c 16.96289,2.829 34.97811,4.1271 53.77978,4.1114 6.81357,-0.016 13.70485,-0.2038 20.64911,-0.5508 m -13.70607,-5.6879 c 23.76964,0.515 49.91517,-2.8161 74.6476,-8.4609 m -10.38067,5.2112 c 22.28319,-3.9207 42.25321,-10.6006 58.944907,-19.452 5.075569,-2.6916 9.827339,-5.5729 14.235439,-8.6222 m -26.903645,10.05 c 0.757397,-0.3601 1.510781,-0.7201 2.260225,-1.0801 16.991557,-8.1624 31.35774,-16.0906 43.02797,-25.0818 11.570021,-8.9139 19.67259,-18.2988 24.120564,-28.2603 3.069818,-1.2738 6.067016,-2.6578 8.983391,-4.1501 m -15.901275,20.342 c 3.916442,-6.0289 6.775975,-12.0894 8.503636,-18.191 16.449214,-9.5329 29.7989039,-22.263 38.1667887,-37.0521 m -3.1575104,9.5581 c 11.7791927,-15.3418 17.1172087,-32.0828 16.0436097,-48.6055 -0.362014,-5.3641 -1.398807,-10.6578 -3.08132,-15.816 m -2.581505,18.2332 c -1.290962,-17.3465 -7.9702774,-35.3041 -19.8643292,-51.3282 -3.7327725,-5.029 -7.9457168,-9.8215 -12.6053958,-14.3054 m 13.8305759,13.5467 c -12.2644679,-14.5617 -29.3925719,-25.3663 -49.3067929,-31.1344 0.0058,-0.2179 0.01059,-0.4359 0.01448,-0.654 -0.251382,-7.2394 -1.53886,-14.4498 -3.847821,-21.4759 m -0.616875,13.8006 c -0.187774,-23.5463 -10.123898,-45.608 -26.732931,-62.6271 -1.110751,-1.1382 -2.247753,-2.2502 -3.409443,-3.3353 m 8.407002,7.1879 c -2.697698,-2.8623 -5.561039,-5.5844 -8.576002,-8.1448 -14.58178,-12.3834 -32.33944,-20.6683 -51.12784,-23.0204 m 15.62622,4.9823 c -10.78593,-3.6514 -21.86621,-5.4574 -32.78468,-5.4581 0,0 0.004,0 0.004,0 -13.12924,0 -25.78269,2.6151 -37.18078,7.4866 m 33.95126,0.7748 c -26.39564,1.3401 -49.13752,10.6177 -65.58374,26.3727 m 11.31691,-15.2224 c -9.63005,6.5265 -18.22158,14.3186 -25.36701,23.1913 -16.15594,-9.5818 -35.53724,-15.6098 -56.30546,-16.9528 m 33.08591,8.4581 c -11.16606,-3.4752 -22.72763,-5.379 -34.26253,-5.7176 -11.79059,-0.3251 -23.39041,0.9897 -34.34904,3.8069 m 1.72901,-0.3847 c -21.15085,3.4373 -39.91821,12.4091 -53.92653,25.5356 -5.70466,5.3455 -10.5517,11.3173 -14.42275,17.767 m 11.4246,-25.7619 c -20.79098,18.9525 -31.46504,43.5489 -31.55963,70.6656 -0.32789,0.1327 -0.65525,0.2675 -0.98208,0.4042 m 4.77592,-11.5011 c -1.42293,5.6999 -2.21134,11.3974 -2.37647,17.0461 -23.74195,7.5666 -42.24517,22.2787 -53.03139,42.6463 m 25.03259,-26.8578 c -17.16985,16.3568 -28.47315,40.6181 -31.32141,66.5687 m -0.88405,-10.055 c -1.49194,7.5427 -2.22749,15.0857 -2.16568,22.5313 0.23115,24.6698 9.21849,47.2013 26.12872,64.1591 m -14.26753,-25.564 c 12.1824,24.0487 33.45159,44.398 60.16481,56.9764 m -25.08485,-5.9571 c 14.71575,9.3128 32.21067,13.8272 50.17634,13.5198 14.94484,-0.2969 29.83857,-3.9203 43.37938,-10.3956 0.58768,0.2609 1.17848,0.5202 1.77237,0.7777 m -35.89887,6.5266 c 8.69683,-1.6566 17.31864,-4.4821 25.57387,-8.4372 13.05444,5.9619 28.10738,10.9386 44.44203,14.5712 m -9.14592,3.8121 c 30.79648,10.7562 63.29902,12.8813 98.99958,9.5948 m -26.28726,-8.8025 c 10.08313,0.401 20.31212,0.7542 30.41483,0.9465 18.12483,0.3176 36.0692,0.1252 53.85659,-1.212 m -19.80824,0.1308 c 32.25611,-2.1184 60.93714,-9.2798 85.342173,-19.0631 m -25.699853,12.8031 c 9.24874,-3.0699 17.848655,-6.5941 25.762232,-10.5854 16.188964,-8.1653 29.186565,-18.1351 38.624762,-29.5176 2.590419,-3.124 4.90219,-6.343 6.927024,-9.642 m -12.119334,21.2674 c 3.288542,-2.3336 6.334684,-4.8411 9.122956,-7.486 10.408952,-9.8737 17.196886,-21.6073 19.953741,-33.8697 5.499001,-4.0617 10.565257,-8.7642 15.1075925,-14.0069 m -11.5806775,12.4132 c 24.9737214,-16.1253 39.948812,-42.6716 38.934817,-69.6787 -0.09708,-2.4255 -0.323186,-4.8407 -0.679112,-7.2368 m 2.644578,28.1516 c 1.259797,-6.4355 1.888271,-12.8778 1.849067,-19.2726 -0.161693,-19.1475 -6.309554,-37.1558 -18.0773679,-52.378 -1.1225837,-1.4521 -2.2934129,-2.8751 -3.51145605,-4.268 M 9.78322,1317.5766 c -2.2626009,-4.1632 -4.8667941,-8.1412 -7.7862911,-11.9067 -12.0527879,-15.5454 -29.0684779,-26.9538 -48.3843959,-33.1893 0.02058,-0.2204 0.0403,-0.4408 0.05916,-0.6613 0.239433,-7.1534 -0.426315,-14.3026 -1.961572,-21.3314 m 1.490233,26.9349 c -1.776614,-0.6291 -3.576917,-1.2146 -5.397499,-1.7552 0.02243,-0.2146 0.04396,-0.4293 0.06458,-0.6441 0.999346,-23.4911 -8.834525,-46.5913 -25.284127,-63.718 -3.845445,-4.0037 -7.995742,-7.6203 -12.354614,-10.7898 m 17.401539,10.8197 c -2.260441,-2.5067 -4.682295,-4.8956 -7.255042,-7.1562 -14.733993,-12.9462 -34.007272,-21.3289 -55.268402,-23.9767 m 22.21485,8.3225 c -10.87432,-2.9739 -22.16591,-4.5203 -33.59274,-4.537 0,0 -0.004,-10e-5 -0.004,-10e-5 -21.48869,-0.028 -42.68697,5.3543 -61.79314,15.6805 m 28.16969,321.754 135.353867,-43.0651 m -3.257341,-239.4869 -63.064266,-57.535 m 134.710736,152.4188 -55.976881,-62.3402 m -283.986395,-74.9369 -81.33554,44.9123 m 22.94564,238.5751 137.65745,41.8486"
       id="path4293"
       inkscape:connector-curvature="0"
       inkscape:path-effect="#path-effect4366"
       inkscape:original-d="m -152.04341,1182.8524 a 101.42857,90 0 0 0 -83.88281,39.4278 110,98.571426 0 0 0 -63.25977,-18 110,98.571426 0 0 0 -109.85742,96.0313 101.42857,101.42858 0 0 0 -71.57226,96.8262 101.42857,101.42858 0 0 0 101.42968,101.4296 101.42857,101.42858 0 0 0 42.53711,-9.4824 185.71428,94.285713 0 0 0 126.03321,25.1973 185.71428,94.285713 0 0 0 183.654287,-81.0664 101.42857,90 0 0 0 44.91797,-74.6485 101.42857,90 0 0 0 -68.60937,-85.0586 101.42857,90 0 0 0 0.0371,-0.6562 101.42857,90 0 0 0 -101.427737,-90.0001 z" />
    <path
       style="fill:#71df66;fill-opacity:1;fill-rule:evenodd;stroke:none;stroke-width:4.4000001;stroke-linecap:butt;stroke-linejoin:miter;stroke-miterlimit:4;stroke-dasharray:none;stroke-opacity:1"
       d="m 474.22825,1228.1426 -74.0563,0 0,-141.5181 384.52299,0 -2.84831,147.1788 -71.20797,0 34.17982,0 0,1556.7014 -299.07342,0 0,-1562.3621 z"
       id="path4147-1-8"
       inkscape:connector-curvature="0"
       sodipodi:nodetypes="ccccccccccc"
       inkscape:export-xdpi="22.217079"
       inkscape:export-ydpi="22.217079" />
    <path
       style="fill:none;fill-opacity:1;fill-rule:evenodd;stroke:#000000;stroke-width:6.16296959;stroke-linecap:butt;stroke-linejoin:miter;stroke-miterlimit:4;stroke-dasharray:none;stroke-opacity:1"
       d="m 469.37086,1232.4547 c -21.51774,-0.7559 -44.59175,-0.4872 -67.8733,-0.2475 -0.14717,-4.2532 -0.30191,-8.5074 -0.45483,-12.77 m 5.35148,2.7052 c -2.21316,-0.036 -4.41659,-0.067 -6.61085,-0.091 -0.24358,-21.9949 0.43372,-43.4136 1.4637,-64.714 m -6.48015,21.1766 c -1.0773,-25.284 -0.38444,-50.7176 0.30472,-76.9869 m 5.59461,19.4509 c 0.50076,-10.5922 0.73793,-21.3614 0.87576,-32.1886 20.98687,0.7626 41.61827,1.318 63.00583,2.4727 m -35.26054,-9.5668 c 27.39748,10e-4 57.82268,0.6023 89.47593,0.2769 m -22.06639,5.9295 c 24.71616,1.3459 51.73409,0.084 79.65839,-2.5114 m -24.80078,3.5346 c 24.15945,0.623 50.3579,0.9661 77.36259,1.0381 m -11.8878,-4.3759 c 23.8795,0.3485 46.36565,1.9059 68.14793,4.3444 m -15.81486,0.8108 c 31.5343,1.3323 61.12112,0.4766 90.90492,-1.1334 m -22.259,-1.7938 c 14.79286,1.0677 30.10696,1.7794 45.75303,2.5681 0.46489,15.6476 1.26748,31.3736 2.21358,47.6224 m -4.72644,-23.8088 c 1.18143,27.7911 0.17666,54.7662 -0.31222,81.7014 m -4.82961,-25.2871 c 0.74798,18.4676 0.53613,36.1401 0.10782,53.4263 -12.22879,-0.4744 -24.55406,-1.1211 -36.75459,-1.8183 m 23.18605,7.7731 c -19.07612,0.1862 -38.60068,1.2942 -57.77322,3.5288 8.30274,0.9058 16.66332,1.9968 25.13507,3.2866 m -17.13353,-7.2838 c 9.94797,0.5051 20.00668,0.9584 30.0625,1.5051 -0.39437,14.9099 -0.79417,29.9947 -1.49096,45.6266 m 2.34334,-22.3074 c 0.15408,25.6212 -0.75235,52.3475 -2.40257,78.8501 m 0.68359,-15.9821 c -0.51286,31.4193 1.03687,62.1333 3.37061,94.2931 m -0.51868,-26.6962 c 0.63325,33.1058 0.0766,62.8578 0.14862,91.1291 m -1.5941,-27.268 c 0.10217,33.4478 0.57972,67.1044 1.76323,103.2248 m -2.31008,-35.4009 c 0.15008,27.6417 1.36983,54.2776 3.99292,80.4144 m -11.8442,-11.0697 c 1.02126,29.3831 1.82642,59.4132 4.91859,88.4544 m 0.70621,-23.8544 c 0.4181,31.1282 -0.19765,61.9276 -0.72881,91.3856 m 3.4237,-25.6723 c -0.9438,31.0621 0.81216,66.014 2.58786,100.1839 m -3.0563,-27.3205 c 0.0863,31.0202 0.0541,60.3872 0.10745,86.6227 m -6.04516,-19.3232 c -0.60798,32.7886 0.82384,66.1691 2.47153,99.1052 m 1.20083,-38.9104 c 0.87543,31.1804 -0.1112,62.0347 -0.87996,95.6956 m 3.84822,-21.8198 c -0.45478,23.726 -0.69143,47.9147 -1.38895,72.4964 m 3.10804,-12.4696 c 0.42127,28.2771 0.4562,57.8843 1.09265,86.8467 m -2.85098,-22.2554 c -0.92651,25.4517 -0.87996,49.9766 -1.42366,74.3603 m -0.80254,-15.2236 c -0.0107,28.5785 0.85056,54.6631 2.56592,79.4153 m -5.80832,-27.9591 c -0.72277,31.9887 0.62242,67.2028 1.88339,102.4849 m 0.0698,-21.6033 c -0.35233,28.5746 0.60522,55.4114 2.15219,82.9543 m 9.56679,-28.7863 c 0.29127,27.8676 0.008,55.5475 -0.22163,83.5289 m -3.2939,-17.6572 c 0.6075,30.4973 -1.21885,62.1597 -3.92064,94.9052 m 0.71715,-32.947 c -0.50172,30.9986 0.0394,62.9854 0.27237,95.0883 m 4.80636,-32.1562 c 1.2903,29.7475 0.14448,60.5448 -0.43512,92.9907 m -9.95605,-12.4331 c -0.33649,31.3353 0.84945,61.6882 2.66445,92.4576 m -0.98508,-41.3433 c -1.0147,22.7334 -0.54179,47.1361 -0.11578,71.5266 m 3.28055,-4.373 c 0.29103,9.9835 0.14077,19.9529 -0.37221,29.8832 -23.90541,-0.3334 -49.65875,-0.8659 -76.35649,-1.8853 m 41.99312,5.166 c -30.8177,0.5617 -63.26636,0.2631 -94.16865,0.6152 m 18.00783,-16.3575 c -24.38779,0.2479 -47.93166,1.1006 -70.64811,2.9747 m 16.66758,14.3692 c -30.81338,0.5434 -57.82016,-0.7354 -83.82247,-2.5693 m 18.25693,-5.2829 c -23.72501,-0.9293 -45.81493,0.1306 -67.14519,1.854 0.64332,-7.7244 1.38573,-15.3622 2.18598,-22.9758 m 4.14021,27.5285 c -0.56689,0 -1.13353,0 -1.69994,0 -0.28649,-24.6538 -0.11734,-49.2282 0.007,-73.8256 m -1.82331,12.6522 c -1.05638,-24.5842 -0.79293,-50.669 -1.08464,-76.5777 m -3.60289,16.6626 c -1.05284,-24.3575 -0.44317,-48.1944 0.16897,-71.9766 m -2.23888,20.8693 c -0.11512,-28.587 1.04445,-59.7006 3.18986,-91.1096 m -2.36948,22.411 c 0.0899,-32.8774 0.42046,-65.3278 1.25334,-97.3412 m -5.86246,25.5266 c 0.87885,-31.021 1.70983,-60.918 4.66984,-91.196 m 0.17362,23.8107 c -0.0136,-33.528 -2.92912,-66.8562 -8.78854,-100.8155 m 8.43744,32.667 c 1.41576,-32.069 -1.10363,-64.2433 -3.80028,-98.6766 m 4.15119,23.6203 c -0.6074,-32.2363 -0.51076,-62.2029 -1.33241,-92.8582 m 8.09055,30.5083 c 0.38677,-27.6427 0.47619,-57.6043 1.07347,-88.4468 m -8.88652,19.5536 c -1.1772,-29.4529 -0.16971,-55.0336 0.52519,-79.4843 m -7.94662,28.773 c 0.0819,-25.8293 0.89663,-51.945 2.60488,-77.7861 m 3.41075,10.2667 c 0.10151,-32.8318 -0.83634,-65.6489 -2.53332,-99.2223 m 5.4235,34.2781 c -1.1071,-26.4461 -0.049,-52.8996 1.00615,-78.2829 m -3.93568,14.3791 c -0.69105,-28.4945 0.99713,-54.2608 3.70787,-79.7885 m 6.01897,14.8226 c 0.0611,-26.7947 -1.83014,-51.7543 -5.56189,-75.7881 m -9.04717,18.8811 c 1.01334,-29.5035 2.02351,-60.341 5.50028,-91.7564 m 4.14739,21.1913 c -1.25916,-29.9733 -1.41617,-57.0109 -3.40582,-82.6165 m -1.32007,25.0304 c 0.76723,-31.6806 -0.041,-64.4553 -0.34764,-98.292 m 3.12066,29.2393 c -0.43696,-26.4759 0.38809,-51.2325 1.73906,-76.0881 m -3.57509,10.0507 c -0.65707,-24.4927 -0.33074,-48.7168 -0.0783,-72.8336 m 2.8125,25.9241 c -1.34652,-29.8891 0.45896,-60.3209 2.06474,-89.6842 m -3.3144,19.6007 c -0.24565,-24.1275 1.17289,-47.6429 3.88256,-70.3654 m 3.92996,19.3829 c -0.21035,-26.6391 -0.56199,-51.6567 -1.43997,-76.8397 m 1.20601,12.2041 c 0.43369,-13.6226 0.24138,-26.7299 -0.37279,-39.5748 9.0483,0.1645 17.87405,0.4675 26.55547,0.8118 -1.4693,0.049 -2.94153,0.099 -4.41647,0.1495 m -13.96723,5.7672 c 3.91438,0.1496 7.81907,0.2526 11.7187,0.3148 -22.04245,0.371 -44.26493,-0.7136 -65.68042,-2.0068 m 54.48946,-7.2927 c -21.1183,0.2019 -42.81324,0.1761 -64.54672,0.1849 -0.0357,-4.128 -0.0727,-8.2548 -0.10746,-12.3784 m 10.22854,15.8263 c -1.8619,0.018 -3.72241,0.033 -5.58207,0.044 -0.94552,-30.5231 -1.64179,-62.0948 -4.62593,-93.9533 m 6.24084,22.0819 c -1.18209,-26.2226 0.47738,-51.8598 2.8707,-77.9253 2.49339,0.02 4.99259,0.037 7.4961,0.05 m -6.26477,24.2301 c 0.002,-4.883 0.0164,-9.7474 0.0438,-14.6016 19.74944,0.036 39.71806,0.2459 59.91317,0.035 m -25.81353,-0.06 c 26.66294,1.9715 53.13898,1.6686 78.23814,1.7002 m -10.6524,-3.7735 c 31.27498,-0.5314 58.64373,2.4898 84.50299,5.8964 m -22.59619,-2.8993 c 29.80991,-0.011 62.38534,-0.2284 94.39559,-2.6788 m -30.07254,3.163 c 24.48555,1.1311 47.61649,1.4676 70.58148,1.8473 m -19.8966,4.7663 c 23.83525,1.0367 48.62089,1.4865 74.60125,2.0261 m -13.71036,-6.5469 c 10.43869,0.6192 21.37702,0.9886 32.65939,1.219 0.3552,13.2949 1.22324,26.3826 2.32098,39.4647 m 5.30482,-13.8402 c -0.37577,27.0753 -1.52799,53.2802 -3.90344,78.6888 m -9.0475,-18.3598 c -0.0502,16.3057 0.40153,33.9053 1.39356,52.1769 -15.02208,1.1135 -29.56733,2.82 -43.60399,4.6039 m 30.34674,-2.983 c -17.99974,-0.3359 -35.36022,0.1258 -52.44611,1.1074 7.72982,0.4204 15.50999,0.9362 23.31189,1.5255 m -11.3942,-4.9768 c 10.0087,-0.3686 19.62371,-0.4005 28.95979,-0.1873 -0.29076,14.1859 -1.17208,28.891 -2.29043,43.8339 m -4.3907,-11.2319 c -0.99655,24.9213 -0.83709,47.5843 -1.08498,69.2915 m 2.76506,-13.1451 c -0.0737,26.6781 -0.6919,53.7025 -1.97206,80.686 m -3.53552,-24.9718 c 0.51792,24.5441 1.32456,49.342 3.32173,73.6075 m -3.79093,-21.359 c -0.58628,24.5116 0.38052,48.7262 1.99738,73.6816 m 0.69812,-13.8727 c -0.1356,24.1094 0.98241,49.3206 3.14117,74.3994 m -0.71972,-8.8156 c -1.18258,24.6369 -0.13473,48.9296 1.25249,73.2199 m -1.525,-21.6376 c 0.20895,30.6857 -1.49773,60.1321 -4.60909,90.4915 m 9.60899,-19.9815 c -0.0827,23.2178 0.32834,46.2577 1.097,68.5719 m -12.85478,-11.928 c -0.0111,28.8416 1.37697,57.7593 4.16812,86.1111 m -3.6998,-31.5365 c -1.09446,26.8512 -0.34783,53.1879 0.292,81.0624 m 1.70025,-12.3946 c -1.11886,31.3236 0.96781,60.1266 3.52146,89.2283 m 9.87751,-32.1635 c 0.40172,23.3762 -0.37565,48.8475 -1.65598,74.5708 m -3.18772,-10.2368 c 0.7016,33.0602 0.31038,63.211 0.7982,93.2117 m 1.15485,-30.3402 c 0.37319,26.3607 0.82657,54.8574 2.09514,85.1385 m -7.79876,-17.1199 c -1.15488,33.8527 0.19567,65.4718 0.64584,97.7583 m -8.22391,-29.8897 c -0.72832,24.1609 -0.20973,48.5309 0.37606,72.4919 m 6.49957,-8.0145 c 1.09862,34.5074 0.37353,64.6523 1.1167,94.5969 m 3.25831,-37.1461 c 0.92014,26.2515 1.07262,55.2156 2.30739,84.5404 m 0.30995,-22.5385 c 1.41918,29.6887 0.55655,58.4837 0.688,87.8166 m -4.20417,-17.6737 c -0.15028,28.8286 -1.42867,57.083 -4.18106,83.0529 m 5.04042,-18.3774 c -0.16442,24.2846 -0.59884,45.8021 -1.5568,65.9028 m 0.0723,-11.3553 c -0.68461,32.1701 -0.80471,63.6219 -2.14526,96.6707 m 4.4889,-24.5719 c -0.89753,25.7242 -0.0813,53.3926 0.65511,80.4002 m -2.41247,-24.8741 c 0.38946,31.4079 0.81609,63.957 2.33045,95.5363 m -6.93952,-24.5964 c 0.49447,11.7869 0.93592,23.3802 1.50309,34.8792 -19.82099,-0.017 -39.22934,-0.3434 -57.16232,-0.3891 m 23.88133,-7.0358 c -23.37741,-0.046 -47.34295,0.3103 -71.77061,0.9818 m 22.59475,5.034 c -32.52887,0.3901 -64.35439,-0.017 -98.89889,-0.2329 m 32.76128,2.9277 c -31.27026,-1.1559 -62.12161,-0.1619 -95.17651,0.1015 m 24.11246,-1.4685 c -24.09007,-0.35 -49.21858,-0.065 -75.16166,0.3257 m 16.17147,-3.4505 c -6.50631,-0.012 -12.90009,0.019 -19.19621,0.094 0.23601,-19.5811 1.41619,-38.75 3.09318,-57.5569 m -5.23943,13.6069 c -0.13257,-28.8575 -0.008,-55.798 0.10096,-82.0722 m 0.8755,20.9534 c -0.40059,-27.5415 1.06413,-55.2862 3.58864,-82.8392 m -5.97177,20.5795 c -1.18485,-26.9409 -0.41691,-51.0976 0.18706,-74.6637 m 3.4459,18.731 c -0.9705,-30.5459 -0.25737,-61.0817 -0.3551,-90.212 m -7.6137,21.7413 c -1.16783,-31.3581 0.25347,-66.0011 1.01399,-101.6478 m 4.92433,31.0595 c 1.48289,-32.9267 -1.82014,-67.0095 -5.58059,-102.7303 m 9.29117,35.6306 c 0.24208,-25.1069 0.0719,-50.5852 -0.0974,-75.0982 m -2.44214,11.9449 c -1.23465,-31.1332 -1.08423,-63.2926 -2.89083,-95.1575 m -1.32777,33.0813 c -0.74224,-29.2162 1.85991,-63.6516 5.94079,-99.5523 m 4.13778,31.4849 c 0.60898,-29.1106 -1.76184,-59.2231 -5.59269,-88.1436 m 4.96716,23.91 c -0.92611,-27.6868 -1.39739,-57.9863 -3.46909,-88.9261 m -0.0465,29.5939 c -0.75741,-24.9035 -0.61699,-52.6115 -0.88751,-82.0641 m 2.25462,12.6572 c -1.00936,-26.4139 0.24602,-51.6524 1.82772,-75.2597 m -3.3116,19.4408 c 0.34229,-30.4209 1.09533,-61.4611 3.06152,-93.6466 m 0.25818,19.1839 c -1.25368,-25.2527 -0.59743,-50.0056 -0.23073,-73.8517 m -3.83136,25.4453 c -0.23664,-27.5546 1.01777,-53.8284 3.34037,-81.0305 m -6.58271,21.6564 c -0.57781,-25.1237 -0.46008,-49.7877 -0.57392,-74.7595 m 2.52722,16.9618 c -0.16457,-26.9575 0.8712,-54.7944 2.81318,-84.5792 m -10.23481,11.494 c 0.42627,-23.8996 0.77628,-46.5261 1.70594,-68.1476 m 9.3879,19.2819 c 0.72834,-25.2987 1.23934,-50.5707 2.86865,-74.0253 m -8.33763,11.8668 c 0.115,-24.5817 0.7041,-48.6466 1.94784,-72.3101 m -8.54906,14.3439 c 1.17384,-30.803 0.44529,-59.9518 0.74049,-88.5719 m 4.72818,32.7635 c 0.92103,-29.279 -0.74252,-60.6376 -2.71152,-91.6828 m 6.69604,10.7988 c 1.04186,-23.4591 0.73853,-44.8722 0.56603,-64.9069 1.68637,0.2191 3.37345,0.4458 5.06184,0.6798 m 1.79376,21.5207 c 0.077,-3.8038 0.11353,-7.6154 0.11269,-11.4353 9.49232,-0.07 18.75011,-0.1918 27.82001,-0.3736 -14.45469,-0.265 -29.30842,-0.6572 -44.41693,-1.2014 m 21.21745,-4.9674 c -21.15962,-0.8449 -42.10923,-0.071 -61.93968,1.2295 0.57198,-5.7943 1.23285,-11.5468 2.00297,-17.2818 m 8.9486,17.2636 c -0.8868,0 -1.77395,0 -2.6614,0 0.56769,-28.3717 0.83758,-56.924 2.08629,-85.5488 m 0.16269,18.4488 c -0.64893,-26.0111 -1.96719,-51.0441 -5.1382,-75.2085 m -3.84574,22.1803 c 0.11061,-6.2327 0.19562,-12.49 0.26666,-18.7655 19.20097,0.524 38.2746,0.8832 57.53985,1.2608 m -8.0278,-0.907 c 30.72003,0.4526 62.38416,0.7089 91.07324,-0.167 m -35.86788,3.1445 c 23.1272,1.5673 48.04501,1.2133 73.61924,0.4394 m -11.14272,-6.0067 c 28.93564,2.0896 59.91313,3.1547 91.50097,6.4098 m -29.15028,-3.3224 c 33.55389,1.7974 65.37447,1.9056 96.17051,3.2446 0,0 0.009,4e-4 0.009,4e-4 m -33.77915,-0.31 c 27.81921,-0.3559 57.06049,0.3571 87.98873,-0.011 0.01,0.086 0.0198,0.1712 0.0297,0.2569 m -22.98527,1.3727 c 6.9006,0.193 13.84354,0.2483 20.83468,0.1689 0.29148,20.9966 1.06915,40.6342 2.52095,59.0078 m -5.15404,-20.2336 c 1.00144,27.5847 1.96336,56.0772 5.24905,85.7841 m 9.10099,-15.3264 c 0.42506,10.3545 0.30797,20.6832 -0.20672,30.9331 -17.6314,-0.4454 -36.28834,-1.0943 -55.37196,-2.167 m 19.55669,-3.9422 c -13.14057,-0.09 -26.8035,0.1773 -40.75538,0.7547 11.10075,0.4836 21.99879,1.1848 32.83128,2.0755 -0.38347,8.3996 -0.79759,16.8879 -1.1985,25.4558 m -8.6655,-19.8098 c 1.8656,-0.079 3.73046,-0.1446 5.5944,-0.1984 -0.31335,28.5774 -0.85243,60.0929 -2.32052,91.645 m 1.08946,-38.8268 c 0.86437,29.4014 1.54803,58.4613 4.04853,86.9487 m 6.22506,-14.3995 c 1.48416,31.5236 -1.75668,65.3558 -5.38031,96.989 m 8.11384,-30.0138 c -0.99316,25.4316 -0.7177,50.7273 -0.82745,76.732 m -6.32077,-16.7227 c -0.52091,29.2441 1.10129,57.1189 3.65897,82.6555 m 2.78606,-15.1601 c -1.40821,30.2375 -0.93285,60.0204 -2.13009,88.5218 m -9.00178,-28.1512 c 1.29904,27.1288 1.16193,54.545 2.12536,82.3837 m -4.93814,-14.9825 c 0.60743,31.1795 1.98238,58.1869 5.61099,84.1326 m 1.65448,-25.2954 c 0.14903,32.8222 1.6756,64.3232 5.02656,97.5022 m 0.67694,-30.6651 c 1.16075,29.1533 -0.31976,55.1457 -2.02154,80.8144 m -6.37728,-20.099 c 0.1049,29.0929 1.13439,60.7131 3.36781,93.2113 m 2.96057,-25.1612 c 0.80128,28.007 -0.19092,54.5598 -1.42129,81.6563 m 5.24907,-21.5819 c -0.12983,23.3086 0.17659,48.1166 0.72212,73.7079 m -11.03499,-11.0636 c -1.25542,28.9869 1.29925,59.4633 4.72459,90.1826 m -7.38082,-29.9767 c -1.21843,30.085 0.96695,60.1162 3.43623,88.8212 m 2.61922,-23.7888 c 1.02022,27.4628 -0.33384,56.7578 -1.91802,86.5269 m 7.89406,-25.0709 c -0.43621,27.8887 -0.69938,55.6471 -1.66166,84.5968 m -0.56498,-22.6389 c -0.62144,25.0454 0.41965,50.8659 2.03063,76.3305 m 0.86043,-18.272 c 0.60341,32.6078 0.19614,63.0771 0.35715,94.3026 m -9.26382,-20.0225 c -0.70665,32.6869 2.18408,61.7849 6.78159,91.1839 m -0.45297,-25.1642 c 0.86596,30.3932 -1.33033,62.6005 -4.26621,93.0915 m 0.20294,-23.0227 c -1.66191,34.8264 0.89347,66.4607 2.68375,99.5708 m -1.19914,-39.9385 c -0.75438,29.2355 0.414,58.446 1.77771,88.5062 m -0.996,-13.3876 c 0.44734,21.3673 0.28726,45.0224 0.12629,69.4838 -10.23958,0.9042 -20.47934,1.9736 -30.66306,3.0708 m 27.96362,-6.2576 c -29.90984,-0.5515 -59.70501,0.2359 -90.5496,1.1004 m 21.27398,-4.7332 c -25.00483,-0.3041 -48.51746,0.1248 -71.5701,0.8068 m 23.00742,-4.3999 c -33.69393,1.5767 -68.47291,-0.024 -106.07694,-0.116 m 28.00096,7.1465 c -26.69017,-0.5809 -55.04489,-1.139 -82.14124,-2.8973 m 21.0949,-1.0872 c -13.99722,-0.5062 -28.05206,-0.4677 -42.02959,-0.1621 0.18484,-9.5406 0.40589,-18.9562 0.70637,-28.3356 m -3.6855,19.5629 c -0.0119,-30.6196 -0.62916,-59.0528 -1.85032,-86.5946 m 2.04516,20.2225 c -1.55824,-32.2346 0.13189,-65.0081 0.53502,-96.1148 m 7.23848,33.1024 c -1.03194,-25.0419 -0.60017,-51.5249 -0.47376,-79.2282 m -1.4011,11.528 c -0.90252,-32.1309 0.14171,-64.7438 0.49826,-95.2663 m 1.25946,28.1438 c -1.09298,-29.6328 -1.43433,-59.5271 -3.72139,-88.5433 m 4.15106,17.9913 c -1.15776,-29.5621 -1.64954,-58.7917 -4.3691,-86.0249 m 1.71339,24.5939 c 0.45942,-31.1826 0.0717,-61.6963 -0.0211,-94.0532 m -3.84676,31.7149 c -1.16331,-22.6857 -0.49657,-46.9862 0.25251,-71.4307 m -2.3228,8.7145 c -1.36519,-28.4929 1.22151,-58.1005 4.58793,-86.7572 m -5.13446,29.4894 c -0.33551,-28.441 1.39421,-56.5934 4.51531,-85.8769 m 3.37564,14.1259 c 0.54384,-26.1376 -1.65648,-52.1724 -5.5549,-77.7721 m 4.85158,21.5682 c 0.0282,-23.0319 0.5913,-46.5774 1.75433,-69.2096 m -7.22279,4.2775 c 0.86288,-28.676 0.0196,-55.6032 -0.62548,-81.523 m 4.18035,25.0337 c 1.25766,-27.0847 0.7816,-53.1436 0.89727,-79.8184 m -5.85854,21.1829 c 0.38698,-25.1554 0.6647,-49.8944 1.51544,-73.7684 m -4.21042,11.6614 c 1.56677,-32.3316 0.6574,-64.9936 1.66142,-97.9169 m 0.25203,32.825 c -0.31908,-25.05 -0.0759,-48.348 0.21608,-71.473 m 12.9873,15.784 c 0.35165,-26.4321 -1.33991,-53.3273 -4.39424,-78.9015 m 1.50354,9.0503 c 0.12219,-23.6819 -1.45119,-47.5145 -4.52674,-70.7688 m -1.21554,16.6371 c -0.0973,-26.0936 0.25308,-50.6654 0.88037,-75.6758 m -5.76289,25.0412 c 0.80946,-33.7871 -0.51928,-63.7301 -1.65991,-93.7946 m 10.99519,24.1231 c -1.03039,-26.2958 -1.88056,-51.9379 -4.33934,-78.5395 m -6.98865,17.7462 c -0.82689,-31.4642 -0.82187,-61.8378 -2.01674,-94.0905 m 11.97787,30.7078 c -0.22154,-25.7079 -0.49757,-52.3477 -1.23584,-77.3837 m -9.70152,12.9721 c 0.0748,-13.0529 0.23369,-25.7969 0.50936,-38.3634 9.69954,0.1434 19.46375,0.385 29.3061,0.6709 -6.00763,0.1878 -11.98155,0.3947 -17.91794,0.6053 m 24.0858,0.2168 c -23.46926,0.5185 -47.6624,0.3579 -71.52568,0.3261 0.0425,-3.7309 0.0928,-7.4588 0.15491,-11.1807 m 8.58392,12.8858 c -3.36374,0.05 -6.70631,0.076 -10.03061,0.081 -0.53458,-27.8846 0.26885,-57.372 0.57505,-87.5709 m -3.14229,26.3458 c -0.23046,-24.468 0.90502,-47.3996 3.04012,-68.5626 m -2.33696,10.6353 c -0.0533,-8.1041 -0.1301,-16.4786 -0.24178,-25.0427 17.04275,0.3359 33.94223,-0.1076 50.60436,-0.6564 m -22.99838,1.2077 c 26.0385,0.6856 54.00657,-0.2507 82.87177,-2.7503 m -16.02194,-4.0759 c 25.58838,-0.6078 52.80419,1.2835 79.10256,3.1725 m -18.13326,1.7716 c 24.26717,-0.4315 49.39263,0.5312 73.81846,1.1084 m -8.94777,5.7993 c 31.85778,-0.5494 62.35031,1.594 92.89379,2.9247 m -30.5686,0.5357 c 24.8567,0.1582 49.17066,1.0955 72.40542,2.0055 m -12.34012,-0.4097 c 13.77994,0.9666 27.80461,1.5664 41.83656,2.1354 -0.31697,17.1093 -0.6237,34.1755 -1.31546,51.7581 m -3.14801,-29.9933 c -0.91634,26.0726 -1.05818,50.9825 -1.79173,75.0009 m 9.74995,-9.3406 c -0.55925,18.2075 -1.00486,35.4437 -1.71057,52.2446 -16.19379,-0.6737 -32.5945,-1.6937 -49.4673,-2.6794 m 25.89524,-6.2328 c -18.83596,-0.5904 -36.65598,-0.1374 -54.19538,0.8501 6.10633,0.3265 12.24333,0.7113 18.38442,1.1362 m -14.71704,4.2642 c 10.4915,0.2196 21.26506,0.3219 32.28427,0.3749 0.83236,21.5439 2.66801,42.8863 5.20642,64.5873 m -2.89466,-29.5875 c 1.09727,23.1437 -0.45211,48.1554 -2.9274,73.3168 m 1.36456,-19.6394 c 0.31957,25.1296 -0.75441,51.7319 -2.63106,77.3937 m 2.94295,-20.0274 c -1.28864,26.9824 -2.00173,52.8761 -4.51886,79.149 m 6.94077,-13.6773 c -1.27317,28.2454 -1.18477,55.9933 -2.39717,84.0353 m 1.30437,-28.3586 c 1.24981,25.235 0.47926,50.6791 -0.14708,76.027 m 1.27954,-8.3346 c 0.35004,23.7002 0.49342,49.2929 1.00728,74.7829 m -3.39025,-26.7127 c -0.0616,30.5878 -0.52663,65.0335 -1.53684,100.8699 m 4.62326,-27.2259 c 1.32902,29.1367 -1.33076,56.5208 -5.06776,83.8338 m 2.09871,-20.4518 c 0.38226,23.7684 0.0775,47.8161 -0.3137,71.9592 m 2.11063,-14.4265 c 0.5863,26.4538 0.35086,50.8216 0.37466,73.2874 m 0.0936,-9.5213 c -0.76162,28.7347 -0.26588,54.6567 -0.092,79.5949 m -3.46205,-25.0121 c 1.01025,28.985 -0.50958,59.6213 -2.24152,91.7098 m 3.49166,-23.0114 c 1.4776,31.6528 -0.47477,60.4064 -2.10156,89.0679 m 6.00727,-28.3597 c -0.13766,25.7796 0.49611,52.0913 1.65471,79.9246 m -7.67034,-17.0821 c -0.17576,32.5884 0.22127,64.3736 0.6908,96.5933 m 7.39514,-28.5835 c -0.179,31.0691 -1.11683,61.2103 -3.27799,91.7733 m 4.76221,-26.4562 c -0.68111,31.144 -2.48625,63.0138 -7.29384,92.4004 m -2.70593,-25.7267 c 0.0742,32.3157 1.07215,65.2958 3.22426,100.9376 m -3.45827,-28.2475 c 1.15743,31.192 0.15781,59.5199 -0.16138,87.2941 m 2.58282,-18.716 c -0.12408,25.4419 0.24594,51.8169 0.85388,77.0954 m -4.05646,-16.3255 c 1.42266,28.7162 -0.22336,58.5831 -1.74575,89.1309 m 6.00291,-29.876 c -0.45158,27.8802 0.34133,56.8694 1.33308,84.5907 m 1.9871,-14.5929 c -0.82996,28.5103 -1.16264,56.7251 -2.77041,85.0383 m 4.60651,-28.002 c -0.26578,22.2354 -1.11384,43.3992 -2.86748,64.6911 -9.06549,0.017 -18.27165,0.054 -27.63827,0.1851 m 24.97369,3.9066 c -24.26337,0.097 -50.56254,-0.1587 -77.74591,-0.6291 m 17.34546,-1.0899 c -23.66583,-0.5221 -47.93627,0.091 -72.50282,1.0226 m 15.79015,-1.5298 c -25.94367,0.9112 -51.2048,0.6383 -77.25851,0.7061 m 16.67876,-6.839 c -27.80859,0.8381 -55.31242,1.461 -83.80636,3.5154 m 28.60831,-4.5313 c -21.62717,0.042 -43.16811,0.854 -65.16816,2.4911 -0.10146,-2.419 -0.20994,-4.8254 -0.3265,-7.219 m 6.18215,15.47 c -2.45301,-0.024 -4.90752,-0.044 -7.36315,-0.059 0.20194,-23.3433 0.30637,-46.3156 0.64322,-69.2529 m -4.93011,12.5533 c 0.90582,-22.8828 0.05,-48.0653 -1.14178,-73.9449 m 3.40721,20.0172 c 0.52158,-26.7673 -1.21174,-54.0338 -4.13812,-80.7663 m 5.50548,17.1078 c 0.98983,-26.7127 0.66619,-53.9489 1.07345,-79.9688 m -5.87863,16.6365 c -0.36457,-27.6564 0.58408,-55.0492 2.13574,-82.5459 m -2.95568,20.5819 c 0.58759,-25.1619 0.35654,-50.081 0.26599,-76.1627 m 4.10873,26.1301 c -0.12574,-33.722 -0.0322,-64.9586 -0.038,-97.9911 m 2.34302,19.8932 c 0.7075,-27.0698 -0.52813,-53.1148 -2.36039,-78.9161 m 10.40715,16.4176 c 0.41983,-29.1449 0.16175,-56.4191 0.16396,-83.6961 m -10.20314,29.4523 c 0.0863,-27.4839 0.37622,-57.0375 1.07303,-88.4613 m 2.01292,25.3044 c 0.11283,-26.9585 -1.16205,-53.8439 -3.59968,-81.7937 m 7.66193,12.7937 c -0.59689,-28.8747 -0.26366,-56.4128 -0.32701,-82.7184 m -2.32951,24.9042 c -1.36447,-27.3907 -0.12738,-56.297 0.73472,-84.4635 m -1.35928,18.7583 c -0.12617,-30.8793 -0.62308,-63.0388 -1.83262,-92.581 m 5.73857,24.8531 c -1.08086,-30.804 -1.3146,-64.4234 -3.63654,-98.127 m -4.83934,31.5019 c 0.85433,-24.7307 1.24957,-50.0114 2.58572,-75.6321 m 0.14878,20.7515 c 1.21317,-26.4192 0.5981,-52.1001 0.34492,-78.3742 m 4.49846,21.3708 c 0.31569,-32.382 -0.49888,-61.892 -1.66015,-91.8731 m 3.37833,16.2413 c -1.4027,-31.2791 -0.56182,-59.9118 -0.83518,-89.1811 m -9.71133,17.5946 c -0.32977,-33.6275 -0.45158,-63.4389 -1.29857,-92.6785 m 9.42401,27.7921 c 0.98793,-30.6449 -0.83553,-58.3668 -3.15722,-85.9896 m -5.90599,31.3625 c -1.16581,-32.2731 2.33487,-60.9605 7.54687,-89.872 m 2.10223,20.2416 c 0.75444,-26.7284 0.6733,-51.598 1.15728,-75.7487 m -5.1024,13.0185 c 1.48925,-30.6041 0.0501,-63.9341 -0.3951,-98.2173 m 3.75406,32.7309 c 0.0963,-15.0519 -0.18278,-29.9453 -0.77955,-44.9844 9.1043,-0.3364 18.07284,-0.7352 26.9217,-1.2812 -9.07177,-0.4886 -18.23932,-1.095 -27.49114,-1.8802 m 18.62101,6.6047 c -23.18127,0.9335 -46.24589,-0.1615 -69.46097,-1.9586 -0.0124,-1.3781 -0.0252,-2.7583 -0.0385,-4.1405 m 12.70934,3.1686 c -3.98421,-0.1838 -7.96083,-0.31 -11.92814,-0.3866 0.2785,-20.3144 0.78556,-39.4126 1.72982,-58.2794 m -1.67719,16.5478 c -0.54498,-30.0098 -2.20766,-63.7089 -6.35968,-98.5285 m 8.15717,24.3401 c 0.42968,-10.1785 0.417,-19.9139 0.071,-29.3178 17.13512,1.0533 33.1608,3.2099 48.73908,5.7917 m -14.7709,-0.083 c 26.0451,-0.029 50.45117,-0.1711 75.16617,-1.5069 m -16.09874,7.3883 c 23.8746,0.8915 47.22562,0.1379 69.43232,-1.7885 m -21.13564,6.1205 c 25.36758,1.4325 50.35106,0.8677 75.10841,-0.2692 m -15.59308,-4.5368 c 32.82966,2.3751 63.51597,3.6664 93.98303,8.3106 m -15.76005,-14.3951 c 31.85426,1.7849 62.4843,1.6917 90.36711,2.4718 m -31.57589,6.2162 c 12.6276,-0.1363 25.8791,-0.192 39.60761,-0.376 0.88104,15.827 2.53211,31.4469 4.65191,46.4315 m 8.51437,-15.5628 c 0.23413,22.6376 -0.0448,45.753 -0.27299,67.9595 m -13.22969,-10.3792 c -0.16178,17.5442 -0.72563,35.5117 -1.73113,53.1772 -8.62943,-0.3055 -17.34771,-0.6717 -26.15838,-1.1641 m 24.51671,-3.1447 c -22.11987,-0.606 -43.48995,0.1807 -64.43932,1.5706 7.71677,0.4708 15.48182,1.0109 23.28237,1.5894 m -16.1782,-7.1439 c -0.29232,0.01 -0.58496,0.012 -0.87792,0.018 11.80974,0.2305 23.17376,0.5273 34.24769,0.968 -0.36451,13.5061 -1.10689,27.1998 -1.99579,41.1965 m -3.1062,-15.7405 c 1.08235,23.2971 0.85619,47.4373 0.95373,72.1418 m 0.29566,-18.1724 c -0.43124,28.8309 0.40725,60.0025 1.46118,91.014 m -1.77313,-25.2387 c 1.26222,30.5712 0.94181,61.1796 2.43401,89.6988 m -4.81708,-10.6214 c 0.47114,34.0414 1.43192,62.9422 4.25789,90.8653 m -7.81265,-32.8258 c 0.23392,33.9571 -0.41971,65.3689 -1.28635,96.1797 m 7.2624,-25.0942 c -1.45512,32.2093 0.65867,66.8823 2.10334,101.7377 m 1.33477,-31.3426 c 0.53462,30.2929 0.9372,61.7031 2.59369,92.086 m -9.19584,-27.3528 c -1.34884,31.5673 0.83997,65.0526 2.66407,96.5408 m -4.77282,-26.6705 c 0.6906,32.6582 0.54281,66.9242 1.50962,102.5039 m 7.5136,-36.6143 c -0.0131,33.151 -2.49376,65.0463 -7.47453,98.5481 m 3.37258,-26.3305 c -0.95218,23.8071 -0.15745,48.2964 0.87481,72.5516 m 3.93066,-15.7588 c 0.98327,25.264 -0.50551,51.1574 -2.73096,77.3506 m -4.57377,-24.3983 c 0.99373,30.1957 0.3992,60.1396 0.4888,92.7327 m -5.21615,-24.6886 c -1.30282,30.1739 0.24754,59.6451 1.65683,90.5035 m 5.06259,-16.2537 c 0.73763,34.5871 0.44611,65.4744 1.31272,96.981 m -2.40712,-35.4204 c -0.98777,22.5102 -0.0344,46.8004 1.39194,71.1318 m -3.26683,-12.5557 c -0.96301,31.7845 0.58855,61.246 2.11454,89.8723 m -2.81701,-28.0708 c 1.07126,31.2412 -0.12732,64.3108 -0.69194,98.4517 m -0.988,-21.9838 c 0.24584,28.1549 -0.72595,53.3876 -2.38519,77.2436 m 5.784,-16.1018 c 1.13979,25.2708 0.24915,49.3014 -0.80147,72.9849 m 3.02735,-15.7995 c -0.56618,25.4324 0.0845,49.4004 0.93711,71.9047 m -2.65516,-9.929 c 1.27654,27.7168 1.23828,52.9986 2.29824,78.0475 m -1.94676,-29.3047 c 1.01621,24.7734 -0.41043,50.5144 -2.50778,75.8942 m 0.74933,-9.0263 c -0.384,16.0208 -0.0695,32.6059 0.67719,49.6751 -12.46004,0.7627 -24.6364,1.843 -36.6706,3.1984 m 24.22241,-7.4197 c -25.26217,0.5418 -48.90406,0.2133 -71.71523,-0.071 m 10.754,6.751 c -23.7277,0.6769 -47.98825,0.2097 -72.23035,-0.3206 m 24.56026,-3.6249 c -30.82967,0.025 -63.68702,-0.2574 -95.65875,-0.7862 m 16.43395,1.2549 c -27.24887,-0.055 -55.19915,-0.2738 -81.50977,-0.7913 m 14.90316,2.979 c -12.30581,0.2746 -24.26009,0.1918 -35.84897,-0.1329 1.21565,-20.5036 3.38907,-41.6411 6.57914,-62.9223 m -3.96048,28.2738 c -0.30957,-27.7977 -1.07226,-54.8431 -2.91579,-82.0831 m 3.69682,21.7635 c -0.90266,-27.073 0.14988,-53.8803 1.32097,-80.1383 m 1.02339,12.5754 c 0.69989,-25.9475 0.12968,-51.3218 -0.52164,-77.3069 m 0.4039,22.1345 c -0.74451,-28.0963 -0.96215,-53.2089 -2.13062,-77.7921 m 3.61526,26.3579 c -0.0496,-30.668 0.90207,-65.5366 2.74496,-101.3889 m -8.01822,25.8074 c 0.50421,-30.7282 2.28207,-61.6147 6.58115,-92.6498 m -6.89356,25.3112 c 0.82153,-32.7485 1.49973,-64.9714 4.34631,-97.7351 m 0.10689,33.5808 c 0.81046,-25.8485 1.53968,-50.8253 3.54485,-76.8052 m -3.46667,13.9428 c 1.02428,-26.725 0.34806,-52.9127 -0.0723,-79.0008 m 3.11892,22.9971 c 0.34096,-23.8541 -0.59872,-49.0908 -2.25319,-75.0723 m -1.88724,11.7978 c 1.05539,-29.9398 0.0823,-63.249 -0.15628,-96.989 m -5.46913,30.2364 c -0.20761,-28.4948 -0.14842,-53.8553 -0.28651,-77.1584 m 14.42727,21.6584 c 0.16009,-25.7085 -0.267,-52.924 -1.01052,-81.7418 m -1.09886,10.5828 c 0.17539,-32.3105 -0.9796,-64.1353 -2.93967,-96.0398 m 0.0883,33.3924 c 0.85923,-29.5495 0.57889,-61.2882 1.36493,-91.4947 m -7.18531,29.2207 c 0.62428,-29.0532 -0.46792,-59.6928 -1.86949,-91.8894 m 5.81428,24.2848 c -1.01081,-33.3924 -0.35548,-62.7624 -0.92176,-90.9994 m 2.01533,18.9553 c -1.32774,-26.8075 -1.01072,-53.9648 -1.67531,-80.679 m 4.13693,18.8978 c 0.58337,-30.3674 -1.66972,-61.3343 -5.24472,-90.9008 m -6.66916,19.0453 c 0.92457,-24.8349 0.98465,-49.6858 1.71981,-74.8178 m 10.27177,23.7782 c -0.76655,-31.8149 -1.29898,-68.1242 -3.83722,-106.3625 m 1.72758,40.9898 c -1.20746,-24.7294 -0.70607,-49.5444 -0.44463,-75.0341 m -1.03945,8.5418 c -0.61248,-29.6987 -1.28225,-58.5277 -3.49561,-86.782 m 8.88632,23.9272 c -0.2533,-21.2595 -1.17239,-43.0019 -3.06486,-65.6381 4.37996,-0.4 8.70822,-0.8476 12.98104,-1.3476 m -22.84591,8.2793 c -0.0182,-1.1026 -0.0333,-2.2069 -0.0456,-3.3128 9.39213,0.2502 18.98957,0.3882 28.75575,0.4827 -17.38606,0.178 -34.17242,0.201 -50.60401,0.529 m 327.17848,1397.8681 0,160.8594 m -299.07354,-717.4871 0,-143.5157 m 0,295.6068 0,-149.1406 m 299.07354,-615.2149 0,190.1562 m -29.98806,1133.6759 -169.53125,0"
       id="path4147-12"
       inkscape:connector-curvature="0"
       sodipodi:nodetypes="ccccccccccc"
       inkscape:path-effect="#path-effect4175-8"
       inkscape:original-d="m 472.84708,1224.5644 -74.0563,0 0,-140.5693 382.50568,9.4275 -0.83089,136.7646 -71.20807,0 34.17992,0 0,1546.2608 -299.07354,0 0,-1551.8836 z"
       inkscape:export-xdpi="22.217079"
       inkscape:export-ydpi="22.217079" />
    <rect
       style="opacity:0.54799996;fill:url(#linearGradient4225-2);fill-opacity:1;stroke:none;stroke-width:4.19999981;stroke-linecap:round;stroke-linejoin:round;stroke-miterlimit:4;stroke-dasharray:none;stroke-opacity:1"
       id="rect4215-3"
       width="291.73004"
       height="1567.1205"
       x="444.35468"
       y="-2787.6934"
       ry="0"
       transform="scale(1,-1)"
       inkscape:export-xdpi="22.217079"
       inkscape:export-ydpi="22.217079" />
    <path
       style="fill:none;fill-opacity:0.4889868;fill-rule:evenodd;stroke:#000000;stroke-width:8.82425213;stroke-linecap:butt;stroke-linejoin:miter;stroke-miterlimit:4;stroke-dasharray:none;stroke-opacity:1"
       d="m 485.26461,1226.9784 c 27.98601,-0.2991 53.76457,0.8552 79.6141,1.6831 m -20.56033,-10.6269 c 23.43707,0.1348 48.05651,1.0219 73.1025,2.052 m -21.92382,5.3827 c 23.77322,0.1301 49.3166,0.1107 74.85628,-0.7443 m -11.08339,2.3946 c 20.75405,1.1119 40.63986,1.6434 60.63963,2.3016 m -240.31026,-13.4536 c 27.39895,-0.062 57.82562,0.4773 89.48033,0.089 m -22.0675,5.9772 c 24.71749,1.2894 51.73675,-0.029 79.66238,-2.6808 m -24.80171,3.5735 c 24.16075,0.568 50.36051,0.856 77.36649,0.8729 m -11.88867,-4.339 c 20.55654,0.2555 40.08145,1.406 59.01303,3.2437 m -245.59105,-3.5704 c 31.53589,1.2643 61.12431,0.3406 90.90971,-1.3373 m -22.26033,-1.7375 c 29.71422,2.0776 61.53132,2.7184 93.91759,5.4331 m -29.70124,0.4641 c 28.7368,1.0101 55.28741,1.2043 82.35392,1.3585 m -25.21199,-5.4775 c 15.04056,0.6976 29.47289,0.8904 43.67093,0.7843 m -236.4137,0.3141 c 28.91317,0.8866 56.94064,3.5938 86.30424,8.6901 m -17.12825,-7.7539 c 23.56112,1.746 47.74376,3.202 71.03704,6.2964 m -13.86622,-6.4574 c 26.4886,-0.1293 51.9167,0.8467 76.601,1.5988 m -18.04581,2.3319 c 17.08205,0.8784 34.82967,1.5303 53.00995,2.3487 M 479.7966,1220.602 c 33.05999,1.3982 64.93005,-0.5573 97.42883,-3.9935 m -29.99155,0.4996 c 32.76322,1.5111 65.90182,3.2312 99.74639,7.415 m -31.11943,-7.2306 c 27.53903,0.8602 56.14771,0.7147 86.15974,0.07 m -32.10345,8.7401 c 15.53196,0 31.00873,0.1672 46.74473,0.2889 m -157.86465,-5.586 160.81892,3.6075 m -79.69513,-1.7877 143.47953,3.2185 m -169.78995,-3.8087 149.10312,3.3447 m -340.94992,-7.6482 190.10843,4.2645 m -93.63689,-2.1004 169.48861,3.8019"
       id="path4227-4"
       inkscape:connector-curvature="0"
       inkscape:path-effect="#path-effect4229-2"
       inkscape:original-d="m 475.6954,1218.9418 250.65201,5.6226"
       inkscape:export-xdpi="22.217079"
       inkscape:export-ydpi="22.217079" />
    <rect
       style="opacity:0.54799996;fill:url(#linearGradient4225-1-1);fill-opacity:1;stroke:none;stroke-width:4.19999981;stroke-linecap:round;stroke-linejoin:round;stroke-miterlimit:4;stroke-dasharray:none;stroke-opacity:1"
       id="rect4215-0-2"
       width="135.78839"
       height="381.67471"
       x="-1226.8818"
       y="403.07016"
       ry="0"
       transform="matrix(0,-1,1,0,0,0)"
       inkscape:export-xdpi="22.217079"
       inkscape:export-ydpi="22.217079" />
    <path
       style="fill:#ffffff;fill-opacity:0.33480177;fill-rule:evenodd;stroke:none;stroke-width:1px;stroke-linecap:butt;stroke-linejoin:miter;stroke-opacity:1"
       d="m 673.69542,2512.1778 c 3.55626,-10.3552 0.88194,-26.9641 1.5772,-39.3593 0.32613,-5.8117 1.30394,-11.0222 1.57721,-16.8684 0.25938,-5.5463 0,-11.2454 0,-16.8682 0,-16.8682 0,-33.7366 0,-50.6049 0,-52.4791 0,-104.9584 0,-157.4374 0,-26.2396 0,-52.4793 0,-78.7187 0,-7.497 0.23235,-15.0401 0,-22.4912 -0.29591,-9.4983 -1.31033,-18.6042 -1.57721,-28.1138 -0.26148,-9.3247 0.29043,-18.7998 0,-28.1136 -0.23934,-7.6807 -1.30823,-14.8232 -1.5772,-22.4912 -0.26079,-7.4391 0,-14.994 0,-22.491 0,-9.3716 0,-18.7429 0,-28.114 0,-41.2335 0,-82.4671 0,-123.7007 0,-43.1081 0,-86.2157 0,-129.3238 0,-14.9939 0,-29.9879 0,-44.982 0,-3.7486 0,-7.4971 0,-11.2455 0,-1.8744 0.16631,-3.8448 0,-5.6228 -0.37172,-3.976 -1.29196,-7.1797 -1.5771,-11.2457 -0.31017,-4.4229 0,-27.8893 0,-33.7364 0,-26.2394 0,-52.4793 0,-78.7188 0,-1.3634 -0.0508,-16.6876 0,-16.8682 0.0718,-0.2551 7.14225,0 7.886,0 0.38241,0 4.68073,-0.1811 4.73151,0 0.37183,1.3252 -0.37174,4.2974 0,5.6227 0.37183,1.3251 1.20547,-1.3253 1.5772,0 0.37172,1.3251 -0.37173,4.2975 0,5.6226 0.83124,2.9636 2.32305,2.6593 3.1544,5.6229 0.37172,1.3252 -0.37173,4.2974 0,5.6228 0.37172,1.3254 1.05143,0 1.5772,0 0,1.8741 -0.23515,3.9463 0,5.6228 0.20931,1.4928 4.31278,16.1217 4.73149,16.8682 0.4703,0.8382 1.10701,-0.8382 1.57722,0 3.48731,6.2163 0.48944,3.4899 1.57719,11.2454 3.2819,23.4008 -0.10885,-6.0108 3.1545,5.6228 0.51988,1.8538 -0.38061,18.4221 0,22.4912 0.23505,2.5147 1.24457,3.252 1.5771,5.6228 0.23455,1.6727 0,31.3712 0,33.7365 0,22.4912 0,44.9819 0,67.4732 0,18.7424 0,37.485 0,56.2276 0,4.7607 0.28263,19.4684 0,22.4913 -0.23505,2.5145 -1.24468,3.2519 -1.5771,5.6227 -0.24004,1.7112 0,14.3361 0,16.868 0,13.1202 0,26.2397 0,39.3597 0,31.8624 0,63.7246 0,95.5869 0,13.1199 0,26.2395 0,39.3593 0,13.1198 0.26208,26.2732 0,39.3595 -0.26498,13.2191 -1.24068,26.1605 -1.5773,39.3592 -0.38071,14.9324 0.59491,30.1387 0,44.9822 -0.23515,5.8674 -1.25117,11.0565 -1.5772,16.8684 -0.41233,7.3513 0,14.9939 0,22.4909 0,13.12 0,26.2395 0,39.3596 0,16.8682 0,33.7364 0,50.6046 0,4.8728 0.30458,19.234 0,22.4913 -0.37173,3.9757 -1.20547,7.2695 -1.57719,11.2453 -0.16622,1.7781 0,3.7489 0,5.6226 0,3.7488 0,7.4974 0,11.2458 0,18.7425 0,37.4852 0,56.2277 0,4.7086 0.29978,23.8378 0,28.1139 -0.28504,4.0656 -1.29199,7.1797 -1.57722,11.2457 -0.25489,3.6364 0,7.4968 0,11.2454 0,1.8742 0.23516,3.9464 0,5.6227 -0.33241,2.3707 -1.34205,3.1082 -1.57719,5.6225 -0.33242,3.5563 0.2551,7.6091 0,11.2458 -0.28504,4.066 -1.05144,7.497 -1.5771,11.2454 -0.52577,5.6229 -1.25116,11.0567 -1.5772,16.8684 -0.20622,3.6757 0.255,7.609 0,11.2453 -0.28514,4.0658 -1.14063,7.3544 -1.5772,11.2458 -0.61746,5.5031 -0.83375,11.5672 -1.5772,16.8682 -0.33253,2.3707 -1.24479,3.252 -1.5772,5.6229 -0.23504,1.6764 0.1663,3.8446 0,5.6227 -0.37173,3.9757 -1.20537,7.2695 -1.5772,11.2455 -0.97112,10.3865 2.40656,2.6657 -1.57721,16.8681 -0.0509,0.1813 -4.34909,0 -4.7315,0 -0.52576,0 -1.20557,1.3255 -1.57729,0 -0.37173,-1.325 0,-3.7483 0,-5.6224 0,-1.8744 0,-3.7488 0,-5.6227 0,-1.8743 0.52576,-5.623 0,-5.623 -0.52567,0 0.23524,7.2993 0,5.623 -1.26604,-9.0278 -2.10287,-18.7429 -3.15441,-28.1141 z"
       id="path4255-3"
       inkscape:connector-curvature="0"
       inkscape:export-xdpi="22.217079"
       inkscape:export-ydpi="22.217079" />
    <path
       style="fill:#ffffff;fill-opacity:0.4642857;fill-rule:evenodd;stroke:none;stroke-width:1px;stroke-linecap:butt;stroke-linejoin:miter;stroke-opacity:1"
       d="m 575.38003,1135.8678 c 31.33147,0 62.66297,0 93.99457,0 9.49433,0 18.98877,0 28.48319,0 2.41145,0 9.86197,0.3879 11.39317,0 1.27382,-0.3228 1.57461,-1.8422 2.84832,-2.1649 12.96638,0 0.16292,1.0205 8.54495,-2.1648 1.0301,-0.3916 12.26055,0 14.2417,0 2.80761,0 8.50425,0 5.69654,0 -1.89885,0 -7.59549,0 -5.69654,0 2.84822,0 5.69654,0 8.54496,0 0.94938,0 1.89885,0 2.84831,0 0.94938,0 1.99912,0.3226 2.84822,0 11.85399,-4.5051 -3.04495,0.1493 2.84842,-4.3297 0.67133,-0.5103 2.1769,0.5102 2.84832,0 0.67123,-0.5103 -0.67142,-1.6546 0,-2.165 0.67123,-0.5102 1.99911,0.3228 2.84821,0 4.34361,-1.6505 2.84832,-5.6889 2.84832,-8.6593 0,-0.7216 0,-1.4433 0,-2.1649 0,-0.7217 0.67143,-1.6547 0,-2.1648 -0.67132,-0.5105 -1.89884,0 -2.84832,0 -0.94937,0 -1.89884,0 -2.84821,0 -4.74726,0 -9.49442,0 -14.24169,0 -0.94937,0 -1.89885,0 -2.84832,0 -0.94937,0 -1.99911,-0.3227 -2.84822,0 -5.89058,4.4769 0.1707,0.8905 -5.69674,2.1648 -5.77365,1.2537 -11.31606,3.076 -17.08991,4.3296 -1.76844,0.3841 -15.02925,0 -17.08991,0 -10.4438,0 -20.8876,0 -31.3315,0 -29.07241,0 -42.45642,0 -68.35961,0 -11.39327,0 -22.78655,0 -34.17984,0 -0.94944,0 -1.89888,0 -2.84832,0 -0.94944,0 -2.17696,-0.5101 -2.84831,0 -0.67136,0.5104 0.42461,1.5195 0,2.1651 -5.92699,9.0096 0.19663,-2.3144 -5.69663,2.1646 -0.67136,0.5104 0.67135,1.6547 0,2.1649 -0.67136,0.5104 -2.17696,-0.5102 -2.84831,0 -0.67137,0.5104 0,1.4434 0,2.165 0,0.7214 0,1.4432 0,2.1647 0,0.7217 0,1.4434 0,2.165 0,0.7215 -0.94945,2.1648 0,2.1648 0.94943,0 -0.94945,-2.1648 0,-2.1648 1.3427,0 1.64736,1.7086 2.84831,2.1648 0.84919,0.3227 2.17695,-0.5101 2.84832,0 0.67135,0.5103 -0.67137,1.6545 0,2.1649 0.0917,0.069 7.85415,0 8.54494,0 0.94945,0 1.89888,0 2.84833,0 3.79775,0 11.39328,2.8863 11.39328,0 0,-2.8864 -11.39328,-2.8864 -11.39328,0 0,2.8863 7.5955,0 11.39328,0 z"
       id="path4285-4"
       inkscape:connector-curvature="0"
       inkscape:export-xdpi="22.217079"
       inkscape:export-ydpi="22.217079" />
  </g>
</svg>
