<?xml version="1.0" encoding="UTF-8" standalone="no"?>
<!-- Created with Inkscape (http://www.inkscape.org/) -->

<svg
   xmlns:dc="http://purl.org/dc/elements/1.1/"
   xmlns:cc="http://creativecommons.org/ns#"
   xmlns:rdf="http://www.w3.org/1999/02/22-rdf-syntax-ns#"
   xmlns:svg="http://www.w3.org/2000/svg"
   xmlns="http://www.w3.org/2000/svg"
   xmlns:xlink="http://www.w3.org/1999/xlink"
   xmlns:sodipodi="http://sodipodi.sourceforge.net/DTD/sodipodi-0.dtd"
   xmlns:inkscape="http://www.inkscape.org/namespaces/inkscape"
   width="210mm"
   height="297mm"
   viewBox="0 0 744.09448819 1052.3622047"
   id="svg2"
   version="1.1"
   inkscape:version="0.91 r13725"
   sodipodi:docname="vectors.svg">
  <defs
     id="defs4">
    <inkscape:path-effect
       effect="sketch"
       id="path-effect4366"
       is_visible="true"
       nbiter_approxstrokes="5"
       strokelength="100"
       strokelength_rdm="0.3;1"
       strokeoverlap="0.3"
       strokeoverlap_rdm="0.3;1"
       ends_tolerance="0.1;1"
       parallel_offset="5;1"
       tremble_size="5;1"
       tremble_frequency="1"
       nbtangents="5"
       tgt_places_rdmness="1;1"
       tgtscale="10"
       tgtlength="100"
       tgtlength_rdm="0.3;1" />
    <inkscape:path-effect
       effect="sketch"
       id="path-effect4229"
       is_visible="true"
       nbiter_approxstrokes="5"
       strokelength="100"
       strokelength_rdm="0.3;1"
       strokeoverlap="0.3"
       strokeoverlap_rdm="0.3;1"
       ends_tolerance="0.1;1"
       parallel_offset="5;1"
       tremble_size="5;1"
       tremble_frequency="1"
       nbtangents="5"
       tgt_places_rdmness="1;1"
       tgtscale="10"
       tgtlength="100"
       tgtlength_rdm="0.3;1" />
    <linearGradient
       inkscape:collect="always"
       id="linearGradient4217">
      <stop
         style="stop-color:#000000;stop-opacity:0.48898679"
         offset="0"
         id="stop4219" />
      <stop
         style="stop-color:#ffffff;stop-opacity:0.45882353"
         offset="1"
         id="stop4221" />
    </linearGradient>
    <inkscape:path-effect
       effect="rough_hatches"
       id="path-effect4201"
       is_visible="true"
       direction="471.64193,1473.1184 , 124.90751,0"
       dist_rdm="75;1"
       growth="0"
       do_bend="true"
       bender="471.64193,1478.0996 , 15.613439,0"
       bottom_edge_variation="78.857142;1"
       top_edge_variation="78.857142;662209711"
       bottom_tgt_variation="0;-103069093"
       top_tgt_variation="0;-1429425606"
       scale_bf="1"
       scale_bb="1"
       scale_tf="1"
       scale_tb="1"
       top_smth_variation="0;1310270744"
       bottom_smth_variation="0;1136435548"
       fat_output="true"
       stroke_width_top="1.8"
       stroke_width_bottom="2.4"
       front_thickness="1"
       back_thickness="0.25" />
    <inkscape:path-effect
       effect="sketch"
       id="path-effect4175"
       is_visible="true"
       nbiter_approxstrokes="5"
       strokelength="100"
       strokelength_rdm="0.3;1"
       strokeoverlap="0.3"
       strokeoverlap_rdm="0.3;1"
       ends_tolerance="0.1;1"
       parallel_offset="5;1"
       tremble_size="5;1"
       tremble_frequency="1"
       nbtangents="5"
       tgt_places_rdmness="1;1"
       tgtscale="10"
       tgtlength="100"
       tgtlength_rdm="0.3;1" />
    <inkscape:path-effect
       effect="sketch"
       id="path-effect4149"
       is_visible="true"
       nbiter_approxstrokes="5"
       strokelength="100"
       strokelength_rdm="0.3;1"
       strokeoverlap="0.3"
       strokeoverlap_rdm="0.3;1"
       ends_tolerance="0.1;1"
       parallel_offset="5;1"
       tremble_size="5;1"
       tremble_frequency="1"
       nbtangents="5"
       tgt_places_rdmness="1;1"
       tgtscale="10"
       tgtlength="100"
       tgtlength_rdm="0.3;1" />
    <inkscape:path-effect
       effect="sketch"
       id="path-effect4144"
       is_visible="true"
       nbiter_approxstrokes="5"
       strokelength="100"
       strokelength_rdm="0.3;1"
       strokeoverlap="0.3"
       strokeoverlap_rdm="0.3;1"
       ends_tolerance="1;1"
       parallel_offset="5;1"
       tremble_size="5;1"
       tremble_frequency="1.01"
       nbtangents="5"
       tgt_places_rdmness="0.9;1"
       tgtscale="9.5"
       tgtlength="100"
       tgtlength_rdm="0.3;1" />
    <inkscape:path-effect
       effect="powerstroke"
       id="path-effect4142"
       is_visible="true"
       offset_points="0,13 | 2,13"
       sort_points="true"
       interpolator_type="CubicBezierFit"
       interpolator_beta="0.2"
       start_linecap_type="round"
       linejoin_type="round"
       miter_limit="4"
       end_linecap_type="round" />
    <linearGradient
       inkscape:collect="always"
       xlink:href="#linearGradient4217"
       id="linearGradient4225"
       x1="494.28574"
       y1="283.5726"
       x2="660"
       y2="280.72659"
       gradientUnits="userSpaceOnUse"
       gradientTransform="matrix(1,0,0,0.93243246,-2.8571429,-20.824948)" />
    <linearGradient
       inkscape:collect="always"
       xlink:href="#linearGradient4217"
       id="linearGradient4225-1"
       x1="480.81635"
       y1="277.26129"
       x2="660"
       y2="280.72659"
       gradientUnits="userSpaceOnUse"
       gradientTransform="matrix(0.21212119,0,0,0.45270269,-799.41845,425.81283)" />
  </defs>
  <sodipodi:namedview
     id="base"
     pagecolor="#ffffff"
     bordercolor="#666666"
     borderopacity="1.0"
     inkscape:pageopacity="0.0"
     inkscape:pageshadow="2"
     inkscape:zoom="0.35"
     inkscape:cx="500.37388"
     inkscape:cy="348.0044"
     inkscape:document-units="px"
     inkscape:current-layer="layer1"
     showgrid="false"
     showborder="false"
     inkscape:window-width="686"
     inkscape:window-height="696"
     inkscape:window-x="671"
     inkscape:window-y="0"
     inkscape:window-maximized="0" />
  <metadata
     id="metadata7">
    <rdf:RDF>
      <cc:Work
         rdf:about="">
        <dc:format>image/svg+xml</dc:format>
        <dc:type
           rdf:resource="http://purl.org/dc/dcmitype/StillImage" />
        <dc:title></dc:title>
      </cc:Work>
    </rdf:RDF>
  </metadata>
  <g
     inkscape:label="Layer 1"
     inkscape:groupmode="layer"
     id="layer1">
    <path
       style="fill:#71df66;fill-opacity:1;fill-rule:evenodd;stroke:none;stroke-width:4.4000001;stroke-linecap:butt;stroke-linejoin:miter;stroke-miterlimit:4;stroke-dasharray:none;stroke-opacity:1"
       d="m 438.52831,636.64791 -74.28572,0 0,71.42858 385.71429,0 -2.85714,-74.28572 -71.42858,0 34.28572,0 0,-785.71428 -300,0 0,788.57142 z"
       id="path4147-1"
       inkscape:connector-curvature="0"
       sodipodi:nodetypes="ccccccccccc" />
    <path
       style="fill:none;fill-rule:evenodd;stroke:#000000;stroke-width:4.4;stroke-linecap:butt;stroke-linejoin:miter;stroke-miterlimit:4;stroke-dasharray:none;stroke-opacity:1;fill-opacity:1"
       d="m 433.66664,651.68106 c -21.59084,-0.75849 -44.74854,-0.4854 -68.11058,-0.24502 -0.14482,4.26744 -0.29677,8.53374 -0.44697,12.79194 m 5.5809,-22.85925 c -2.29116,-0.0377 -4.57188,-0.0688 -6.8428,-0.0937 -0.23628,21.43214 0.43988,43.43488 1.46623,65.55505 m -6.48015,-9.71848 c -0.31577,7.16064 -0.47946,14.30842 -0.53573,21.42607 17.43518,-0.40569 35.49509,-0.9866 53.55314,-1.98505 m -11.08758,2.76867 c 33.1407,1.06436 64.0775,0.64816 96.78127,1.63239 m -35.26877,-8.8986 c 27.40606,-0.6952 57.83984,-0.79002 89.50166,-1.81167 m -22.07293,6.46064 c 24.72391,0.71709 51.74959,-1.17364 79.68164,-4.39783 m -24.80613,3.96786 c 24.16701,0.01 50.37303,-0.26066 77.38527,-0.80207 m -11.89288,-3.96366 c 23.88661,-0.22828 46.37986,0.75222 68.16925,2.61395 m -15.81935,1.1754 c 15.7976,0.2882 31.10674,0.0276 46.1968,-0.60166 -0.88148,-15.94886 -1.98061,-32.264 -3.03065,-48.76711 m 4.1863,24.28903 c -1.04653,-17.09867 -1.35723,-34.70007 -1.24957,-52.07758 -11.83651,0.37829 -23.47354,0.86334 -35.01561,1.6944 m 19.95293,1.02091 c -18.73014,0.28457 -38.59066,0.14725 -58.57693,-0.12345 7.5844,-0.10577 15.1496,-0.23189 22.75551,-0.36117 m -25.21708,-5.02308 c 10.98642,0.27429 21.64694,0.27863 32.12863,0.0939 -0.01,-19.87016 -0.63919,-40.39584 -0.93936,-61.05499 m -1.13504,32.09418 c 1.05559,-27.60291 1.22549,-53.38517 2.73152,-76.77837 m 3.83022,13.68001 c -0.93792,-23.30874 -1.25434,-46.90752 -2.46009,-68.86791 m 2.34334,10.11985 c 0.15408,-27.06113 -0.75235,-53.0171 -2.40257,-79.19679 m 0.68359,21.48615 c -0.51286,-29.70056 1.03687,-60.10628 3.37061,-89.06633 M 710.056,361.5925 c 0.63325,-31.76408 0.0766,-66.88184 0.14862,-103.48028 m -1.5941,29.54117 c 0.10217,-31.89078 0.57972,-63.57266 1.76323,-92.7908 m -2.31008,22.23225 c 0.15008,-27.14995 1.36983,-55.3057 3.99292,-83.96058 m -11.8442,29.45899 c 1.02126,-30.72106 1.82642,-60.79507 4.91859,-91.858106 m 0.70621,24.91454 c 0.4181,-31.866576 -0.19765,-64.062048 -0.72881,-97.5988391 m 3.4237,27.9004091 c -0.9438,-34.2764174 0.81216,-64.663065 2.58786,-95.831744 m -3.0563,30.312717 c 0.0863,-32.130908 0.0541,-65.914927 0.10745,-102.830427 m -6.04516,34.51549 c -0.20965,-11.54743 -0.17675,-23.02449 0.0239,-34.47365 -21.32983,-0.0422 -42.05404,0.0162 -62.68559,-0.11605 m 30.8503,-9.26094 c -29.0204,1.28452 -59.90287,2.24303 -90.56746,6.0081 m 27.97976,2.31177 c -24.21779,-0.037 -48.21747,0.38862 -72.67801,1.20735 m 18.35443,2.77674 c -28.73237,-0.87658 -57.85109,-0.423 -86.36829,-0.61421 m 20.09727,0.69283 c -25.90047,0.47777 -50.82788,0.0287 -76.34553,-0.56159 m 16.03732,1.61628 c -6.7769,0.13482 -13.50284,0.12387 -20.17806,-0.0164 0.31077,20.80651 1.12039,40.340677 2.42105,59.108753 m -5.80832,-27.959043 c -0.72277,31.988683 0.62242,67.202749 1.88339,102.484907 m 0.0698,-21.603343 c -0.35233,28.5745785 0.60522,55.411444 2.15219,82.954342 m 9.56679,-28.78631 c 0.29127,27.86761 0.008,55.547512 -0.22163,83.528874 m -3.2939,-17.65716 c 0.6075,30.49724 -1.21885,62.15971 -3.92064,94.90516 m 0.71715,-32.94696 c -0.50172,30.99856 0.0394,62.98539 0.27237,95.08829 m 4.80636,-32.15619 c 1.2903,29.74748 0.14448,60.54472 -0.43512,92.99063 m -9.95605,-12.43309 c -0.33649,31.33537 0.84945,61.68827 2.66445,92.45766 m -0.98508,-41.3433 c -1.0147,22.73337 -0.54179,47.13603 -0.11578,71.52657 m 3.28055,-4.37301 c 0.94792,32.51775 -2.7858,64.88601 -8.48609,96.24052 m 12.90023,-23.9269 c 1.14844,32.52787 0.66592,64.19536 1.72978,96.51359 m -9.5817,-43.94694 c 2.3e-4,24.63587 0.84438,49.8766 2.51595,76.13875 m 0.60864,-1.6898 c -0.47633,12.06473 -0.34376,23.83797 0.21843,35.4008 9.97574,-0.22874 20.22912,-0.59346 30.667,-1.05204 -7.45928,-0.39729 -14.78006,-0.86505 -22.0229,-1.37586 m 9.90425,-5.28291 c -22.19779,-0.86948 -42.96423,0.002 -63.01632,1.52975 0.71483,10.52914 1.57741,21.19388 2.5203,31.89209 m 2.46054,-24.23168 c -0.2859,22.83701 -0.16805,45.74463 -0.0484,68.64061 2.29955,0.001 4.59911,0.003 6.89828,0.004 m -8.68606,-14.69369 c -0.14131,3.53915 -0.259,7.05144 -0.35757,10.54089 21.46873,0.48961 43.7396,0.0215 65.59389,-0.31456 m -21.18833,-0.92278 c 23.02267,-0.28199 47.70786,-0.0434 72.39553,0.24994 m -17.88891,5.21925 c 29.42915,0.95731 60.13299,-0.61208 91.82267,-2.47678 m -25.93681,-1.15636 c 32.9545,-0.0127 66.14964,0.40146 99.8471,1.25264 m -35.02464,-3.63565 c 31.28249,-0.61733 62.51711,-0.11069 95.88077,0.0149 m -24.78469,-1.14762 c 26.54002,-0.21777 51.23021,-0.30819 74.04925,-0.69414 -1.19999,-6.79686 -2.51929,-13.61256 -3.95824,-20.45391 m -0.53603,22.90569 c 3.39595,-0.0838 6.74941,-0.16866 10.06458,-0.25711 -0.4463,-25.43657 -3.11961,-51.07987 -6.14851,-78.00246 -3.50498,-0.28199 -7.01602,-0.58576 -10.52896,-0.91371 m 14.49448,13.90609 c -0.32239,-5.76028 -0.62228,-11.44799 -0.90892,-17.08003 -24.12142,-0.31567 -48.00034,0.38847 -72.36422,0.78577 1.69444,0.029 3.38631,0.0563 5.07533,0.0815 m 23.80756,4.38227 c -6.87851,0.16059 -13.77509,0.1803 -20.67768,0.0807 11.54535,-0.16326 23.07457,-0.64701 34.64071,-1.35652 0.11908,-10.50595 0.26582,-21.18102 0.47463,-31.96376 m -8.88652,19.55362 c -1.1772,-29.45294 -0.16971,-55.03362 0.52519,-79.4843 m -7.94662,28.77304 c 0.0819,-25.8293 0.89663,-51.94503 2.60488,-77.78612 m 3.41075,10.26667 c 0.10151,-32.83182 -0.83634,-65.64894 -2.53332,-99.22227 m 5.4235,34.27811 c -1.1071,-26.44612 -0.049,-52.8996 1.00615,-78.28289 m -3.93568,14.37906 c -0.69105,-28.49449 0.99713,-54.26081 3.70787,-79.78855 m 6.01897,14.82269 c 0.0611,-26.79478 -1.83014,-51.75432 -5.56189,-75.78809 m -9.04717,18.88103 c 1.01334,-29.50352 2.02351,-60.34095 5.50028,-91.75642 m 4.14739,21.19136 c -1.25916,-29.97328 -1.41617,-57.01088 -3.40582,-82.61654 m -1.32007,25.03041 c 0.76723,-31.680556 -0.041,-64.455285 -0.34764,-98.292024 m 3.12066,29.239291 c -0.43696,-26.475868 0.38809,-51.2324897 1.73906,-76.088007 m -3.57509,10.0506933 c -0.65707,-24.4927393 -0.33074,-48.7168133 -0.0783,-72.8336073 m 2.8125,25.924047 c -1.29706,-28.791229 0.33058,-58.086033 1.88715,-86.444323 -1.06169,0.0397 -2.12349,0.0808 -3.18556,0.1233 m 0.0488,16.23756 c -0.0736,-7.23139 0.002,-14.40779 0.21756,-21.52435 -16.46604,0.34133 -32.1708,1.0094 -47.24239,2.06634 m 19.78379,3.52903 c -25.84837,-1.00107 -51.83804,-0.38066 -78.35403,0.0744 m 18.95332,-5.54315 c -23.12566,-1.00862 -48.34751,-0.29147 -74.41457,0.60087 m 8.80742,5.76713 c -25.63163,1.04329 -51.73398,-0.18223 -76.73637,-1.69196 m 14.81711,-7.29272 c -25.16576,0.24064 -51.15039,0.15784 -77.04329,0.19565 m 22.61765,3.43717 c -10.23971,0.1007 -20.43785,0.0873 -30.67998,-0.0146 -0.72906,22.35911 -1.68619,44.259719 -3.88148,66.005153 m 6.24084,-35.001353 c -1.28718,27.331627 0.79489,55.357309 3.52492,82.768417 m 0.57711,-10.920264 c 0.01,23.683189 0.35437,47.8576477 1.0483,71.383541 m -9.75947,-15.722966 c -0.60742,28.578088 -1.40175,54.881692 -3.57295,81.519808 m 9.43287,-23.36988 c 0.95866,29.046944 -1.98891,61.646514 -6.44596,94.631414 m 2.22648,-27.1177 c -1.28743,30.32906 0.19069,60.45221 1.10361,88.34214 m -3.95444,-22.31926 c 0.7688,24.2705 0.18299,47.7464 -0.56878,71.2655 m -4.70491,-10.0556 c 0.15755,24.13808 1.26548,47.68913 3.56814,71.33014 m 1.43134,-21.32007 c -1.08013,25.04793 0.30412,48.86405 2.44843,72.66169 m 5.20819,-13.84041 c -0.21147,27.07575 -1.19939,53.28119 -3.41054,78.69021 m -9.16747,-18.36015 c 0.10393,31.62448 2.09591,68.11554 6.25558,104.93641 m 0.69726,-32.63249 c -0.61713,24.61132 0.0698,50.84977 0.99824,77.9063 m 5.60407,-21.97508 c 1.16075,22.50667 -0.0514,47.04197 -1.93834,72.25434 m -4.3907,-11.23189 c -0.28631,7.15984 -0.4772,14.13328 -0.60974,20.95121 9.34131,-0.1362 18.79323,-0.56724 28.25898,-1.21249 -7.68139,-0.51727 -15.3539,-1.1722 -23.06737,-1.92326 m 17.19298,2.50497 c -21.99645,-0.1713 -44.35537,-0.11209 -67.14048,-0.0326 -0.19158,4.96961 -0.40489,9.94025 -0.64064,14.90951 m 1.12955,-20.3067 c -1.52283,-0.0291 -3.04453,-0.0573 -4.56491,-0.0847 0.52266,23.04497 1.34856,46.27016 3.22157,69.02715 m -3.79093,-21.359 c -0.14712,6.15062 -0.19644,12.28254 -0.16225,18.41216 17.96085,0.4395 36.666,0.85846 55.7359,1.6931 m -14.64869,1.47414 c 24.72117,-0.74735 50.69596,-0.39298 77.71148,-0.17089 m -17.40191,7.86659 c 23.2445,0.20982 48.71944,0.0754 74.53375,-0.0614 m -17.63581,-5.52435 c 29.9876,0.90704 58.05955,0.57475 84.72685,1.15554 m -14.33375,3.96119 c 23.48499,-0.34988 47.46376,-0.87765 71.80013,-2.13118 m -27.85158,3.06874 c 29.10353,-0.27293 59.60614,-0.46981 91.51188,-1.2326 m -26.58659,-8.64968 c 14.95821,0.68954 30.59595,1.1892 46.47643,1.95916 -0.22165,-9.58814 -0.34198,-19.06348 -0.47876,-28.30194 m 2.38649,23.3035 c -1.55865,-19.83413 -1.61709,-40.84792 -1.05211,-62.13873 -8.90304,-0.30797 -17.67315,-0.67502 -26.39667,-1.01225 m 34.4525,-7.58855 c -22.10263,-1.03525 -45.19671,-0.30884 -68.76092,0.75817 1.93525,0.0966 3.86664,0.19597 5.79457,0.29709 m 0.82067,5.97676 c -3.29664,0.10262 -6.60533,0.17314 -9.9238,0.21475 11.60445,0.1411 23.09653,-0.0502 34.56535,-0.44919 0.0609,-17.88784 0.0685,-36.25069 0.33135,-54.65709 m 1.15485,25.24414 c 0.37319,-26.71214 0.82657,-51.28843 2.09514,-74.08025 m -7.79876,20.90608 c -1.15488,-31.87653 0.19567,-65.9866 0.64584,-99.42928 m -8.22391,28.43475 c -0.72832,-24.92772 -0.20973,-49.64622 0.37606,-74.77379 m 6.49957,24.51631 c 1.09862,-31.69055 0.37353,-67.74352 1.1167,-103.99684 m 3.25831,22.0131 c 0.92014,-28.54023 1.07262,-54.36775 2.30739,-79.83462 m 0.30995,17.99023 c 1.41918,-28.46241 0.55655,-57.81841 0.688,-86.63658 m -4.20417,27.97718 c -0.15028,-30.25993 -1.42867,-61.0941 -4.18106,-94.21273 m 5.04042,28.75725 c -0.16442,-22.4602 -0.59884,-47.68752 -1.5568,-74.331539 m 0.0723,18.143179 c -0.68461,-30.434089 -0.80471,-61.586437 -2.14526,-91.141756 m 4.4889,28.338333 c -0.89753,-28.364313 -0.0813,-54.7844894 0.65511,-81.865415 m -2.41247,14.621081 c 0.38946,-32.915006 0.81609,-64.688809 2.33045,-97.432373 m -6.93952,31.258991 c 0.86491,-19.642621 1.5676,-39.877601 3.06467,-60.173591 -11.31751,-0.10086 -22.34194,-0.22423 -32.85894,-0.25104 m 23.88133,-7.03577 c -23.37741,-0.0457 -47.34294,0.31024 -71.7706,0.9818 m 22.59474,5.03397 c -32.52887,0.39013 -64.35439,-0.0173 -98.89889,-0.23286 m 32.76128,2.92766 c -31.27025,-1.15594 -62.12161,-0.16186 -95.1765,0.10156 m 24.11246,-1.46851 c -24.09008,-0.35005 -49.21858,-0.0646 -75.16166,0.32561 m 16.17146,-3.45048 c -15.625,-0.0298 -30.60096,0.19594 -45.13399,0.65407 0.54721,11.2082 1.31843,22.53394 2.23954,33.96892 m -5.23943,-23.41818 c -0.13257,27.73105 -0.008,57.37913 0.10096,87.693481 m 0.8755,-22.27723 c -0.40059,27.953285 1.06413,55.703406 3.58864,83.645178 m -5.97177,-20.9960135 c -1.18485,24.4913325 -0.41691,51.7669855 0.18706,79.6331085 m 3.4459,-16.980296 c -0.9705,31.589551 -0.25737,63.189132 -0.3551,96.194312 m -7.6137,-30.3797 c -1.16783,32.96482 0.25347,62.64478 1.01399,91.32101 m 4.92433,-24.79589 c 1.48289,32.56807 -1.82014,63.98009 -5.58059,93.75406 m 9.29117,-22.27862 c 0.24208,26.5598 0.0719,52.74822 -0.0974,79.90188 m -2.44214,-24.09263 c -1.23465,32.09599 -1.08423,63.16572 -2.89083,94.52997 m -1.32777,-20.89066 c -0.74224,32.1379 1.85991,59.05671 5.94079,84.51017 m 4.13778,-19.33366 c 0.60898,30.91553 -1.76184,60.82907 -5.59269,91.93459 m 4.96716,-24.73224 c -0.92611,29.44868 -1.39739,56.28451 -3.46909,82.48018 m -0.0465,-14.47627 c -0.60433,20.85527 -0.63707,39.92512 -0.76303,57.74794 5.12623,-0.64339 10.24649,-1.36679 15.34995,-2.16146 m -13.21981,-7.03926 c -0.0267,0.71 -0.0517,1.42082 -0.0752,2.13247 9.20539,0.10796 18.6934,0.36752 28.3756,0.79948 -16.15298,0.74502 -31.72831,2.00289 -47.1797,3.88028 m 44.32616,0.25956 c -23.94061,-0.17037 -47.6173,-0.73871 -70.61675,-1.97592 0.30085,5.68712 0.64319,11.33327 1.03328,16.93434 m 6.91685,-23.43482 c -2.32876,0.02 -4.64302,0.0437 -6.94425,0.0715 -0.85597,23.55364 -0.27991,47.55341 0.0549,72.30881 m -3.83136,-9.61805 c -0.0573,6.10667 -0.0272,12.28851 0.0845,18.51412 20.33834,-0.51788 41.47394,-0.60765 63.22286,-1.23036 m -25.37243,2.86665 c 24.08364,-0.46228 48.86284,-0.46476 73.41045,-0.77511 m -13.89384,0.5407 c 26.21563,-0.57729 53.63162,-2.03392 81.9538,-5.43853 m -29.02452,-7.2957 c 24.15022,-0.17572 48.22419,0.92176 72.87782,3.02427 m -5.80841,4.08555 c 26.99136,0.96435 53.76538,1.95533 81.6577,4.76377 m -26.96077,-6.75636 c 24.62021,-0.0764 49.71451,0.36384 75.46346,1.20554 m -24.76269,-1.86971 c 18.41169,-0.25599 36.17505,0.0518 53.87223,0.69947 -0.50657,-12.16706 -1.04678,-24.16138 -1.40963,-36.0641 m 5.68494,32.74509 c -0.16318,-19.77062 -1.50663,-40.4909 -3.32702,-61.42238 -10.30377,-0.243 -20.71734,-0.53462 -31.16302,-0.79329 m 31.39847,-13.90369 c -21.22919,-0.44242 -43.71559,1.02722 -66.1256,3.80594 2.44488,0.30792 4.89069,0.63192 7.33926,0.97117 m 8.57953,10.14493 c -2.9655,-0.009 -5.95673,-0.0239 -8.97218,-0.0435 11.47192,-0.0742 22.5986,-0.22267 33.46134,-0.45944 -0.62715,-12.92932 -1.57853,-25.96706 -2.74345,-39.13216 m -11.81409,14.8944 c 0.89762,-29.10382 2.1403,-55.54834 5.64293,-81.63187 m 6.23195,19.98022 c 0.60673,-29.26415 0.85302,-58.72436 2.14154,-88.26174 m 0.16269,18.44878 c -0.64893,-26.01109 -1.96719,-51.04413 -5.1382,-75.20851 m -3.84574,22.18029 c 0.44438,-25.03963 0.47566,-50.47899 0.84661,-75.88572 m 9.2309,16.78226 c -1.39261,-32.46123 -1.84112,-65.11878 -5.26469,-98.90856 m -8.01644,31.69086 c -0.74575,-22.90129 0.2991,-47.72392 2.00037,-72.96644 m 4.24974,9.76987 c -0.59966,-28.18269 0.84253,-57.38976 2.89507,-84.40687 m -5.59011,20.8256 c 0.23401,-32.35388 -1.26529,-66.39683 -3.78913,-99.209047 0,-10e-7 -7.6e-4,-0.0098 -7.6e-4,-0.0098 m -3.78826,30.429162 c 0.1306,-28.828197 1.69242,-56.580493 4.95292,-85.427709 m -2.41384,22.99322 c 0.17921,-28.545684 1.09668,-59.4926 3.17964,-92.624833 m -5.28865,24.07749 c 1.16812,-27.284641 2.29671,-53.661387 5.74907,-78.823747 m 8.97753,25.317588 c 1.13992,-24.942561 -0.66612,-50.024839 -3.58703,-75.920399 -3.23956,-0.15992 -6.49464,-0.33117 -9.76223,-0.51483 m 7.91945,7.69501 c 0.13175,-3.90479 0.22103,-7.7805 0.27324,-11.62824 -28.51833,0.23357 -59.09515,2.02073 -89.49013,4.90531 m 26.01021,3.5619 c -31.60781,-1.30758 -63.42019,0.92164 -96.28439,3.19233 m 27.54462,-12.37164 c -28.64084,-0.1038 -57.46238,-0.54913 -84.4671,-1.56696 m 29.73011,9.1056 c -31.57573,-1.53631 -67.87647,-0.76397 -104.55999,-2.19069 m 37.62366,-0.50396 c -13.92333,0.26673 -27.48084,0.49428 -40.92862,0.81346 -0.0498,11.82007 -0.018,23.70827 -0.0689,35.74845 m -6.32077,-16.72263 c -0.52091,29.244032 1.10129,57.118906 3.65897,82.655426 m 2.78606,-15.160052 c -1.40821,30.237485 -0.93285,60.0203544 -2.13009,88.521769 M 403.57191,3.5497825 c 1.29904,27.1288545 1.16193,54.5449895 2.12536,82.3836785 m -4.93814,-14.982443 c 0.60743,31.179492 1.98238,58.186912 5.61099,84.132552 m 1.65448,-25.29543 c 0.14903,32.82227 1.6756,64.3232 5.02656,97.5022 m 0.67694,-30.66506 c 1.16075,29.15332 -0.31976,55.14574 -2.02154,80.81442 m -6.37728,-20.099 c 0.1049,29.09291 1.13439,60.71305 3.36781,93.21131 m 2.96057,-25.16125 c 0.80128,28.007 -0.19092,54.5598 -1.42129,81.65629 m 5.24907,-21.58182 c -0.12983,23.3086 0.17659,48.11659 0.72212,73.70787 m -11.03499,-11.06362 c -1.25542,28.9869 1.29925,59.4633 4.72459,90.18257 m -7.38082,-29.97667 c -1.21843,30.08498 0.96695,60.11625 3.43623,88.82117 m 2.61922,-23.78873 c 0.81426,21.91847 0.11612,45.00402 -1.00434,68.56627 5.38932,0.28735 10.75162,0.60521 16.10454,0.9424 m -9.12416,-8.05266 c -0.0229,1.46738 -0.0454,2.93439 -0.0675,4.40124 9.37682,0.22341 18.76918,0.43941 28.13981,0.70447 -16.54443,0.45316 -33.15239,1.04974 -50.01014,2.07197 m 43.20443,-2.60505 c -23.62748,-0.56754 -45.913,-0.50943 -67.64894,-0.64581 0.15071,2.5925 0.30846,5.18252 0.47208,7.76886 m 10.83811,-8.29434 c -3.26226,0.11298 -6.53576,0.20218 -9.81864,0.27099 0.30788,24.30211 0.13459,47.55931 0.15962,71.01733 4.40566,-0.065 8.8181,-0.12309 13.2416,-0.16647 m -22.46693,-6.81939 c -0.10297,4.76306 -0.12956,9.44992 -0.0856,14.07261 26.93172,0.42675 56.28775,-1.35193 86.88938,-2.91097 m -26.77622,1.15904 c 32.55866,-1.29951 62.05508,-0.78486 90.8119,-1.9866 m -26.9166,4.09686 c 31.59329,1.57119 67.40389,-0.0497 102.44937,-0.19483 M 555.90484,706.6648 c 28.08676,0.39431 58.09628,0.76375 88.30114,1.98281 m -23.45491,9.07125 c 33.28,-1.59228 65.27834,1.64278 97.85405,5.1642 m -29.53182,-6.25765 c 19.98116,-0.38068 40.01697,-0.12334 59.72447,0.35695 -0.62249,-8.89047 -1.31104,-17.73609 -2.10023,-26.57431 m -1.20816,18.63031 c -1.53364,-23.73688 -1.68191,-46.79317 -1.36819,-69.5982 -0.84183,0.0242 -1.68299,0.0487 -2.52355,0.0736 m 10.1762,8.93427 c -0.25091,-4.23285 -0.52141,-8.52308 -0.81573,-12.85933 -24.4699,0.58075 -49.62227,-0.15687 -76.10477,-0.46836 4.29788,-0.0633 8.54077,-0.10906 12.72322,-0.12249 m -1.04747,7.14653 c -4.77349,-0.1039 -9.60023,-0.20706 -14.46349,-0.3165 11.78203,-0.24921 23.37465,-0.53093 34.97535,-0.92778 0.1749,-12.01611 0.35814,-24.1511 0.75691,-36.49167 m -0.16375,20.17151 c 0.42178,-24.85 0.68009,-48.15477 1.41969,-71.24065 m -3.6855,19.56289 c -0.0119,-30.6196 -0.62916,-59.05277 -1.85032,-86.59457 m 2.04516,20.22254 c -1.55824,-32.23463 0.13189,-65.00818 0.53502,-96.11486 m 7.23848,33.1024 c -1.03194,-25.04184 -0.60017,-51.52484 -0.47376,-79.22815 m -1.4011,11.52797 c -0.90252,-32.13092 0.14171,-64.74379 0.49826,-95.26631 m 1.25946,28.14383 c -1.09298,-29.63278 -1.43433,-59.52716 -3.72139,-88.54329 m 4.15106,17.99124 c -1.15776,-29.56203 -1.64954,-58.79171 -4.3691,-86.02484 m 1.71339,24.5939 c 0.45942,-31.18262 0.0717,-61.69632 -0.0211,-94.053202 m -3.84676,31.714872 c -1.16331,-22.685672 -0.49657,-46.986231 0.25251,-71.430665 m -2.3228,8.714455 c -1.36519,-28.492857 1.22151,-58.1005296 4.58793,-86.757181 m -5.13446,29.4893947 c -0.33551,-28.4410117 1.39421,-56.5934457 4.51531,-85.8768597 m 3.37564,14.125895 c 0.49159,-23.626569 -1.25903,-47.169099 -4.47926,-70.382119 -2.86915,0.0598 -5.7549,0.12322 -8.65633,0.19071 m 12.43227,13.98751 c 0.004,-3.55627 0.0215,-7.12477 0.0516,-10.70027 -20.09419,0.678 -39.79875,1.14633 -59.07434,2.2677 m 8.27527,-11.22053 c -27.47046,-0.34269 -56.6471,1.06346 -85.62548,3.47702 m 25.85534,3.35869 c -24.92723,-0.89984 -51.58819,-0.77382 -77.65741,-1.26367 m 12.65397,2.67037 c -25.01666,0.24819 -50.14259,0.9129 -74.6955,2.44251 m 13.21391,-5.76292 c -23.01778,0.0188 -47.41939,-0.14701 -71.37092,-0.46864 0.0802,8.05911 0.21173,16.10047 0.46517,24.12517 m 4.01682,-19.94602 c -1.27159,-0.0529 -2.54165,-0.10106 -3.81024,-0.14465 -0.24811,21.9902 -0.0152,45.480133 0.26153,69.125615 m 12.9873,-15.414606 c 0.35165,28.203287 -1.33991,55.943509 -4.39424,85.004716 m 1.50354,-31.247539 c 0.12219,24.625355 -1.45119,49.100075 -4.52674,74.153103 m -1.21554,-14.866463 c -0.0973,23.77622 0.25308,49.074215 0.88037,73.933565 m -5.76289,-8.533253 c 0.80946,31.004612 -0.51928,65.853232 -1.65991,100.580402 m 10.99519,-32.54938 c -1.03039,24.4334 -1.88056,49.52043 -4.33934,73.64801 m -6.98865,-16.99539 c -0.82689,29.03065 -0.82187,59.15183 -2.01674,87.39394 m 11.97787,-18.69705 c -0.22154,28.30249 -0.49757,55.67312 -1.23584,84.64754 m -9.70152,-26.40916 c 0.16703,27.83335 0.75328,57.20679 2.12286,86.6586 m 7.01798,-21.69787 c 0.77258,28.46302 0.58054,56.0213 1.04481,83.91731 m -1.20165,-19.25612 c -0.97411,31.65952 -0.012,61.19023 0.33001,89.83342 m -3.14229,-26.16908 c -0.23046,24.77671 0.90502,51.08997 3.04012,79.17168 m -2.33696,-22.10283 c -0.11124,18.66061 -0.32524,36.1417 -0.74481,53.17981 7.81328,-0.33918 15.58498,-0.76797 23.30575,-1.21935 m -23.00383,1.65032 c 7.36046,0.009 14.87501,-0.11213 22.52034,-0.36115 -18.72184,-0.63217 -36.60073,-2.09054 -54.01788,-4.35354 m 205.0567,-783.07549 -160.85938,0 m -11.31933,592.20101 0,143.51563 m 0,-391.42256 0,149.14062 m 142.40855,366.5653 190.15625,0 m -32.5648,-605.63143 0,-169.531249"
       id="path4147"
       inkscape:connector-curvature="0"
       sodipodi:nodetypes="ccccccccccc"
       inkscape:path-effect="#path-effect4175"
       inkscape:original-d="m 437.14286,643.79077 -74.28572,0 0,71.42858 385.71429,0 -2.85714,-74.28572 -71.42858,0 34.28572,0 0,-785.71428 -300,0 0,788.57142 z" />
    <rect
       style="opacity:0.54799996;fill:url(#linearGradient4225);fill-opacity:1;stroke:none;stroke-width:4.19999981;stroke-linecap:round;stroke-linejoin:round;stroke-miterlimit:4;stroke-dasharray:none;stroke-opacity:1"
       id="rect4215"
       width="282.85715"
       height="788.57141"
       x="414.28574"
       y="-150.49495"
       ry="0" />
    <path
       style="fill:none;fill-rule:evenodd;stroke:#000000;stroke-width:6.3;stroke-linecap:butt;stroke-linejoin:miter;stroke-opacity:1;fill-opacity:0.48898679;stroke-miterlimit:4;stroke-dasharray:none"
       d="m 449.57043,654.46408 c 27.99102,-1.20492 53.77459,-0.95652 79.62914,-1.0345 m -20.56396,-9.97123 c 23.44154,-0.67335 48.06545,-0.59448 73.11591,-0.37257 m -21.9267,5.9046 c 23.77786,-0.70971 49.32589,-1.56903 74.87021,-3.26394 m -11.08651,2.95823 c 21.01211,0.44654 41.13469,0.29835 61.38627,0.28891 M 443.9055,643.38729 c 27.40424,-1.01626 57.83619,-1.43215 89.49619,-2.77485 m -22.07154,6.70557 c 24.72226,0.4271 51.74629,-1.75362 79.67669,-5.2678 m -24.80499,4.16768 c 24.1654,-0.27323 50.36981,-0.82644 77.38045,-1.65073 m -11.8918,-3.7735 c 20.80848,-0.43064 40.56019,0.0556 59.70966,1.24314 m -246.32199,4.63173 c 31.54163,0.22643 61.13579,-1.7351 90.92694,-4.45096 m -22.2651,-0.87669 c 29.71989,1.05291 61.54266,0.66908 93.9346,2.35907 m -29.70588,1.30306 c 28.74192,0.0845 55.29765,-0.64704 82.36928,-1.41851 m -25.21577,-4.79281 c 15.29806,0.21602 29.96702,-0.0901 44.40025,-0.70174 m -237.17881,8.26688 c 28.91838,-0.055 56.95107,1.71075 86.31988,5.8655 m -17.13218,-7.04552 c 23.56571,0.91802 47.75292,1.546 71.05079,3.81236 m -13.86925,-5.90955 c 26.49352,-1.0193 51.92654,-0.93344 76.61577,-1.07129 m -18.04931,2.96491 c 17.32444,0.29528 35.33327,0.35756 53.78357,0.59688 m -236.96126,2.64983 c 33.06605,0.30226 64.94218,-2.74916 97.44702,-7.28126 m -29.99687,1.45932 c 32.76933,0.40728 65.91405,1.02345 99.76472,4.10336 m -31.12481,-6.2569 c 27.54414,-0.0654 56.15795,-1.13663 86.1751,-2.70697 m -32.10724,9.4249 c 15.78627,-0.51338 31.51558,-0.85932 47.51782,-1.25296 m -158.18407,-0.0114 160.84899,-1.82783 m -79.4991,0.9034 143.50636,-1.63076 m -169.89011,1.93057 149.131,-1.69467 m -341.51249,3.88082 190.14398,-2.16072 m -93.40357,1.0614 169.5203,-1.92636"
       id="path4227"
       inkscape:connector-curvature="0"
       inkscape:path-effect="#path-effect4229"
       inkscape:original-d="m 440,646.64792 251.42857,-2.85714" />
    <rect
       style="opacity:0.54799996;fill:url(#linearGradient4225-1);fill-opacity:1;stroke:none;stroke-width:4.19999981;stroke-linecap:round;stroke-linejoin:round;stroke-miterlimit:4;stroke-dasharray:none;stroke-opacity:1"
       id="rect4215-0"
       width="59.999996"
       height="382.85712"
       x="-710.93359"
       y="362.85715"
       ry="0"
       transform="matrix(0,-1,1,0,0,0)" />
    <path
       style="fill:#ffffff;fill-opacity:0.33480177;fill-rule:evenodd;stroke:none;stroke-width:1px;stroke-linecap:butt;stroke-linejoin:miter;stroke-opacity:1"
       d="m 638.61349,-10.494939 c 3.56728,5.2619674 0.88455,13.7015114 1.58208,20.0000004 0.32706,2.9532076 1.30792,5.6007126 1.58208,8.5714286 0.26009,2.818268 0,5.714286 0,8.571429 0,8.571428 0,17.142857 0,25.714285 0,26.666667 0,53.333336 0,79.999996 0,13.33334 0,26.66667 0,40 0,3.80953 0.23295,7.64235 0,11.42857 -0.29695,4.82651 -1.31451,9.45361 -1.58208,14.28572 -0.26237,4.73827 0.29118,9.55293 0,14.28571 -0.24012,3.90275 -1.31238,7.53213 -1.58208,11.42857 -0.26164,3.78011 0,7.61905 0,11.42858 0,4.7619 0,9.52381 0,14.28571 0,20.95238 0,41.90476 0,62.85714 0,21.90477 0,43.80953 0,65.71429 0,7.61905 0,15.23809 0,22.85714 0,1.90476 0,3.80953 0,5.71429 0,0.95238 0.16677,1.95363 0,2.85714 -0.3729,2.02031 -1.29608,3.64828 -1.58208,5.71429 -0.31112,2.24747 0,14.17164 0,17.14285 0,13.33334 0,26.66667 0,40 0,0.69294 -0.0509,8.47955 0,8.57143 0.0717,0.12949 7.16445,0 7.91039,0 0.3837,0 4.69536,0.0919 4.74624,0 0.3729,-0.67343 -0.3729,-2.18371 0,-2.85714 0.3729,-0.67344 1.20918,0.67343 1.58207,0 0.37291,-0.67344 -0.37289,-2.18371 0,-2.85714 0.83384,-1.50585 2.33033,-1.3513 3.16416,-2.85715 0.37291,-0.67343 -0.3729,-2.1837 0,-2.85714 0.37291,-0.67343 1.05472,0 1.58208,0 0,-0.95238 -0.23584,-2.00531 0,-2.85714 0.21003,-0.7586 4.32618,-8.19213 4.74624,-8.57143 0.47168,-0.42592 1.11039,0.42592 1.58207,0 3.49807,-3.15865 0.49096,-1.77327 1.58209,-5.71429 3.29211,-11.89074 -0.10923,3.05439 3.16415,-2.85714 0.52152,-0.94182 -0.38162,-9.361 0,-11.42857 0.23584,-1.27775 1.24855,-1.65247 1.58208,-2.85714 0.23531,-0.84993 0,-15.94097 0,-17.14286 0,-11.42857 0,-22.85714 0,-34.28572 0,-9.5238 0,-19.04761 0,-28.57142 0,-2.41901 0.28351,-9.89256 0,-11.42858 -0.23584,-1.27775 -1.24855,-1.65246 -1.58208,-2.85714 -0.24074,-0.86952 0,-7.28469 0,-8.57143 0,-6.66666 0,-13.33333 0,-20 0,-16.19047 0,-32.38095 0,-48.57143 0,-6.66666 0,-13.33333 0,-20 0,-6.66666 0.26301,-13.35027 0,-20 -0.26568,-6.71723 -1.24447,-13.2933 -1.58208,-20 -0.38196,-7.58775 0.59664,-15.31467 0,-22.85714 -0.23584,-2.98142 -1.25502,-5.61822 -1.58207,-8.57143 -0.4137,-3.73554 0,-7.61904 0,-11.42857 0,-6.66666 0,-13.33333 0,-20 0,-8.57143 0,-17.14286 0,-25.71428 0,-2.47596 0.30548,-9.7735 0,-11.42858 -0.37291,-2.0203 -1.20918,-3.69398 -1.58209,-5.714279 -0.16676,-0.90351 0,-1.90476 0,-2.85714 0,-1.90477 0,-3.80953 0,-5.71429 0,-9.52381 0,-19.047619 0,-28.571428 0,-2.39254 0.30078,-12.112954 0,-14.285714 -0.286,-2.066005 -1.29607,-3.648282 -1.58207,-5.714286 -0.25581,-1.847891 0,-3.809524 0,-5.714286 0,-0.952381 0.23584,-2.005307 0,-2.857143 -0.33354,-1.204677 -1.34624,-1.579389 -1.58208,-2.857143 -0.33353,-1.807015 0.25581,-3.866395 0,-5.714285 -0.286,-2.066005 -1.05472,-3.809524 -1.58208,-5.714286 -0.52736,-2.857143 -1.25503,-5.618221 -1.58208,-8.5714286 -0.20684,-1.867772 0.25581,-3.866395 0,-5.714285 -0.286,-2.066005 -1.14413,-3.73701297 -1.58208,-5.714286 -0.61935,-2.796287 -0.83627,-5.877688 -1.58207,-8.5714294 -0.33354,-1.204677 -1.24855,-1.652465 -1.58209,-2.857142 -0.23583,-0.851836 0.16677,-1.953635 0,-2.857143 -0.37289,-2.020305 -1.20917,-3.69398 -1.58207,-5.714286 -0.97415,-5.277753 2.41409,-1.354563 -1.58208,-8.571428 -0.0509,-0.09188 -4.36254,0 -4.74623,0 -0.52736,0 -1.20918,-0.673435 -1.58208,0 -0.3729,0.673435 0,1.904762 0,2.857143 0,0.952381 0,1.904762 0,2.857143 0,0.952381 0.52736,2.857142 0,2.857142 -0.52736,0 0.23584,-3.708978 0,-2.857142 -1.27005,4.587274 -2.10944,9.523809 -3.16416,14.285713 z"
       id="path4255"
       inkscape:connector-curvature="0" />
    <path
       style="fill:#ffffff;fill-opacity:0.4642857;fill-rule:evenodd;stroke:none;stroke-width:1px;stroke-linecap:butt;stroke-linejoin:miter;stroke-opacity:1"
       d="m 537.14287,662.63282 c 31.42857,0 62.85714,0 94.28571,0 9.52381,0 19.04762,0 28.57143,0 2.419,0 9.89256,-0.16183 11.42857,0 1.27776,0.13463 1.57939,0.76848 2.85715,0.9031 13.00652,0 0.1634,-0.42572 8.57142,0.9031 1.03324,0.1633 12.29846,0 14.28572,0 2.81633,0 8.53061,0 5.71428,0 -1.90476,0 -7.61904,0 -5.71428,0 2.85714,0 5.71428,0 8.57143,0 0.95238,0 1.90476,0 2.85714,0 0.95238,0 2.00531,-0.13463 2.85714,0 11.89075,1.87924 -3.05438,-0.0623 2.85715,1.8062 0.67343,0.21286 2.1837,-0.21287 2.85714,0 0.67343,0.21286 -0.67344,0.69024 0,0.90309 0.67343,0.21287 2.00531,-0.13462 2.85714,0 4.35708,0.68861 2.85714,2.37324 2.85714,3.6124 0,0.30103 0,0.60206 0,0.90309 0,0.30104 0.67344,0.69024 0,0.90311 -0.67343,0.21285 -1.90476,0 -2.85714,0 -0.95238,0 -1.90476,0 -2.85714,0 -4.76191,0 -9.52381,0 -14.28572,0 -0.95238,0 -1.90476,0 -2.85714,0 -0.95238,0 -2.00531,0.13462 -2.85714,0 -5.90873,-1.86766 0.17133,-0.37158 -5.71429,-0.90311 -5.79163,-0.52303 -11.35122,-1.28315 -17.14285,-1.80619 -1.77403,-0.16021 -15.0758,0 -17.14286,0 -10.47619,0 -20.95238,0 -31.42857,0 -29.16253,0 -42.58798,0 -68.57143,0 -11.42857,0 -22.85714,0 -34.28572,0 -0.95238,0 -1.90476,0 -2.85714,0 -0.95238,0 -2.18371,0.21286 -2.85714,0 -0.67344,-0.21287 0.42592,-0.63385 0,-0.9031 -5.94537,-3.75848 0.19724,0.96545 -5.71429,-0.9031 -0.67343,-0.21286 0.67344,-0.69023 0,-0.9031 -0.67343,-0.21285 -2.1837,0.21287 -2.85714,0 -0.67344,-0.21285 0,-0.60206 0,-0.90309 0,-0.30103 0,-0.60207 0,-0.9031 0,-0.30104 0,-0.60207 0,-0.9031 0,-0.30104 -0.95238,-0.9031 0,-0.9031 0.95238,0 -0.95238,0.9031 0,0.9031 1.34687,0 1.65247,-0.71271 2.85714,-0.9031 0.85184,-0.13462 2.18371,0.21286 2.85715,0 0.67343,-0.21286 -0.67344,-0.69023 0,-0.9031 0.0919,-0.0291 7.87849,0 8.57142,0 0.95239,0 1.90477,0 2.85715,0 3.80952,0 11.42857,-1.20413 11.42857,0 0,1.20414 -11.42857,1.20414 -11.42857,0 0,-1.20413 7.61904,0 11.42857,0 z"
       id="path4285"
       inkscape:connector-curvature="0" />
    <path
       style="opacity:1;fill:#f4f4f4;fill-opacity:1;stroke:#000000;stroke-width:0;stroke-linecap:round;stroke-linejoin:round;stroke-miterlimit:4;stroke-dasharray:none;stroke-opacity:1"
       d="m 553.57185,1220.9331 a 101.42857,90 0 0 0 -83.88281,39.4278 110,98.571426 0 0 0 -63.25977,-18 110,98.571426 0 0 0 -109.85742,96.0313 101.42857,101.42858 0 0 0 -71.57226,96.8262 101.42857,101.42858 0 0 0 101.42968,101.4296 101.42857,101.42858 0 0 0 42.53711,-9.4824 185.71428,94.285713 0 0 0 126.03321,25.1973 185.71428,94.285713 0 0 0 183.65429,-81.0664 101.42857,90 0 0 0 44.91797,-74.6485 101.42857,90 0 0 0 -68.60937,-85.0586 101.42857,90 0 0 0 0.0371,-0.6562 101.42857,90 0 0 0 -101.42774,-90.0001 z"
       id="path4293-2"
       inkscape:connector-curvature="0" />
    <path
       style="opacity:1;fill:none;fill-opacity:1;stroke:#000000;stroke-width:5.4;stroke-linecap:round;stroke-linejoin:round;stroke-miterlimit:4;stroke-dasharray:none;stroke-opacity:1"
       d="m 550.81335,1221.8682 c -26.63539,0.66 -53.62894,12.9994 -72.33338,32.2431 m 13.43533,-22.9349 c -8.05705,5.4383 -14.94159,12.0188 -20.47487,19.4591 -11.84896,-7.5532 -24.9629,-12.6728 -38.67846,-15.1651 m 8.45448,9.6347 c -12.75247,-4.2687 -25.73459,-6.607 -38.59123,-7.0204 -11.87019,-0.3606 -23.46275,0.9248 -34.50196,3.713 m 21.83878,-0.9701 c -20.78363,4.1957 -40.86049,13.4309 -56.50619,27.5234 -7.77693,7.0049 -14.30371,15.0729 -19.2379,24.0405 m 8.92675,-29.8599 c -19.57831,17.0018 -28.85931,40.3888 -26.9071,64.0842 -2.98535,0.936 -5.89197,2.0354 -8.7094,3.2904 m 10.40153,-8.1032 c -0.67246,3.7272 -1.0717,7.4263 -1.20059,11.0828 -21.21516,6.4862 -38.20286,17.8872 -49.04704,33.0021 m 4.25638,-9.3269 c -18.74845,17.5444 -28.35023,40.9822 -27.78251,65.5427 m 7.25673,-20.504 c -1.57287,7.3921 -2.44271,15.0811 -2.56951,22.9176 -0.24531,16.1984 2.68884,32.631 8.70839,48.0397 m -6.68422,-12.4824 c 10.66115,30.2052 32.51033,52.1438 61.02871,60.226 m -19.47097,-12.6212 c 16.34929,12.2276 36.62954,18.5503 57.82883,19.2378 10.79955,0.3215 21.64813,-0.8221 32.15849,-3.2354 m -29.22724,5.5536 c 13.28541,-0.5982 25.85195,-3.7421 37.30871,-9.1875 12.42488,5.7838 26.11855,10.5385 41.0656,14.2164 m -24.35405,-10.8568 c 27.83654,9.8484 56.80126,13.9644 88.04777,13.501 m -25.3787,5.8939 c 13.5142,1.5842 27.2179,2.8688 40.89181,3.8983 15.00522,1.1069 30.25066,1.9266 45.24237,2.4701 m -17.04016,-5.3404 c 24.31667,-0.366 49.12739,-3.7305 69.7997,-7.9777 m -13.30212,-1.8479 c 15.39065,-4.1163 29.2435,-8.8394 41.5314,-14.4287 10.86757,-4.9433 20.31602,-10.479 28.28219,-16.6376 m -15.18547,12.686 c 10.40913,-5.4514 19.68245,-11.6949 27.39124,-18.43 11.00129,-9.6117 18.64485,-20.0607 22.49177,-30.8165 6.18686,-3.1948 12.00582,-6.8606 17.36057,-10.9174 m -18.17676,15.3614 c 0.68957,-1.6432 1.28476,-3.3063 1.78541,-4.9856 28.50885,-16.3588 44.88126,-47.214 44.97106,-80.8011 1.8e-4,-0.304 -9.7e-4,-0.608 -0.003,-0.9121 m -6.3112,28.9981 c 3.14883,-8.5305 4.7995,-17.4179 4.90518,-26.2953 0.17149,-18.1249 -6.11364,-35.5586 -17.82502,-49.1325 -2.7093,-3.1402 -5.68944,-6.0494 -8.91298,-8.6907 m 15.50398,15.9126 c -2.40259,-4.3166 -5.16329,-8.4829 -8.25163,-12.459 -11.90856,-15.3317 -28.29142,-27.3208 -46.47391,-34.2896 0.0324,-0.2281 0.0641,-0.4562 0.0949,-0.6845 0.17768,-2.0993 0.28666,-4.2009 0.32746,-6.3013 m 1.05406,20.6168 c -3.95711,-1.932 -8.05365,-3.5996 -12.25232,-4.9975 0.0207,-0.2224 0.0404,-0.4449 0.0593,-0.6673 0.80889,-24.3424 -9.01846,-47.2303 -25.62025,-64.9518 -0.76751,-0.8192 -1.54758,-1.6255 -2.33958,-2.4185 m 17.33402,18.2714 c -3.90042,-5.6651 -8.53004,-10.9385 -13.79618,-15.7406 -17.93654,-16.3562 -42.35739,-26.448 -68.14468,-29.0779 m 29.81938,5.2885 c -10.26974,-3.3333 -20.70031,-4.8906 -31.00447,-4.7634 0,0 0.002,0 0.002,0 -22.37625,0.2836 -43.32882,8.499 -60.00193,21.9846 m 50.29506,-17.4218 c -30.09402,1.9655 -57.38048,14.2613 -74.38394,32.2478 -2.2914,-1.8629 -4.6432,-3.67 -7.0504,-5.4201 m 13.84084,-1.9298 c -4.88596,4.0908 -9.22305,8.6143 -12.96215,13.4915 -18.45557,-11.8038 -39.7355,-18.0189 -61.32908,-18.1055 -4.46066,-0.01 -8.90707,0.2423 -13.31577,0.7514 m 30.77589,-9.0665 c -5.00767,-0.4427 -10.11813,-0.5657 -15.28091,-0.3496 -25.07135,1.094 -50.34194,10.1351 -70.57847,27.5211 m 24.72255,-9.703 c -10.59851,4.5675 -20.27655,10.683 -28.74661,18.1023 -9.91875,8.6882 -18.03319,19.0344 -24.03645,30.5051 m 11.09565,-10.191 c -10.92029,14.7555 -17.01951,32.5664 -17.34013,50.876 -10.14212,3.1669 -19.68578,7.9545 -28.218,14.0864 m 17.2163,-10.3382 c -24.30932,10.0766 -43.18581,27.5823 -54.56287,49.8257 m 7.63764,-12.9334 c -11.8373,17.3851 -17.74779,36.6688 -16.84008,55.5487 0.33602,6.8241 1.56104,13.5123 3.6614,19.9421 m -8.27165,-27.7766 c -0.32739,32.6774 18.20261,66.119 47.65138,86.8677 m -21.91566,-11.6215 c 17.47767,22.4484 44.23502,34.924 73.44574,36.8452 m -10.34161,-11.8376 c 8.65618,2.3707 17.51724,3.5894 26.37828,3.643 14.69209,0.048 29.09482,-3.1085 42.29646,-9.1697 3.62678,1.7658 7.38725,3.4615 11.27489,5.0857 m -22.24095,1.1675 c 2.61845,-0.9526 5.17786,-1.9991 7.67321,-3.1371 22.65074,10.7592 48.94946,19.4648 75.98268,25.5324 m -24.07278,-12.0054 c 22.02921,4.4663 46.38424,7.211 70.88259,7.7407 7.6635,0.1539 15.32011,0.091 22.90823,-0.2018 m -21.69963,-4.9369 c 1.3224,0.025 2.6406,0.045 3.95458,0.06 30.0039,0.3093 58.002,-1.7851 83.28585,-5.7835 m -32.92433,16.039 c 22.00101,-3.5404 43.28504,-9.7647 61.892,-17.7005 9.79942,-4.1794 18.84414,-8.8268 26.92818,-13.8253 m -23.38419,-3.3873 c 14.82017,-7.9682 27.55407,-16.0787 37.75614,-25.2705 6.92562,-6.2398 12.41379,-12.7503 16.33742,-19.5652 m -5.44959,23.5607 c 6.91075,-7.8372 11.31157,-16.1512 13.24666,-24.6308 20.0751,-12.9695 32.13781,-32.9754 34.01369,-56.0856 m 0.75882,31.447 c 10.28365,-13.7741 15.56153,-29.9279 15.7404,-46.3701 0.1298,-15.2517 -4.12539,-30.2427 -11.9793,-43.4321 m 1.06168,8.962 c -2.88393,-12.0996 -8.38304,-23.3725 -16.11007,-33.0025 -6.77007,-8.4374 -15.12698,-15.4561 -24.59346,-20.591 m 13.74831,23.572 c -10.99893,-8.4061 -23.15135,-15.1317 -35.8433,-19.6573 0.0262,-0.2252 0.0517,-0.4505 0.0764,-0.6759 0.93628,-15.9752 -1.98448,-31.9666 -8.61153,-46.4599 m 4.36016,16.2044 c -4.98035,-16.1279 -13.74316,-29.9437 -25.56175,-40.3546 -10.19743,-8.9827 -22.34248,-15.1402 -35.60293,-18.2269 m 26.83887,13.2563 c -17.05555,-10.1673 -36.855,-15.5684 -57.07329,-15.5544 0,0 5e-4,0 5e-4,0 -5.18837,0 -10.36622,0.3657 -15.49193,1.0794 m 5.28017,-5.2061 c -27.52472,2.9418 -51.69637,13.3698 -69.35268,30.835 m 9.74528,-12.3347 c -8.31889,5.4977 -15.38186,12.1075 -21.06585,19.5546 -12.1551,-7.6434 -25.55929,-12.877 -39.72605,-15.4707 m 12.90025,9.1413 c -12.19596,-3.5972 -24.84848,-5.7136 -37.38178,-6.0842 -16.33969,-0.4536 -32.06665,2.0728 -45.9965,7.7305 m 19.98872,-8.4843 c -18.95039,4.1998 -36.22595,13.0189 -49.98025,25.5413 -10.52224,9.5799 -18.73409,21.101 -24.09145,33.862 m 10.14168,-27.8825 c -14.45756,16.3716 -22.39007,37.3637 -21.64153,59.1008 -7.69551,2.6013 -14.91631,6.2478 -21.41358,10.8178 m 22.79727,-11.5376 c -32.51084,10.0401 -60.19945,35.6613 -75.57646,67.6199 m 20.75619,-24.2742 c -9.72738,15.9046 -15.98529,34.4038 -17.26776,52.8423 -0.76972,11.2484 0.3355,22.1984 3.41375,32.1823 m -1.63154,-28.4403 c 2.27675,30.4176 19.84547,59.9073 45.85791,77.1726 M 259.7255,1496.492 c 19.51773,21.0223 46.43719,31.0923 74.97296,28.6155 0.69049,-0.062 1.38121,-0.131 2.07209,-0.2073 m -30.38015,-3.9204 c 6.14111,0.9581 12.50007,1.5014 18.96607,1.5874 14.55996,0.1526 29.31899,-2.0179 43.02172,-6.6665 6.27859,3.5997 12.97306,7.1271 19.97193,10.5239 m -27.7561,-0.4851 c 0.12575,-0.056 0.2514,-0.1124 0.37696,-0.169 21.41588,10.3419 47.5408,17.6868 77.32692,22.1235 m -14.76477,-11.3892 c 22.13348,4.3517 45.31256,6.513 68.20678,6.057 8.91458,-0.192 17.74316,-0.7794 26.42741,-1.7749 m -23.1593,6.7365 c 0.2879,0.01 0.57607,0.014 0.8645,0.021 26.27768,0.5494 54.77826,-1.971 80.45398,-6.3946 m -23.21435,-1.3214 c 22.37861,-5.0819 43.63688,-10.1274 63.61452,-17.1256 6.01047,-2.1055 11.76197,-4.3409 17.24003,-6.7369 m -11.97157,3.5818 c 0.78646,-0.3508 1.56536,-0.7029 2.33672,-1.0564 16.70578,-7.6551 29.6875,-15.8655 38.95647,-24.9454 6.31753,-6.1887 10.8148,-12.7009 13.42644,-19.4352 m -19.67863,15.4977 c 7.6516,-8.0433 12.95152,-16.7757 15.82078,-25.7914 18.7294,-10.9596 33.55817,-27.1644 43.16954,-46.0919 m -7.95017,17.832 c 11.0381,-15.5238 17.06553,-32.6287 16.4331,-49.5227 -0.39416,-9.8509 -3.05821,-19.3744 -8.0524,-28.059 m 4.59746,24.1823 c -1.43131,-15.55 -7.78051,-30.6684 -18.18348,-43.9343 -9.86457,-12.5794 -23.05064,-23.0885 -38.19363,-30.7524 m 26.281,16.0777 c -10.43364,-8.7214 -22.30113,-15.0609 -34.95789,-18.8685 0.0191,-0.2163 0.0375,-0.4327 0.0549,-0.649 0.32542,-11.7334 -1.80786,-23.1788 -6.29981,-33.8551 m 2.134,9.0576 c -4.46499,-17.3375 -14.03874,-33.1194 -27.9128,-45.4227 -4.63311,-4.1086 -9.70153,-7.7891 -15.14816,-10.9889 m 15.9178,19.1167 c -19.87776,-15.1787 -43.81723,-23.7851 -68.28321,-23.0871 -1e-5,0 0.005,0 0.005,0 -5.16653,0.1487 -10.31198,0.7112 -15.4024,1.693 m 11.30585,-6.7052 c -25.18696,0.4693 -47.66461,9.7376 -63.33314,26.2495 m 16.93071,-5.5156 c -11.15892,5.9738 -20.82946,14.2324 -28.48002,24.0258 -11.19713,-6.8526 -23.79245,-11.647 -37.26087,-14.3734 m 18.15438,-0.334 c -13.36405,-6.0537 -28.63248,-8.8224 -44.60369,-8.4911 -9.46352,0.212 -19.07609,1.5102 -28.56888,3.7906 m 8.60767,3.3566 c -23.90267,3.2896 -46.4717,11.9481 -63.10795,26.1933 -1.72343,1.4758 -3.37559,3.0053 -4.95228,4.5873 m 10.37143,-19.4315 c -3.10952,2.2656 -6.09836,4.679 -8.94961,7.2317 -16.87058,15.1041 -28.3183,34.5453 -32.11512,55.7653 m 9.52478,-13.7004 c -3.97122,9.6072 -6.25086,19.5387 -6.86567,29.4798 -22.39798,6.4332 -42.08246,19.4514 -57.23609,37.1958 m 25.61393,-27.2911 c -23.27417,17.1839 -34.82015,43.6165 -33.84716,71.3246 m 4.08105,-10.5886 c -2.44678,8.5481 -3.64359,17.4586 -3.5549,26.419 0.16477,15.0045 3.93099,29.8487 11.04561,43.0916 m -15.59079,-14.6088 c 7.36311,27.7768 25.04361,48.8709 47.50152,60.7822 m -7.45284,-14.1052 c 18.67922,13.2364 39.28875,21.9232 59.54038,23.6311 6.80993,0.5527 13.45782,0.3015 19.82992,-0.7842 m -22.39701,0.3813 c 0.55262,-0 1.10627,-0.014 1.66085,-0.029 14.1391,-0.4128 28.69642,-4.0692 42.31204,-10.9655 13.65892,5.6053 29.43446,9.8816 46.34092,12.1981 m -28.97579,-3.6734 c 21.65133,7.9458 44.62959,12.8566 68.80723,15.2232 m -19.78121,3.2446 c 16.96289,2.829 34.97811,4.1271 53.77978,4.1114 6.81357,-0.016 13.70485,-0.2038 20.64911,-0.5508 m -13.70607,-5.6879 c 23.76964,0.515 49.91517,-2.8161 74.6476,-8.4609 m -10.38067,5.2112 c 22.28319,-3.9207 42.25321,-10.6006 58.94491,-19.452 5.07557,-2.6916 9.82734,-5.5729 14.23544,-8.6222 m -26.90365,10.05 c 0.7574,-0.3601 1.51078,-0.7201 2.26023,-1.0801 16.99156,-8.1624 31.35774,-16.0906 43.02797,-25.0818 11.57002,-8.9139 19.67259,-18.2988 24.12056,-28.2603 3.06982,-1.2738 6.06702,-2.6578 8.98339,-4.15 m -15.90127,20.3419 c 3.91644,-6.0289 6.77597,-12.0893 8.50363,-18.191 16.44922,-9.5329 29.79891,-22.263 38.16679,-37.0521 m -3.15751,9.5581 c 11.7792,-15.3418 17.11721,-32.0828 16.04361,-48.6055 -0.36201,-5.3641 -1.3988,-10.6578 -3.08132,-15.816 m -2.5815,18.2332 c -1.29096,-17.3465 -7.97028,-35.3041 -19.86433,-51.3282 -3.73277,-5.029 -7.94572,-9.8215 -12.60539,-14.3054 m 13.83057,13.5467 c -12.26447,-14.5617 -29.39257,-25.3663 -49.30679,-31.1344 0.006,-0.2179 0.0106,-0.4359 0.0145,-0.654 -0.25138,-7.2394 -1.53886,-14.4498 -3.84782,-21.4759 m -0.61687,13.8006 c -0.18778,-23.5463 -10.1239,-45.608 -26.73293,-62.6271 -1.11075,-1.1382 -2.24776,-2.2502 -3.40944,-3.3353 m 8.407,7.1879 c -2.6977,-2.8623 -5.56104,-5.5844 -8.57601,-8.1448 -14.58178,-12.3834 -32.33943,-20.6683 -51.12784,-23.0204 m 15.62623,4.9823 c -10.78594,-3.6514 -21.86622,-5.4574 -32.78469,-5.4581 0,0 0.004,0 0.004,0 -13.12924,0 -25.78268,2.6151 -37.18077,7.4866 m 33.95125,0.7748 c -26.39564,1.3401 -49.13752,10.6177 -65.58374,26.3727 m 11.31691,-15.2224 c -9.63005,6.5265 -18.22158,14.3186 -25.36701,23.1913 -16.15594,-9.5818 -35.53724,-15.6098 -56.30546,-16.9528 m 33.08591,8.4581 c -11.16606,-3.4752 -22.72763,-5.379 -34.26253,-5.7176 -11.79059,-0.3251 -23.39041,0.9897 -34.34904,3.8069 m 1.72901,-0.3847 c -21.15085,3.4373 -39.91821,12.4091 -53.92653,25.5356 -5.70466,5.3455 -10.5517,11.3173 -14.42275,17.767 m 11.4246,-25.7619 c -20.79098,18.9525 -31.46504,43.5489 -31.55963,70.6656 -0.32789,0.1327 -0.65525,0.2675 -0.98208,0.4042 m 4.77592,-11.5011 c -1.42293,5.6999 -2.21134,11.3974 -2.37647,17.0461 -23.74195,7.5666 -42.24517,22.2787 -53.03139,42.6463 m 25.03259,-26.8578 c -17.16985,16.3568 -28.47315,40.6181 -31.32141,66.5687 m -0.88405,-10.055 c -1.49194,7.5427 -2.22749,15.0857 -2.16568,22.5313 0.23115,24.6698 9.21849,47.2013 26.12872,64.1591 m -14.26753,-25.564 c 12.1824,24.0487 33.45159,44.398 60.16481,56.9764 m -25.08485,-5.9571 c 14.71575,9.3128 32.21067,13.8272 50.17634,13.5198 14.94484,-0.2969 29.83857,-3.9203 43.37938,-10.3956 0.58768,0.2609 1.17848,0.5202 1.77237,0.7777 m -35.89887,6.5266 c 8.69683,-1.6566 17.31864,-4.4821 25.57387,-8.4372 13.05444,5.9619 28.10738,10.9386 44.44203,14.5712 m -9.14592,3.8121 c 30.79648,10.7562 63.29902,12.8813 98.99958,9.5948 m -26.28726,-8.8025 c 10.08313,0.401 20.31212,0.7542 30.41483,0.9465 18.12483,0.3176 36.0692,0.1252 53.85659,-1.212 m -19.80824,0.1308 c 32.25611,-2.1184 60.93714,-9.2798 85.34217,-19.0631 m -25.69985,12.8031 c 9.24874,-3.0699 17.84866,-6.5941 25.76223,-10.5854 16.18897,-8.1653 29.18657,-18.1351 38.62477,-29.5176 2.59042,-3.124 4.90219,-6.343 6.92702,-9.642 m -12.11934,21.2674 c 3.28855,-2.3336 6.33469,-4.8411 9.12296,-7.486 10.40896,-9.8737 17.19689,-21.6073 19.95374,-33.8697 5.499,-4.0617 10.56526,-8.7642 15.10759,-14.0069 m -11.58067,12.4132 c 24.97372,-16.1253 39.94881,-42.6716 38.93482,-69.6787 -0.0971,-2.4255 -0.32319,-4.8407 -0.67912,-7.2368 m 2.64458,28.1516 c 1.2598,-6.4355 1.88827,-12.8778 1.84907,-19.2726 -0.16169,-19.1475 -6.30955,-37.1558 -18.07737,-52.378 -1.12258,-1.4521 -2.29341,-2.8751 -3.51145,-4.268 m 9.21573,10.7851 c -2.2626,-4.1632 -4.86679,-8.1412 -7.78629,-11.9067 -12.05279,-15.5454 -29.06848,-26.9538 -48.38439,-33.1893 0.0206,-0.2204 0.0403,-0.4408 0.0591,-0.6613 0.23943,-7.1534 -0.42631,-14.3026 -1.96157,-21.3314 m 1.49024,26.9349 c -1.77662,-0.6291 -3.57692,-1.2146 -5.39751,-1.7552 0.0224,-0.2146 0.044,-0.4293 0.0646,-0.6441 0.99935,-23.4911 -8.83453,-46.5914 -25.28413,-63.718 -3.84544,-4.0037 -7.99574,-7.6203 -12.35461,-10.7898 m 17.40154,10.8197 c -2.26044,-2.5067 -4.6823,-4.8956 -7.25505,-7.1562 -14.73399,-12.9462 -34.00726,-21.3289 -55.26839,-23.9767 m 22.21484,8.3225 c -10.87432,-2.9739 -22.16591,-4.5203 -33.59274,-4.537 0,0 -0.004,-10e-5 -0.004,-10e-5 -21.48868,-0.028 -42.68696,5.3543 -61.79314,15.6805 m 28.1697,321.754 135.35386,-43.0651 m -3.25734,-239.4869 -63.06427,-57.535 m 134.71074,152.4188 -55.97688,-62.3402 m -283.9864,-74.9369 -81.33554,44.9123 m 22.94564,238.5751 137.65746,41.8486"
       id="path4293"
       inkscape:connector-curvature="0"
       inkscape:path-effect="#path-effect4366"
       inkscape:original-d="m 554.286,1213.7907 a 101.42857,90 0 0 0 -83.88281,39.4278 110,98.571426 0 0 0 -63.25977,-18 110,98.571426 0 0 0 -109.85742,96.0313 101.42857,101.42858 0 0 0 -71.57226,96.8262 101.42857,101.42858 0 0 0 101.42968,101.4296 101.42857,101.42858 0 0 0 42.53711,-9.4824 185.71428,94.285713 0 0 0 126.03321,25.1973 185.71428,94.285713 0 0 0 183.65429,-81.0664 101.42857,90 0 0 0 44.91797,-74.6485 101.42857,90 0 0 0 -68.60937,-85.0586 101.42857,90 0 0 0 0.0371,-0.6562 101.42857,90 0 0 0 -101.42774,-90.0001 z" />
  </g>
</svg>
